%TF.GenerationSoftware,KiCad,Pcbnew,(5.1.9-0-10_14)*%
%TF.CreationDate,2021-09-25T06:11:46-07:00*%
%TF.ProjectId,MX-KEY-SWITCH-BOARD,4d582d4b-4559-42d5-9357-495443482d42,rev?*%
%TF.SameCoordinates,Original*%
%TF.FileFunction,Profile,NP*%
%FSLAX46Y46*%
G04 Gerber Fmt 4.6, Leading zero omitted, Abs format (unit mm)*
G04 Created by KiCad (PCBNEW (5.1.9-0-10_14)) date 2021-09-25 06:11:46*
%MOMM*%
%LPD*%
G01*
G04 APERTURE LIST*
%TA.AperFunction,Profile*%
%ADD10C,0.050000*%
%TD*%
G04 APERTURE END LIST*
D10*
X49000000Y-31000000D02*
X49000000Y-45000000D01*
X46000000Y-31000000D02*
X46000000Y-45000000D01*
X30000000Y-31000000D02*
X30000000Y-45000000D01*
X27000000Y-31000000D02*
X27000000Y-45000000D01*
X16000000Y-46000000D02*
X22000000Y-46000000D01*
X11000000Y-31000000D02*
X11000000Y-45000000D01*
X8000000Y-45000000D02*
X8000000Y-31000000D01*
X-3000000Y-46000000D02*
X7000000Y-46000000D01*
X-8000000Y-35000000D02*
X-8000000Y-41000000D01*
X-8000000Y-16000000D02*
X-8000000Y-22000000D01*
X45000000Y-46000000D02*
X31000000Y-46000000D01*
X64000000Y-46000000D02*
X50000000Y-46000000D01*
X65000000Y-45000000D02*
X65000000Y-31000000D01*
X65000000Y-22000000D02*
X65000000Y-12000000D01*
X65000000Y3000000D02*
X65000000Y-3000000D01*
X54000000Y8000000D02*
X60000000Y8000000D01*
X49000000Y3000000D02*
X49000000Y-3000000D01*
X46000000Y3000000D02*
X46000000Y-3000000D01*
X35000000Y8000000D02*
X41000000Y8000000D01*
X65000000Y7000000D02*
X65000000Y3000000D01*
X65000000Y-3000000D02*
X65000000Y-7000000D01*
X16000000Y8000000D02*
X22000000Y8000000D01*
X-8000000Y3000000D02*
X-8000000Y-3000000D01*
X-3000000Y8000000D02*
X3000000Y8000000D01*
X11000000Y3000000D02*
X11000000Y-3000000D01*
X8000000Y3000000D02*
X8000000Y-3000000D01*
X30000000Y3000000D02*
X30000000Y-3000000D01*
X27000000Y-3000000D02*
X27000000Y3000000D01*
X-2000000Y-28000000D02*
X-2000000Y-29000000D01*
X2000000Y-28000000D02*
X2000000Y-29000000D01*
X17000000Y-28000000D02*
X17000000Y-29000000D01*
X10000000Y-21000000D02*
X9000000Y-21000000D01*
X10000000Y-17000000D02*
X9000000Y-17000000D01*
X29000000Y-17000000D02*
X28000000Y-17000000D01*
X29000000Y-21000000D02*
X28000000Y-21000000D01*
X21000000Y-28000000D02*
X21000000Y-29000000D01*
X36000000Y-29000000D02*
X36000000Y-28000000D01*
X40000000Y-28000000D02*
X40000000Y-29000000D01*
X48000000Y-21000000D02*
X47000000Y-21000000D01*
X55000000Y-28000000D02*
X55000000Y-29000000D01*
X59000000Y-28000000D02*
X59000000Y-29000000D01*
X59000000Y-9000000D02*
X59000000Y-10000000D01*
X55000000Y-9000000D02*
X55000000Y-10000000D01*
X47000000Y-17000000D02*
X48000000Y-17000000D01*
X40000000Y-9000000D02*
X40000000Y-10000000D01*
X36000000Y-9000000D02*
X36000000Y-10000000D01*
X21000000Y-9000000D02*
X21000000Y-10000000D01*
X17000000Y-9000000D02*
X17000000Y-10000000D01*
X49000000Y-31000000D02*
G75*
G02*
X50000000Y-30000000I1000000J0D01*
G01*
X64000000Y-30000000D02*
G75*
G02*
X65000000Y-31000000I0J-1000000D01*
G01*
X65000000Y-45000000D02*
G75*
G02*
X64000000Y-46000000I-1000000J0D01*
G01*
X50000000Y-46000000D02*
G75*
G02*
X49000000Y-45000000I0J1000000D01*
G01*
X55000000Y-29000000D02*
G75*
G02*
X54000000Y-30000000I-1000000J0D01*
G01*
X50000000Y-30000000D02*
X54000000Y-30000000D01*
X60000000Y-30000000D02*
X64000000Y-30000000D01*
X60000000Y-30000000D02*
G75*
G02*
X59000000Y-29000000I0J1000000D01*
G01*
X30000000Y-31000000D02*
G75*
G02*
X31000000Y-30000000I1000000J0D01*
G01*
X45000000Y-30000000D02*
G75*
G02*
X46000000Y-31000000I0J-1000000D01*
G01*
X46000000Y-45000000D02*
G75*
G02*
X45000000Y-46000000I-1000000J0D01*
G01*
X31000000Y-46000000D02*
G75*
G02*
X30000000Y-45000000I0J1000000D01*
G01*
X36000000Y-29000000D02*
G75*
G02*
X35000000Y-30000000I-1000000J0D01*
G01*
X31000000Y-30000000D02*
X35000000Y-30000000D01*
X41000000Y-30000000D02*
X45000000Y-30000000D01*
X41000000Y-30000000D02*
G75*
G02*
X40000000Y-29000000I0J1000000D01*
G01*
X11000000Y-31000000D02*
G75*
G02*
X12000000Y-30000000I1000000J0D01*
G01*
X26000000Y-30000000D02*
G75*
G02*
X27000000Y-31000000I0J-1000000D01*
G01*
X27000000Y-45000000D02*
G75*
G02*
X26000000Y-46000000I-1000000J0D01*
G01*
X12000000Y-46000000D02*
G75*
G02*
X11000000Y-45000000I0J1000000D01*
G01*
X26000000Y-46000000D02*
X22000000Y-46000000D01*
X16000000Y-46000000D02*
X12000000Y-46000000D01*
X17000000Y-29000000D02*
G75*
G02*
X16000000Y-30000000I-1000000J0D01*
G01*
X12000000Y-30000000D02*
X16000000Y-30000000D01*
X22000000Y-30000000D02*
X26000000Y-30000000D01*
X22000000Y-30000000D02*
G75*
G02*
X21000000Y-29000000I0J1000000D01*
G01*
X-8000000Y-31000000D02*
G75*
G02*
X-7000000Y-30000000I1000000J0D01*
G01*
X7000000Y-30000000D02*
G75*
G02*
X8000000Y-31000000I0J-1000000D01*
G01*
X8000000Y-45000000D02*
G75*
G02*
X7000000Y-46000000I-1000000J0D01*
G01*
X-7000000Y-46000000D02*
G75*
G02*
X-8000000Y-45000000I0J1000000D01*
G01*
X-8000000Y-35000000D02*
X-8000000Y-31000000D01*
X-8000000Y-45000000D02*
X-8000000Y-41000000D01*
X-3000000Y-46000000D02*
X-7000000Y-46000000D01*
X-2000000Y-29000000D02*
G75*
G02*
X-3000000Y-30000000I-1000000J0D01*
G01*
X-7000000Y-30000000D02*
X-3000000Y-30000000D01*
X3000000Y-30000000D02*
X7000000Y-30000000D01*
X3000000Y-30000000D02*
G75*
G02*
X2000000Y-29000000I0J1000000D01*
G01*
X49000000Y-12000000D02*
G75*
G02*
X50000000Y-11000000I1000000J0D01*
G01*
X64000000Y-11000000D02*
G75*
G02*
X65000000Y-12000000I0J-1000000D01*
G01*
X65000000Y-26000000D02*
G75*
G02*
X64000000Y-27000000I-1000000J0D01*
G01*
X50000000Y-27000000D02*
G75*
G02*
X49000000Y-26000000I0J1000000D01*
G01*
X49000000Y-16000000D02*
X49000000Y-12000000D01*
X49000000Y-26000000D02*
X49000000Y-22000000D01*
X49000000Y-16000000D02*
G75*
G02*
X48000000Y-17000000I-1000000J0D01*
G01*
X48000000Y-21000000D02*
G75*
G02*
X49000000Y-22000000I0J-1000000D01*
G01*
X59000000Y-28000000D02*
G75*
G02*
X60000000Y-27000000I1000000J0D01*
G01*
X64000000Y-27000000D02*
X60000000Y-27000000D01*
X54000000Y-27000000D02*
X50000000Y-27000000D01*
X54000000Y-27000000D02*
G75*
G02*
X55000000Y-28000000I0J-1000000D01*
G01*
X65000000Y-22000000D02*
X65000000Y-26000000D01*
X55000000Y-10000000D02*
G75*
G02*
X54000000Y-11000000I-1000000J0D01*
G01*
X50000000Y-11000000D02*
X54000000Y-11000000D01*
X60000000Y-11000000D02*
X64000000Y-11000000D01*
X60000000Y-11000000D02*
G75*
G02*
X59000000Y-10000000I0J1000000D01*
G01*
X30000000Y-12000000D02*
G75*
G02*
X31000000Y-11000000I1000000J0D01*
G01*
X45000000Y-11000000D02*
G75*
G02*
X46000000Y-12000000I0J-1000000D01*
G01*
X46000000Y-26000000D02*
G75*
G02*
X45000000Y-27000000I-1000000J0D01*
G01*
X31000000Y-27000000D02*
G75*
G02*
X30000000Y-26000000I0J1000000D01*
G01*
X30000000Y-16000000D02*
X30000000Y-12000000D01*
X30000000Y-26000000D02*
X30000000Y-22000000D01*
X30000000Y-16000000D02*
G75*
G02*
X29000000Y-17000000I-1000000J0D01*
G01*
X29000000Y-21000000D02*
G75*
G02*
X30000000Y-22000000I0J-1000000D01*
G01*
X40000000Y-28000000D02*
G75*
G02*
X41000000Y-27000000I1000000J0D01*
G01*
X45000000Y-27000000D02*
X41000000Y-27000000D01*
X35000000Y-27000000D02*
X31000000Y-27000000D01*
X35000000Y-27000000D02*
G75*
G02*
X36000000Y-28000000I0J-1000000D01*
G01*
X47000000Y-17000000D02*
G75*
G02*
X46000000Y-16000000I0J1000000D01*
G01*
X46000000Y-12000000D02*
X46000000Y-16000000D01*
X46000000Y-22000000D02*
X46000000Y-26000000D01*
X46000000Y-22000000D02*
G75*
G02*
X47000000Y-21000000I1000000J0D01*
G01*
X36000000Y-10000000D02*
G75*
G02*
X35000000Y-11000000I-1000000J0D01*
G01*
X31000000Y-11000000D02*
X35000000Y-11000000D01*
X41000000Y-11000000D02*
X45000000Y-11000000D01*
X41000000Y-11000000D02*
G75*
G02*
X40000000Y-10000000I0J1000000D01*
G01*
X11000000Y-12000000D02*
G75*
G02*
X12000000Y-11000000I1000000J0D01*
G01*
X26000000Y-11000000D02*
G75*
G02*
X27000000Y-12000000I0J-1000000D01*
G01*
X27000000Y-26000000D02*
G75*
G02*
X26000000Y-27000000I-1000000J0D01*
G01*
X12000000Y-27000000D02*
G75*
G02*
X11000000Y-26000000I0J1000000D01*
G01*
X11000000Y-16000000D02*
X11000000Y-12000000D01*
X11000000Y-26000000D02*
X11000000Y-22000000D01*
X11000000Y-16000000D02*
G75*
G02*
X10000000Y-17000000I-1000000J0D01*
G01*
X10000000Y-21000000D02*
G75*
G02*
X11000000Y-22000000I0J-1000000D01*
G01*
X21000000Y-28000000D02*
G75*
G02*
X22000000Y-27000000I1000000J0D01*
G01*
X26000000Y-27000000D02*
X22000000Y-27000000D01*
X16000000Y-27000000D02*
X12000000Y-27000000D01*
X16000000Y-27000000D02*
G75*
G02*
X17000000Y-28000000I0J-1000000D01*
G01*
X28000000Y-17000000D02*
G75*
G02*
X27000000Y-16000000I0J1000000D01*
G01*
X27000000Y-12000000D02*
X27000000Y-16000000D01*
X27000000Y-22000000D02*
X27000000Y-26000000D01*
X27000000Y-22000000D02*
G75*
G02*
X28000000Y-21000000I1000000J0D01*
G01*
X17000000Y-10000000D02*
G75*
G02*
X16000000Y-11000000I-1000000J0D01*
G01*
X12000000Y-11000000D02*
X16000000Y-11000000D01*
X22000000Y-11000000D02*
X26000000Y-11000000D01*
X22000000Y-11000000D02*
G75*
G02*
X21000000Y-10000000I0J1000000D01*
G01*
X-8000000Y-12000000D02*
G75*
G02*
X-7000000Y-11000000I1000000J0D01*
G01*
X7000000Y-11000000D02*
G75*
G02*
X8000000Y-12000000I0J-1000000D01*
G01*
X8000000Y-26000000D02*
G75*
G02*
X7000000Y-27000000I-1000000J0D01*
G01*
X-7000000Y-27000000D02*
G75*
G02*
X-8000000Y-26000000I0J1000000D01*
G01*
X-8000000Y-16000000D02*
X-8000000Y-12000000D01*
X-8000000Y-26000000D02*
X-8000000Y-22000000D01*
X2000000Y-28000000D02*
G75*
G02*
X3000000Y-27000000I1000000J0D01*
G01*
X7000000Y-27000000D02*
X3000000Y-27000000D01*
X-3000000Y-27000000D02*
X-7000000Y-27000000D01*
X-3000000Y-27000000D02*
G75*
G02*
X-2000000Y-28000000I0J-1000000D01*
G01*
X9000000Y-17000000D02*
G75*
G02*
X8000000Y-16000000I0J1000000D01*
G01*
X8000000Y-12000000D02*
X8000000Y-16000000D01*
X8000000Y-22000000D02*
X8000000Y-26000000D01*
X8000000Y-22000000D02*
G75*
G02*
X9000000Y-21000000I1000000J0D01*
G01*
X-2000000Y-10000000D02*
G75*
G02*
X-3000000Y-11000000I-1000000J0D01*
G01*
X-7000000Y-11000000D02*
X-3000000Y-11000000D01*
X3000000Y-11000000D02*
X7000000Y-11000000D01*
X3000000Y-11000000D02*
G75*
G02*
X2000000Y-10000000I0J1000000D01*
G01*
X49000000Y7000000D02*
G75*
G02*
X50000000Y8000000I1000000J0D01*
G01*
X64000000Y8000000D02*
G75*
G02*
X65000000Y7000000I0J-1000000D01*
G01*
X65000000Y-7000000D02*
G75*
G02*
X64000000Y-8000000I-1000000J0D01*
G01*
X50000000Y-8000000D02*
G75*
G02*
X49000000Y-7000000I0J1000000D01*
G01*
X49000000Y3000000D02*
X49000000Y7000000D01*
X49000000Y-7000000D02*
X49000000Y-3000000D01*
X59000000Y-9000000D02*
G75*
G02*
X60000000Y-8000000I1000000J0D01*
G01*
X64000000Y-8000000D02*
X60000000Y-8000000D01*
X54000000Y-8000000D02*
X50000000Y-8000000D01*
X54000000Y-8000000D02*
G75*
G02*
X55000000Y-9000000I0J-1000000D01*
G01*
X50000000Y8000000D02*
X54000000Y8000000D01*
X60000000Y8000000D02*
X64000000Y8000000D01*
X30000000Y7000000D02*
G75*
G02*
X31000000Y8000000I1000000J0D01*
G01*
X45000000Y8000000D02*
G75*
G02*
X46000000Y7000000I0J-1000000D01*
G01*
X46000000Y-7000000D02*
G75*
G02*
X45000000Y-8000000I-1000000J0D01*
G01*
X31000000Y-8000000D02*
G75*
G02*
X30000000Y-7000000I0J1000000D01*
G01*
X30000000Y3000000D02*
X30000000Y7000000D01*
X30000000Y-7000000D02*
X30000000Y-3000000D01*
X40000000Y-9000000D02*
G75*
G02*
X41000000Y-8000000I1000000J0D01*
G01*
X45000000Y-8000000D02*
X41000000Y-8000000D01*
X35000000Y-8000000D02*
X31000000Y-8000000D01*
X35000000Y-8000000D02*
G75*
G02*
X36000000Y-9000000I0J-1000000D01*
G01*
X46000000Y7000000D02*
X46000000Y3000000D01*
X46000000Y-3000000D02*
X46000000Y-7000000D01*
X31000000Y8000000D02*
X35000000Y8000000D01*
X41000000Y8000000D02*
X45000000Y8000000D01*
X11000000Y7000000D02*
G75*
G02*
X12000000Y8000000I1000000J0D01*
G01*
X26000000Y8000000D02*
G75*
G02*
X27000000Y7000000I0J-1000000D01*
G01*
X27000000Y-7000000D02*
G75*
G02*
X26000000Y-8000000I-1000000J0D01*
G01*
X12000000Y-8000000D02*
G75*
G02*
X11000000Y-7000000I0J1000000D01*
G01*
X11000000Y3000000D02*
X11000000Y7000000D01*
X11000000Y-7000000D02*
X11000000Y-3000000D01*
X21000000Y-9000000D02*
G75*
G02*
X22000000Y-8000000I1000000J0D01*
G01*
X26000000Y-8000000D02*
X22000000Y-8000000D01*
X16000000Y-8000000D02*
X12000000Y-8000000D01*
X16000000Y-8000000D02*
G75*
G02*
X17000000Y-9000000I0J-1000000D01*
G01*
X27000000Y7000000D02*
X27000000Y3000000D01*
X27000000Y-3000000D02*
X27000000Y-7000000D01*
X12000000Y8000000D02*
X16000000Y8000000D01*
X22000000Y8000000D02*
X26000000Y8000000D01*
X3000000Y8000000D02*
X7000000Y8000000D01*
X-7000000Y8000000D02*
X-3000000Y8000000D01*
X8000000Y-3000000D02*
X8000000Y-7000000D01*
X8000000Y7000000D02*
X8000000Y3000000D01*
X-3000000Y-8000000D02*
G75*
G02*
X-2000000Y-9000000I0J-1000000D01*
G01*
X-3000000Y-8000000D02*
X-7000000Y-8000000D01*
X2000000Y-10000000D02*
X2000000Y-9000000D01*
X-2000000Y-9000000D02*
X-2000000Y-10000000D01*
X7000000Y-8000000D02*
X3000000Y-8000000D01*
X2000000Y-9000000D02*
G75*
G02*
X3000000Y-8000000I1000000J0D01*
G01*
X-8000000Y-7000000D02*
X-8000000Y-3000000D01*
X-8000000Y3000000D02*
X-8000000Y7000000D01*
X-7000000Y-8000000D02*
G75*
G02*
X-8000000Y-7000000I0J1000000D01*
G01*
X8000000Y-7000000D02*
G75*
G02*
X7000000Y-8000000I-1000000J0D01*
G01*
X7000000Y8000000D02*
G75*
G02*
X8000000Y7000000I0J-1000000D01*
G01*
X-8000000Y7000000D02*
G75*
G02*
X-7000000Y8000000I1000000J0D01*
G01*
M02*
