%TF.GenerationSoftware,KiCad,Pcbnew,(5.1.9-0-10_14)*%
%TF.CreationDate,2021-09-25T06:11:46-07:00*%
%TF.ProjectId,MX-KEY-SWITCH-BOARD,4d582d4b-4559-42d5-9357-495443482d42,rev?*%
%TF.SameCoordinates,Original*%
%TF.FileFunction,Paste,Top*%
%TF.FilePolarity,Positive*%
%FSLAX46Y46*%
G04 Gerber Fmt 4.6, Leading zero omitted, Abs format (unit mm)*
G04 Created by KiCad (PCBNEW (5.1.9-0-10_14)) date 2021-09-25 06:11:46*
%MOMM*%
%LPD*%
G01*
G04 APERTURE LIST*
%ADD10R,0.700000X0.700000*%
G04 APERTURE END LIST*
D10*
%TO.C,WS12*%
X55780000Y-43760000D03*
X55780000Y-42640000D03*
X57620000Y-42640000D03*
X57620000Y-43760000D03*
%TD*%
%TO.C,WS11*%
X36780000Y-43760000D03*
X36780000Y-42640000D03*
X38620000Y-42640000D03*
X38620000Y-43760000D03*
%TD*%
%TO.C,WS10*%
X17780000Y-43760000D03*
X17780000Y-42640000D03*
X19620000Y-42640000D03*
X19620000Y-43760000D03*
%TD*%
%TO.C,WS9*%
X-1220000Y-43760000D03*
X-1220000Y-42640000D03*
X620000Y-42640000D03*
X620000Y-43760000D03*
%TD*%
%TO.C,WS8*%
X55780000Y-24760000D03*
X55780000Y-23640000D03*
X57620000Y-23640000D03*
X57620000Y-24760000D03*
%TD*%
%TO.C,WS7*%
X36780000Y-24760000D03*
X36780000Y-23640000D03*
X38620000Y-23640000D03*
X38620000Y-24760000D03*
%TD*%
%TO.C,WS6*%
X17780000Y-24760000D03*
X17780000Y-23640000D03*
X19620000Y-23640000D03*
X19620000Y-24760000D03*
%TD*%
%TO.C,WS5*%
X-1220000Y-24760000D03*
X-1220000Y-23640000D03*
X620000Y-23640000D03*
X620000Y-24760000D03*
%TD*%
%TO.C,WS4*%
X55780000Y-5760000D03*
X55780000Y-4640000D03*
X57620000Y-4640000D03*
X57620000Y-5760000D03*
%TD*%
%TO.C,WS3*%
X36780000Y-5760000D03*
X36780000Y-4640000D03*
X38620000Y-4640000D03*
X38620000Y-5760000D03*
%TD*%
%TO.C,WS2*%
X17780000Y-5760000D03*
X17780000Y-4640000D03*
X19620000Y-4640000D03*
X19620000Y-5760000D03*
%TD*%
%TO.C,D12*%
G36*
G01*
X59060000Y-42982500D02*
X58740000Y-42982500D01*
G75*
G02*
X58580000Y-42822500I0J160000D01*
G01*
X58580000Y-42377500D01*
G75*
G02*
X58740000Y-42217500I160000J0D01*
G01*
X59060000Y-42217500D01*
G75*
G02*
X59220000Y-42377500I0J-160000D01*
G01*
X59220000Y-42822500D01*
G75*
G02*
X59060000Y-42982500I-160000J0D01*
G01*
G37*
G36*
G01*
X59060000Y-44127500D02*
X58740000Y-44127500D01*
G75*
G02*
X58580000Y-43967500I0J160000D01*
G01*
X58580000Y-43522500D01*
G75*
G02*
X58740000Y-43362500I160000J0D01*
G01*
X59060000Y-43362500D01*
G75*
G02*
X59220000Y-43522500I0J-160000D01*
G01*
X59220000Y-43967500D01*
G75*
G02*
X59060000Y-44127500I-160000J0D01*
G01*
G37*
%TD*%
%TO.C,D11*%
G36*
G01*
X40060000Y-42982500D02*
X39740000Y-42982500D01*
G75*
G02*
X39580000Y-42822500I0J160000D01*
G01*
X39580000Y-42377500D01*
G75*
G02*
X39740000Y-42217500I160000J0D01*
G01*
X40060000Y-42217500D01*
G75*
G02*
X40220000Y-42377500I0J-160000D01*
G01*
X40220000Y-42822500D01*
G75*
G02*
X40060000Y-42982500I-160000J0D01*
G01*
G37*
G36*
G01*
X40060000Y-44127500D02*
X39740000Y-44127500D01*
G75*
G02*
X39580000Y-43967500I0J160000D01*
G01*
X39580000Y-43522500D01*
G75*
G02*
X39740000Y-43362500I160000J0D01*
G01*
X40060000Y-43362500D01*
G75*
G02*
X40220000Y-43522500I0J-160000D01*
G01*
X40220000Y-43967500D01*
G75*
G02*
X40060000Y-44127500I-160000J0D01*
G01*
G37*
%TD*%
%TO.C,D10*%
G36*
G01*
X21060000Y-42982500D02*
X20740000Y-42982500D01*
G75*
G02*
X20580000Y-42822500I0J160000D01*
G01*
X20580000Y-42377500D01*
G75*
G02*
X20740000Y-42217500I160000J0D01*
G01*
X21060000Y-42217500D01*
G75*
G02*
X21220000Y-42377500I0J-160000D01*
G01*
X21220000Y-42822500D01*
G75*
G02*
X21060000Y-42982500I-160000J0D01*
G01*
G37*
G36*
G01*
X21060000Y-44127500D02*
X20740000Y-44127500D01*
G75*
G02*
X20580000Y-43967500I0J160000D01*
G01*
X20580000Y-43522500D01*
G75*
G02*
X20740000Y-43362500I160000J0D01*
G01*
X21060000Y-43362500D01*
G75*
G02*
X21220000Y-43522500I0J-160000D01*
G01*
X21220000Y-43967500D01*
G75*
G02*
X21060000Y-44127500I-160000J0D01*
G01*
G37*
%TD*%
%TO.C,D9*%
G36*
G01*
X2060000Y-42982500D02*
X1740000Y-42982500D01*
G75*
G02*
X1580000Y-42822500I0J160000D01*
G01*
X1580000Y-42377500D01*
G75*
G02*
X1740000Y-42217500I160000J0D01*
G01*
X2060000Y-42217500D01*
G75*
G02*
X2220000Y-42377500I0J-160000D01*
G01*
X2220000Y-42822500D01*
G75*
G02*
X2060000Y-42982500I-160000J0D01*
G01*
G37*
G36*
G01*
X2060000Y-44127500D02*
X1740000Y-44127500D01*
G75*
G02*
X1580000Y-43967500I0J160000D01*
G01*
X1580000Y-43522500D01*
G75*
G02*
X1740000Y-43362500I160000J0D01*
G01*
X2060000Y-43362500D01*
G75*
G02*
X2220000Y-43522500I0J-160000D01*
G01*
X2220000Y-43967500D01*
G75*
G02*
X2060000Y-44127500I-160000J0D01*
G01*
G37*
%TD*%
%TO.C,D8*%
G36*
G01*
X59060000Y-23982500D02*
X58740000Y-23982500D01*
G75*
G02*
X58580000Y-23822500I0J160000D01*
G01*
X58580000Y-23377500D01*
G75*
G02*
X58740000Y-23217500I160000J0D01*
G01*
X59060000Y-23217500D01*
G75*
G02*
X59220000Y-23377500I0J-160000D01*
G01*
X59220000Y-23822500D01*
G75*
G02*
X59060000Y-23982500I-160000J0D01*
G01*
G37*
G36*
G01*
X59060000Y-25127500D02*
X58740000Y-25127500D01*
G75*
G02*
X58580000Y-24967500I0J160000D01*
G01*
X58580000Y-24522500D01*
G75*
G02*
X58740000Y-24362500I160000J0D01*
G01*
X59060000Y-24362500D01*
G75*
G02*
X59220000Y-24522500I0J-160000D01*
G01*
X59220000Y-24967500D01*
G75*
G02*
X59060000Y-25127500I-160000J0D01*
G01*
G37*
%TD*%
%TO.C,D7*%
G36*
G01*
X40060000Y-23982500D02*
X39740000Y-23982500D01*
G75*
G02*
X39580000Y-23822500I0J160000D01*
G01*
X39580000Y-23377500D01*
G75*
G02*
X39740000Y-23217500I160000J0D01*
G01*
X40060000Y-23217500D01*
G75*
G02*
X40220000Y-23377500I0J-160000D01*
G01*
X40220000Y-23822500D01*
G75*
G02*
X40060000Y-23982500I-160000J0D01*
G01*
G37*
G36*
G01*
X40060000Y-25127500D02*
X39740000Y-25127500D01*
G75*
G02*
X39580000Y-24967500I0J160000D01*
G01*
X39580000Y-24522500D01*
G75*
G02*
X39740000Y-24362500I160000J0D01*
G01*
X40060000Y-24362500D01*
G75*
G02*
X40220000Y-24522500I0J-160000D01*
G01*
X40220000Y-24967500D01*
G75*
G02*
X40060000Y-25127500I-160000J0D01*
G01*
G37*
%TD*%
%TO.C,D6*%
G36*
G01*
X21060000Y-23982500D02*
X20740000Y-23982500D01*
G75*
G02*
X20580000Y-23822500I0J160000D01*
G01*
X20580000Y-23377500D01*
G75*
G02*
X20740000Y-23217500I160000J0D01*
G01*
X21060000Y-23217500D01*
G75*
G02*
X21220000Y-23377500I0J-160000D01*
G01*
X21220000Y-23822500D01*
G75*
G02*
X21060000Y-23982500I-160000J0D01*
G01*
G37*
G36*
G01*
X21060000Y-25127500D02*
X20740000Y-25127500D01*
G75*
G02*
X20580000Y-24967500I0J160000D01*
G01*
X20580000Y-24522500D01*
G75*
G02*
X20740000Y-24362500I160000J0D01*
G01*
X21060000Y-24362500D01*
G75*
G02*
X21220000Y-24522500I0J-160000D01*
G01*
X21220000Y-24967500D01*
G75*
G02*
X21060000Y-25127500I-160000J0D01*
G01*
G37*
%TD*%
%TO.C,D5*%
G36*
G01*
X2060000Y-23982500D02*
X1740000Y-23982500D01*
G75*
G02*
X1580000Y-23822500I0J160000D01*
G01*
X1580000Y-23377500D01*
G75*
G02*
X1740000Y-23217500I160000J0D01*
G01*
X2060000Y-23217500D01*
G75*
G02*
X2220000Y-23377500I0J-160000D01*
G01*
X2220000Y-23822500D01*
G75*
G02*
X2060000Y-23982500I-160000J0D01*
G01*
G37*
G36*
G01*
X2060000Y-25127500D02*
X1740000Y-25127500D01*
G75*
G02*
X1580000Y-24967500I0J160000D01*
G01*
X1580000Y-24522500D01*
G75*
G02*
X1740000Y-24362500I160000J0D01*
G01*
X2060000Y-24362500D01*
G75*
G02*
X2220000Y-24522500I0J-160000D01*
G01*
X2220000Y-24967500D01*
G75*
G02*
X2060000Y-25127500I-160000J0D01*
G01*
G37*
%TD*%
%TO.C,D4*%
G36*
G01*
X59060000Y-4982500D02*
X58740000Y-4982500D01*
G75*
G02*
X58580000Y-4822500I0J160000D01*
G01*
X58580000Y-4377500D01*
G75*
G02*
X58740000Y-4217500I160000J0D01*
G01*
X59060000Y-4217500D01*
G75*
G02*
X59220000Y-4377500I0J-160000D01*
G01*
X59220000Y-4822500D01*
G75*
G02*
X59060000Y-4982500I-160000J0D01*
G01*
G37*
G36*
G01*
X59060000Y-6127500D02*
X58740000Y-6127500D01*
G75*
G02*
X58580000Y-5967500I0J160000D01*
G01*
X58580000Y-5522500D01*
G75*
G02*
X58740000Y-5362500I160000J0D01*
G01*
X59060000Y-5362500D01*
G75*
G02*
X59220000Y-5522500I0J-160000D01*
G01*
X59220000Y-5967500D01*
G75*
G02*
X59060000Y-6127500I-160000J0D01*
G01*
G37*
%TD*%
%TO.C,D3*%
G36*
G01*
X40060000Y-4982500D02*
X39740000Y-4982500D01*
G75*
G02*
X39580000Y-4822500I0J160000D01*
G01*
X39580000Y-4377500D01*
G75*
G02*
X39740000Y-4217500I160000J0D01*
G01*
X40060000Y-4217500D01*
G75*
G02*
X40220000Y-4377500I0J-160000D01*
G01*
X40220000Y-4822500D01*
G75*
G02*
X40060000Y-4982500I-160000J0D01*
G01*
G37*
G36*
G01*
X40060000Y-6127500D02*
X39740000Y-6127500D01*
G75*
G02*
X39580000Y-5967500I0J160000D01*
G01*
X39580000Y-5522500D01*
G75*
G02*
X39740000Y-5362500I160000J0D01*
G01*
X40060000Y-5362500D01*
G75*
G02*
X40220000Y-5522500I0J-160000D01*
G01*
X40220000Y-5967500D01*
G75*
G02*
X40060000Y-6127500I-160000J0D01*
G01*
G37*
%TD*%
%TO.C,D2*%
G36*
G01*
X21060000Y-4982500D02*
X20740000Y-4982500D01*
G75*
G02*
X20580000Y-4822500I0J160000D01*
G01*
X20580000Y-4377500D01*
G75*
G02*
X20740000Y-4217500I160000J0D01*
G01*
X21060000Y-4217500D01*
G75*
G02*
X21220000Y-4377500I0J-160000D01*
G01*
X21220000Y-4822500D01*
G75*
G02*
X21060000Y-4982500I-160000J0D01*
G01*
G37*
G36*
G01*
X21060000Y-6127500D02*
X20740000Y-6127500D01*
G75*
G02*
X20580000Y-5967500I0J160000D01*
G01*
X20580000Y-5522500D01*
G75*
G02*
X20740000Y-5362500I160000J0D01*
G01*
X21060000Y-5362500D01*
G75*
G02*
X21220000Y-5522500I0J-160000D01*
G01*
X21220000Y-5967500D01*
G75*
G02*
X21060000Y-6127500I-160000J0D01*
G01*
G37*
%TD*%
%TO.C,WS1*%
X-1220000Y-5760000D03*
X-1220000Y-4640000D03*
X620000Y-4640000D03*
X620000Y-5760000D03*
%TD*%
%TO.C,D1*%
G36*
G01*
X2060000Y-4982500D02*
X1740000Y-4982500D01*
G75*
G02*
X1580000Y-4822500I0J160000D01*
G01*
X1580000Y-4377500D01*
G75*
G02*
X1740000Y-4217500I160000J0D01*
G01*
X2060000Y-4217500D01*
G75*
G02*
X2220000Y-4377500I0J-160000D01*
G01*
X2220000Y-4822500D01*
G75*
G02*
X2060000Y-4982500I-160000J0D01*
G01*
G37*
G36*
G01*
X2060000Y-6127500D02*
X1740000Y-6127500D01*
G75*
G02*
X1580000Y-5967500I0J160000D01*
G01*
X1580000Y-5522500D01*
G75*
G02*
X1740000Y-5362500I160000J0D01*
G01*
X2060000Y-5362500D01*
G75*
G02*
X2220000Y-5522500I0J-160000D01*
G01*
X2220000Y-5967500D01*
G75*
G02*
X2060000Y-6127500I-160000J0D01*
G01*
G37*
%TD*%
M02*
