M48
; DRILL file {KiCad (5.1.9-0-10_14)} date Saturday, September 25, 2021 at 06:11:48 AM
; FORMAT={-:-/ absolute / inch / decimal}
; #@! TF.CreationDate,2021-09-25T06:11:48-07:00
; #@! TF.GenerationSoftware,Kicad,Pcbnew,(5.1.9-0-10_14)
; #@! TF.FileFunction,NonPlated,1,2,NPTH
FMAT,2
INCH
T1C0.0669
T2C0.1575
%
G90
G05
T1
X-0.1976Y0.0008
X-0.1976Y-0.7472
X-0.1976Y-1.4953
X0.2024Y0.0008
X0.2024Y-0.7472
X0.2024Y-1.4953
X0.5504Y0.0008
X0.5504Y-0.7472
X0.5504Y-1.4953
X0.9504Y0.0008
X0.9504Y-0.7472
X0.9504Y-1.4953
X1.2984Y0.0008
X1.2984Y-0.7472
X1.2984Y-1.4953
X1.6984Y0.0008
X1.6984Y-0.7472
X1.6984Y-1.4953
X2.0465Y0.0008
X2.0465Y-0.7472
X2.0465Y-1.4953
X2.4465Y0.0008
X2.4465Y-0.7472
X2.4465Y-1.4953
T2
X0.0024Y0.0008
X0.0024Y-0.7472
X0.0024Y-1.4953
X0.7504Y0.0008
X0.7504Y-0.7472
X0.7504Y-1.4953
X1.4984Y0.0008
X1.4984Y-0.7472
X1.4984Y-1.4953
X2.2465Y0.0008
X2.2465Y-0.7472
X2.2465Y-1.4953
T0
M30
