%TF.GenerationSoftware,KiCad,Pcbnew,(5.1.9-0-10_14)*%
%TF.CreationDate,2021-09-25T06:11:46-07:00*%
%TF.ProjectId,MX-KEY-SWITCH-BOARD,4d582d4b-4559-42d5-9357-495443482d42,rev?*%
%TF.SameCoordinates,Original*%
%TF.FileFunction,Legend,Bot*%
%TF.FilePolarity,Positive*%
%FSLAX46Y46*%
G04 Gerber Fmt 4.6, Leading zero omitted, Abs format (unit mm)*
G04 Created by KiCad (PCBNEW (5.1.9-0-10_14)) date 2021-09-25 06:11:46*
%MOMM*%
%LPD*%
G01*
G04 APERTURE LIST*
%ADD10C,0.150000*%
G04 APERTURE END LIST*
D10*
X51933333Y-34452380D02*
X51600000Y-35452380D01*
X51266666Y-34452380D01*
X50361904Y-35357142D02*
X50409523Y-35404761D01*
X50552380Y-35452380D01*
X50647619Y-35452380D01*
X50790476Y-35404761D01*
X50885714Y-35309523D01*
X50933333Y-35214285D01*
X50980952Y-35023809D01*
X50980952Y-34880952D01*
X50933333Y-34690476D01*
X50885714Y-34595238D01*
X50790476Y-34500000D01*
X50647619Y-34452380D01*
X50552380Y-34452380D01*
X50409523Y-34500000D01*
X50361904Y-34547619D01*
X49361904Y-35357142D02*
X49409523Y-35404761D01*
X49552380Y-35452380D01*
X49647619Y-35452380D01*
X49790476Y-35404761D01*
X49885714Y-35309523D01*
X49933333Y-35214285D01*
X49980952Y-35023809D01*
X49980952Y-34880952D01*
X49933333Y-34690476D01*
X49885714Y-34595238D01*
X49790476Y-34500000D01*
X49647619Y-34452380D01*
X49552380Y-34452380D01*
X49409523Y-34500000D01*
X49361904Y-34547619D01*
X56857142Y-33680952D02*
X56904761Y-33633333D01*
X56952380Y-33490476D01*
X56952380Y-33395238D01*
X56904761Y-33252380D01*
X56809523Y-33157142D01*
X56714285Y-33109523D01*
X56523809Y-33061904D01*
X56380952Y-33061904D01*
X56190476Y-33109523D01*
X56095238Y-33157142D01*
X56000000Y-33252380D01*
X55952380Y-33395238D01*
X55952380Y-33490476D01*
X56000000Y-33633333D01*
X56047619Y-33680952D01*
X55952380Y-34300000D02*
X55952380Y-34490476D01*
X56000000Y-34585714D01*
X56095238Y-34680952D01*
X56285714Y-34728571D01*
X56619047Y-34728571D01*
X56809523Y-34680952D01*
X56904761Y-34585714D01*
X56952380Y-34490476D01*
X56952380Y-34300000D01*
X56904761Y-34204761D01*
X56809523Y-34109523D01*
X56619047Y-34061904D01*
X56285714Y-34061904D01*
X56095238Y-34109523D01*
X56000000Y-34204761D01*
X55952380Y-34300000D01*
X56952380Y-35633333D02*
X56952380Y-35157142D01*
X55952380Y-35157142D01*
X61361904Y-35000000D02*
X61457142Y-34952380D01*
X61600000Y-34952380D01*
X61742857Y-35000000D01*
X61838095Y-35095238D01*
X61885714Y-35190476D01*
X61933333Y-35380952D01*
X61933333Y-35523809D01*
X61885714Y-35714285D01*
X61838095Y-35809523D01*
X61742857Y-35904761D01*
X61600000Y-35952380D01*
X61504761Y-35952380D01*
X61361904Y-35904761D01*
X61314285Y-35857142D01*
X61314285Y-35523809D01*
X61504761Y-35523809D01*
X60885714Y-35952380D02*
X60885714Y-34952380D01*
X60314285Y-35952380D01*
X60314285Y-34952380D01*
X59838095Y-35952380D02*
X59838095Y-34952380D01*
X59600000Y-34952380D01*
X59457142Y-35000000D01*
X59361904Y-35095238D01*
X59314285Y-35190476D01*
X59266666Y-35380952D01*
X59266666Y-35523809D01*
X59314285Y-35714285D01*
X59361904Y-35809523D01*
X59457142Y-35904761D01*
X59600000Y-35952380D01*
X59838095Y-35952380D01*
X61185714Y-40152380D02*
X61519047Y-39676190D01*
X61757142Y-40152380D02*
X61757142Y-39152380D01*
X61376190Y-39152380D01*
X61280952Y-39200000D01*
X61233333Y-39247619D01*
X61185714Y-39342857D01*
X61185714Y-39485714D01*
X61233333Y-39580952D01*
X61280952Y-39628571D01*
X61376190Y-39676190D01*
X61757142Y-39676190D01*
X60566666Y-39152380D02*
X60376190Y-39152380D01*
X60280952Y-39200000D01*
X60185714Y-39295238D01*
X60138095Y-39485714D01*
X60138095Y-39819047D01*
X60185714Y-40009523D01*
X60280952Y-40104761D01*
X60376190Y-40152380D01*
X60566666Y-40152380D01*
X60661904Y-40104761D01*
X60757142Y-40009523D01*
X60804761Y-39819047D01*
X60804761Y-39485714D01*
X60757142Y-39295238D01*
X60661904Y-39200000D01*
X60566666Y-39152380D01*
X59804761Y-39152380D02*
X59566666Y-40152380D01*
X59376190Y-39438095D01*
X59185714Y-40152380D01*
X58947619Y-39152380D01*
X54085714Y-40252380D02*
X54419047Y-39776190D01*
X54657142Y-40252380D02*
X54657142Y-39252380D01*
X54276190Y-39252380D01*
X54180952Y-39300000D01*
X54133333Y-39347619D01*
X54085714Y-39442857D01*
X54085714Y-39585714D01*
X54133333Y-39680952D01*
X54180952Y-39728571D01*
X54276190Y-39776190D01*
X54657142Y-39776190D01*
X53466666Y-39252380D02*
X53276190Y-39252380D01*
X53180952Y-39300000D01*
X53085714Y-39395238D01*
X53038095Y-39585714D01*
X53038095Y-39919047D01*
X53085714Y-40109523D01*
X53180952Y-40204761D01*
X53276190Y-40252380D01*
X53466666Y-40252380D01*
X53561904Y-40204761D01*
X53657142Y-40109523D01*
X53704761Y-39919047D01*
X53704761Y-39585714D01*
X53657142Y-39395238D01*
X53561904Y-39300000D01*
X53466666Y-39252380D01*
X52704761Y-39252380D02*
X52466666Y-40252380D01*
X52276190Y-39538095D01*
X52085714Y-40252380D01*
X51847619Y-39252380D01*
X57257142Y-41080952D02*
X57304761Y-41033333D01*
X57352380Y-40890476D01*
X57352380Y-40795238D01*
X57304761Y-40652380D01*
X57209523Y-40557142D01*
X57114285Y-40509523D01*
X56923809Y-40461904D01*
X56780952Y-40461904D01*
X56590476Y-40509523D01*
X56495238Y-40557142D01*
X56400000Y-40652380D01*
X56352380Y-40795238D01*
X56352380Y-40890476D01*
X56400000Y-41033333D01*
X56447619Y-41080952D01*
X56352380Y-41700000D02*
X56352380Y-41890476D01*
X56400000Y-41985714D01*
X56495238Y-42080952D01*
X56685714Y-42128571D01*
X57019047Y-42128571D01*
X57209523Y-42080952D01*
X57304761Y-41985714D01*
X57352380Y-41890476D01*
X57352380Y-41700000D01*
X57304761Y-41604761D01*
X57209523Y-41509523D01*
X57019047Y-41461904D01*
X56685714Y-41461904D01*
X56495238Y-41509523D01*
X56400000Y-41604761D01*
X56352380Y-41700000D01*
X57352380Y-43033333D02*
X57352380Y-42557142D01*
X56352380Y-42557142D01*
X52300000Y-44447619D02*
X52300000Y-45447619D01*
X52538095Y-45447619D01*
X52680952Y-45400000D01*
X52776190Y-45304761D01*
X52823809Y-45209523D01*
X52871428Y-45019047D01*
X52871428Y-44876190D01*
X52823809Y-44685714D01*
X52776190Y-44590476D01*
X52680952Y-44495238D01*
X52538095Y-44447619D01*
X52300000Y-44447619D01*
X53300000Y-44447619D02*
X53300000Y-45447619D01*
X59314285Y-44447619D02*
X59314285Y-45447619D01*
X59552380Y-45447619D01*
X59695238Y-45400000D01*
X59790476Y-45304761D01*
X59838095Y-45209523D01*
X59885714Y-45019047D01*
X59885714Y-44876190D01*
X59838095Y-44685714D01*
X59790476Y-44590476D01*
X59695238Y-44495238D01*
X59552380Y-44447619D01*
X59314285Y-44447619D01*
X60504761Y-45447619D02*
X60695238Y-45447619D01*
X60790476Y-45400000D01*
X60885714Y-45304761D01*
X60933333Y-45114285D01*
X60933333Y-44780952D01*
X60885714Y-44590476D01*
X60790476Y-44495238D01*
X60695238Y-44447619D01*
X60504761Y-44447619D01*
X60409523Y-44495238D01*
X60314285Y-44590476D01*
X60266666Y-44780952D01*
X60266666Y-45114285D01*
X60314285Y-45304761D01*
X60409523Y-45400000D01*
X60504761Y-45447619D01*
X32933333Y-34452380D02*
X32600000Y-35452380D01*
X32266666Y-34452380D01*
X31361904Y-35357142D02*
X31409523Y-35404761D01*
X31552380Y-35452380D01*
X31647619Y-35452380D01*
X31790476Y-35404761D01*
X31885714Y-35309523D01*
X31933333Y-35214285D01*
X31980952Y-35023809D01*
X31980952Y-34880952D01*
X31933333Y-34690476D01*
X31885714Y-34595238D01*
X31790476Y-34500000D01*
X31647619Y-34452380D01*
X31552380Y-34452380D01*
X31409523Y-34500000D01*
X31361904Y-34547619D01*
X30361904Y-35357142D02*
X30409523Y-35404761D01*
X30552380Y-35452380D01*
X30647619Y-35452380D01*
X30790476Y-35404761D01*
X30885714Y-35309523D01*
X30933333Y-35214285D01*
X30980952Y-35023809D01*
X30980952Y-34880952D01*
X30933333Y-34690476D01*
X30885714Y-34595238D01*
X30790476Y-34500000D01*
X30647619Y-34452380D01*
X30552380Y-34452380D01*
X30409523Y-34500000D01*
X30361904Y-34547619D01*
X37857142Y-33680952D02*
X37904761Y-33633333D01*
X37952380Y-33490476D01*
X37952380Y-33395238D01*
X37904761Y-33252380D01*
X37809523Y-33157142D01*
X37714285Y-33109523D01*
X37523809Y-33061904D01*
X37380952Y-33061904D01*
X37190476Y-33109523D01*
X37095238Y-33157142D01*
X37000000Y-33252380D01*
X36952380Y-33395238D01*
X36952380Y-33490476D01*
X37000000Y-33633333D01*
X37047619Y-33680952D01*
X36952380Y-34300000D02*
X36952380Y-34490476D01*
X37000000Y-34585714D01*
X37095238Y-34680952D01*
X37285714Y-34728571D01*
X37619047Y-34728571D01*
X37809523Y-34680952D01*
X37904761Y-34585714D01*
X37952380Y-34490476D01*
X37952380Y-34300000D01*
X37904761Y-34204761D01*
X37809523Y-34109523D01*
X37619047Y-34061904D01*
X37285714Y-34061904D01*
X37095238Y-34109523D01*
X37000000Y-34204761D01*
X36952380Y-34300000D01*
X37952380Y-35633333D02*
X37952380Y-35157142D01*
X36952380Y-35157142D01*
X42361904Y-35000000D02*
X42457142Y-34952380D01*
X42600000Y-34952380D01*
X42742857Y-35000000D01*
X42838095Y-35095238D01*
X42885714Y-35190476D01*
X42933333Y-35380952D01*
X42933333Y-35523809D01*
X42885714Y-35714285D01*
X42838095Y-35809523D01*
X42742857Y-35904761D01*
X42600000Y-35952380D01*
X42504761Y-35952380D01*
X42361904Y-35904761D01*
X42314285Y-35857142D01*
X42314285Y-35523809D01*
X42504761Y-35523809D01*
X41885714Y-35952380D02*
X41885714Y-34952380D01*
X41314285Y-35952380D01*
X41314285Y-34952380D01*
X40838095Y-35952380D02*
X40838095Y-34952380D01*
X40600000Y-34952380D01*
X40457142Y-35000000D01*
X40361904Y-35095238D01*
X40314285Y-35190476D01*
X40266666Y-35380952D01*
X40266666Y-35523809D01*
X40314285Y-35714285D01*
X40361904Y-35809523D01*
X40457142Y-35904761D01*
X40600000Y-35952380D01*
X40838095Y-35952380D01*
X42185714Y-40152380D02*
X42519047Y-39676190D01*
X42757142Y-40152380D02*
X42757142Y-39152380D01*
X42376190Y-39152380D01*
X42280952Y-39200000D01*
X42233333Y-39247619D01*
X42185714Y-39342857D01*
X42185714Y-39485714D01*
X42233333Y-39580952D01*
X42280952Y-39628571D01*
X42376190Y-39676190D01*
X42757142Y-39676190D01*
X41566666Y-39152380D02*
X41376190Y-39152380D01*
X41280952Y-39200000D01*
X41185714Y-39295238D01*
X41138095Y-39485714D01*
X41138095Y-39819047D01*
X41185714Y-40009523D01*
X41280952Y-40104761D01*
X41376190Y-40152380D01*
X41566666Y-40152380D01*
X41661904Y-40104761D01*
X41757142Y-40009523D01*
X41804761Y-39819047D01*
X41804761Y-39485714D01*
X41757142Y-39295238D01*
X41661904Y-39200000D01*
X41566666Y-39152380D01*
X40804761Y-39152380D02*
X40566666Y-40152380D01*
X40376190Y-39438095D01*
X40185714Y-40152380D01*
X39947619Y-39152380D01*
X35085714Y-40252380D02*
X35419047Y-39776190D01*
X35657142Y-40252380D02*
X35657142Y-39252380D01*
X35276190Y-39252380D01*
X35180952Y-39300000D01*
X35133333Y-39347619D01*
X35085714Y-39442857D01*
X35085714Y-39585714D01*
X35133333Y-39680952D01*
X35180952Y-39728571D01*
X35276190Y-39776190D01*
X35657142Y-39776190D01*
X34466666Y-39252380D02*
X34276190Y-39252380D01*
X34180952Y-39300000D01*
X34085714Y-39395238D01*
X34038095Y-39585714D01*
X34038095Y-39919047D01*
X34085714Y-40109523D01*
X34180952Y-40204761D01*
X34276190Y-40252380D01*
X34466666Y-40252380D01*
X34561904Y-40204761D01*
X34657142Y-40109523D01*
X34704761Y-39919047D01*
X34704761Y-39585714D01*
X34657142Y-39395238D01*
X34561904Y-39300000D01*
X34466666Y-39252380D01*
X33704761Y-39252380D02*
X33466666Y-40252380D01*
X33276190Y-39538095D01*
X33085714Y-40252380D01*
X32847619Y-39252380D01*
X38257142Y-41080952D02*
X38304761Y-41033333D01*
X38352380Y-40890476D01*
X38352380Y-40795238D01*
X38304761Y-40652380D01*
X38209523Y-40557142D01*
X38114285Y-40509523D01*
X37923809Y-40461904D01*
X37780952Y-40461904D01*
X37590476Y-40509523D01*
X37495238Y-40557142D01*
X37400000Y-40652380D01*
X37352380Y-40795238D01*
X37352380Y-40890476D01*
X37400000Y-41033333D01*
X37447619Y-41080952D01*
X37352380Y-41700000D02*
X37352380Y-41890476D01*
X37400000Y-41985714D01*
X37495238Y-42080952D01*
X37685714Y-42128571D01*
X38019047Y-42128571D01*
X38209523Y-42080952D01*
X38304761Y-41985714D01*
X38352380Y-41890476D01*
X38352380Y-41700000D01*
X38304761Y-41604761D01*
X38209523Y-41509523D01*
X38019047Y-41461904D01*
X37685714Y-41461904D01*
X37495238Y-41509523D01*
X37400000Y-41604761D01*
X37352380Y-41700000D01*
X38352380Y-43033333D02*
X38352380Y-42557142D01*
X37352380Y-42557142D01*
X33300000Y-44447619D02*
X33300000Y-45447619D01*
X33538095Y-45447619D01*
X33680952Y-45400000D01*
X33776190Y-45304761D01*
X33823809Y-45209523D01*
X33871428Y-45019047D01*
X33871428Y-44876190D01*
X33823809Y-44685714D01*
X33776190Y-44590476D01*
X33680952Y-44495238D01*
X33538095Y-44447619D01*
X33300000Y-44447619D01*
X34300000Y-44447619D02*
X34300000Y-45447619D01*
X40314285Y-44447619D02*
X40314285Y-45447619D01*
X40552380Y-45447619D01*
X40695238Y-45400000D01*
X40790476Y-45304761D01*
X40838095Y-45209523D01*
X40885714Y-45019047D01*
X40885714Y-44876190D01*
X40838095Y-44685714D01*
X40790476Y-44590476D01*
X40695238Y-44495238D01*
X40552380Y-44447619D01*
X40314285Y-44447619D01*
X41504761Y-45447619D02*
X41695238Y-45447619D01*
X41790476Y-45400000D01*
X41885714Y-45304761D01*
X41933333Y-45114285D01*
X41933333Y-44780952D01*
X41885714Y-44590476D01*
X41790476Y-44495238D01*
X41695238Y-44447619D01*
X41504761Y-44447619D01*
X41409523Y-44495238D01*
X41314285Y-44590476D01*
X41266666Y-44780952D01*
X41266666Y-45114285D01*
X41314285Y-45304761D01*
X41409523Y-45400000D01*
X41504761Y-45447619D01*
X13933333Y-34452380D02*
X13600000Y-35452380D01*
X13266666Y-34452380D01*
X12361904Y-35357142D02*
X12409523Y-35404761D01*
X12552380Y-35452380D01*
X12647619Y-35452380D01*
X12790476Y-35404761D01*
X12885714Y-35309523D01*
X12933333Y-35214285D01*
X12980952Y-35023809D01*
X12980952Y-34880952D01*
X12933333Y-34690476D01*
X12885714Y-34595238D01*
X12790476Y-34500000D01*
X12647619Y-34452380D01*
X12552380Y-34452380D01*
X12409523Y-34500000D01*
X12361904Y-34547619D01*
X11361904Y-35357142D02*
X11409523Y-35404761D01*
X11552380Y-35452380D01*
X11647619Y-35452380D01*
X11790476Y-35404761D01*
X11885714Y-35309523D01*
X11933333Y-35214285D01*
X11980952Y-35023809D01*
X11980952Y-34880952D01*
X11933333Y-34690476D01*
X11885714Y-34595238D01*
X11790476Y-34500000D01*
X11647619Y-34452380D01*
X11552380Y-34452380D01*
X11409523Y-34500000D01*
X11361904Y-34547619D01*
X18857142Y-33680952D02*
X18904761Y-33633333D01*
X18952380Y-33490476D01*
X18952380Y-33395238D01*
X18904761Y-33252380D01*
X18809523Y-33157142D01*
X18714285Y-33109523D01*
X18523809Y-33061904D01*
X18380952Y-33061904D01*
X18190476Y-33109523D01*
X18095238Y-33157142D01*
X18000000Y-33252380D01*
X17952380Y-33395238D01*
X17952380Y-33490476D01*
X18000000Y-33633333D01*
X18047619Y-33680952D01*
X17952380Y-34300000D02*
X17952380Y-34490476D01*
X18000000Y-34585714D01*
X18095238Y-34680952D01*
X18285714Y-34728571D01*
X18619047Y-34728571D01*
X18809523Y-34680952D01*
X18904761Y-34585714D01*
X18952380Y-34490476D01*
X18952380Y-34300000D01*
X18904761Y-34204761D01*
X18809523Y-34109523D01*
X18619047Y-34061904D01*
X18285714Y-34061904D01*
X18095238Y-34109523D01*
X18000000Y-34204761D01*
X17952380Y-34300000D01*
X18952380Y-35633333D02*
X18952380Y-35157142D01*
X17952380Y-35157142D01*
X23361904Y-35000000D02*
X23457142Y-34952380D01*
X23600000Y-34952380D01*
X23742857Y-35000000D01*
X23838095Y-35095238D01*
X23885714Y-35190476D01*
X23933333Y-35380952D01*
X23933333Y-35523809D01*
X23885714Y-35714285D01*
X23838095Y-35809523D01*
X23742857Y-35904761D01*
X23600000Y-35952380D01*
X23504761Y-35952380D01*
X23361904Y-35904761D01*
X23314285Y-35857142D01*
X23314285Y-35523809D01*
X23504761Y-35523809D01*
X22885714Y-35952380D02*
X22885714Y-34952380D01*
X22314285Y-35952380D01*
X22314285Y-34952380D01*
X21838095Y-35952380D02*
X21838095Y-34952380D01*
X21600000Y-34952380D01*
X21457142Y-35000000D01*
X21361904Y-35095238D01*
X21314285Y-35190476D01*
X21266666Y-35380952D01*
X21266666Y-35523809D01*
X21314285Y-35714285D01*
X21361904Y-35809523D01*
X21457142Y-35904761D01*
X21600000Y-35952380D01*
X21838095Y-35952380D01*
X23185714Y-40152380D02*
X23519047Y-39676190D01*
X23757142Y-40152380D02*
X23757142Y-39152380D01*
X23376190Y-39152380D01*
X23280952Y-39200000D01*
X23233333Y-39247619D01*
X23185714Y-39342857D01*
X23185714Y-39485714D01*
X23233333Y-39580952D01*
X23280952Y-39628571D01*
X23376190Y-39676190D01*
X23757142Y-39676190D01*
X22566666Y-39152380D02*
X22376190Y-39152380D01*
X22280952Y-39200000D01*
X22185714Y-39295238D01*
X22138095Y-39485714D01*
X22138095Y-39819047D01*
X22185714Y-40009523D01*
X22280952Y-40104761D01*
X22376190Y-40152380D01*
X22566666Y-40152380D01*
X22661904Y-40104761D01*
X22757142Y-40009523D01*
X22804761Y-39819047D01*
X22804761Y-39485714D01*
X22757142Y-39295238D01*
X22661904Y-39200000D01*
X22566666Y-39152380D01*
X21804761Y-39152380D02*
X21566666Y-40152380D01*
X21376190Y-39438095D01*
X21185714Y-40152380D01*
X20947619Y-39152380D01*
X16085714Y-40252380D02*
X16419047Y-39776190D01*
X16657142Y-40252380D02*
X16657142Y-39252380D01*
X16276190Y-39252380D01*
X16180952Y-39300000D01*
X16133333Y-39347619D01*
X16085714Y-39442857D01*
X16085714Y-39585714D01*
X16133333Y-39680952D01*
X16180952Y-39728571D01*
X16276190Y-39776190D01*
X16657142Y-39776190D01*
X15466666Y-39252380D02*
X15276190Y-39252380D01*
X15180952Y-39300000D01*
X15085714Y-39395238D01*
X15038095Y-39585714D01*
X15038095Y-39919047D01*
X15085714Y-40109523D01*
X15180952Y-40204761D01*
X15276190Y-40252380D01*
X15466666Y-40252380D01*
X15561904Y-40204761D01*
X15657142Y-40109523D01*
X15704761Y-39919047D01*
X15704761Y-39585714D01*
X15657142Y-39395238D01*
X15561904Y-39300000D01*
X15466666Y-39252380D01*
X14704761Y-39252380D02*
X14466666Y-40252380D01*
X14276190Y-39538095D01*
X14085714Y-40252380D01*
X13847619Y-39252380D01*
X19257142Y-41080952D02*
X19304761Y-41033333D01*
X19352380Y-40890476D01*
X19352380Y-40795238D01*
X19304761Y-40652380D01*
X19209523Y-40557142D01*
X19114285Y-40509523D01*
X18923809Y-40461904D01*
X18780952Y-40461904D01*
X18590476Y-40509523D01*
X18495238Y-40557142D01*
X18400000Y-40652380D01*
X18352380Y-40795238D01*
X18352380Y-40890476D01*
X18400000Y-41033333D01*
X18447619Y-41080952D01*
X18352380Y-41700000D02*
X18352380Y-41890476D01*
X18400000Y-41985714D01*
X18495238Y-42080952D01*
X18685714Y-42128571D01*
X19019047Y-42128571D01*
X19209523Y-42080952D01*
X19304761Y-41985714D01*
X19352380Y-41890476D01*
X19352380Y-41700000D01*
X19304761Y-41604761D01*
X19209523Y-41509523D01*
X19019047Y-41461904D01*
X18685714Y-41461904D01*
X18495238Y-41509523D01*
X18400000Y-41604761D01*
X18352380Y-41700000D01*
X19352380Y-43033333D02*
X19352380Y-42557142D01*
X18352380Y-42557142D01*
X14300000Y-44447619D02*
X14300000Y-45447619D01*
X14538095Y-45447619D01*
X14680952Y-45400000D01*
X14776190Y-45304761D01*
X14823809Y-45209523D01*
X14871428Y-45019047D01*
X14871428Y-44876190D01*
X14823809Y-44685714D01*
X14776190Y-44590476D01*
X14680952Y-44495238D01*
X14538095Y-44447619D01*
X14300000Y-44447619D01*
X15300000Y-44447619D02*
X15300000Y-45447619D01*
X21314285Y-44447619D02*
X21314285Y-45447619D01*
X21552380Y-45447619D01*
X21695238Y-45400000D01*
X21790476Y-45304761D01*
X21838095Y-45209523D01*
X21885714Y-45019047D01*
X21885714Y-44876190D01*
X21838095Y-44685714D01*
X21790476Y-44590476D01*
X21695238Y-44495238D01*
X21552380Y-44447619D01*
X21314285Y-44447619D01*
X22504761Y-45447619D02*
X22695238Y-45447619D01*
X22790476Y-45400000D01*
X22885714Y-45304761D01*
X22933333Y-45114285D01*
X22933333Y-44780952D01*
X22885714Y-44590476D01*
X22790476Y-44495238D01*
X22695238Y-44447619D01*
X22504761Y-44447619D01*
X22409523Y-44495238D01*
X22314285Y-44590476D01*
X22266666Y-44780952D01*
X22266666Y-45114285D01*
X22314285Y-45304761D01*
X22409523Y-45400000D01*
X22504761Y-45447619D01*
X-5066666Y-34452380D02*
X-5400000Y-35452380D01*
X-5733333Y-34452380D01*
X-6638095Y-35357142D02*
X-6590476Y-35404761D01*
X-6447619Y-35452380D01*
X-6352380Y-35452380D01*
X-6209523Y-35404761D01*
X-6114285Y-35309523D01*
X-6066666Y-35214285D01*
X-6019047Y-35023809D01*
X-6019047Y-34880952D01*
X-6066666Y-34690476D01*
X-6114285Y-34595238D01*
X-6209523Y-34500000D01*
X-6352380Y-34452380D01*
X-6447619Y-34452380D01*
X-6590476Y-34500000D01*
X-6638095Y-34547619D01*
X-7638095Y-35357142D02*
X-7590476Y-35404761D01*
X-7447619Y-35452380D01*
X-7352380Y-35452380D01*
X-7209523Y-35404761D01*
X-7114285Y-35309523D01*
X-7066666Y-35214285D01*
X-7019047Y-35023809D01*
X-7019047Y-34880952D01*
X-7066666Y-34690476D01*
X-7114285Y-34595238D01*
X-7209523Y-34500000D01*
X-7352380Y-34452380D01*
X-7447619Y-34452380D01*
X-7590476Y-34500000D01*
X-7638095Y-34547619D01*
X-142857Y-33680952D02*
X-95238Y-33633333D01*
X-47619Y-33490476D01*
X-47619Y-33395238D01*
X-95238Y-33252380D01*
X-190476Y-33157142D01*
X-285714Y-33109523D01*
X-476190Y-33061904D01*
X-619047Y-33061904D01*
X-809523Y-33109523D01*
X-904761Y-33157142D01*
X-1000000Y-33252380D01*
X-1047619Y-33395238D01*
X-1047619Y-33490476D01*
X-1000000Y-33633333D01*
X-952380Y-33680952D01*
X-1047619Y-34300000D02*
X-1047619Y-34490476D01*
X-1000000Y-34585714D01*
X-904761Y-34680952D01*
X-714285Y-34728571D01*
X-380952Y-34728571D01*
X-190476Y-34680952D01*
X-95238Y-34585714D01*
X-47619Y-34490476D01*
X-47619Y-34300000D01*
X-95238Y-34204761D01*
X-190476Y-34109523D01*
X-380952Y-34061904D01*
X-714285Y-34061904D01*
X-904761Y-34109523D01*
X-1000000Y-34204761D01*
X-1047619Y-34300000D01*
X-47619Y-35633333D02*
X-47619Y-35157142D01*
X-1047619Y-35157142D01*
X4361904Y-35000000D02*
X4457142Y-34952380D01*
X4600000Y-34952380D01*
X4742857Y-35000000D01*
X4838095Y-35095238D01*
X4885714Y-35190476D01*
X4933333Y-35380952D01*
X4933333Y-35523809D01*
X4885714Y-35714285D01*
X4838095Y-35809523D01*
X4742857Y-35904761D01*
X4600000Y-35952380D01*
X4504761Y-35952380D01*
X4361904Y-35904761D01*
X4314285Y-35857142D01*
X4314285Y-35523809D01*
X4504761Y-35523809D01*
X3885714Y-35952380D02*
X3885714Y-34952380D01*
X3314285Y-35952380D01*
X3314285Y-34952380D01*
X2838095Y-35952380D02*
X2838095Y-34952380D01*
X2600000Y-34952380D01*
X2457142Y-35000000D01*
X2361904Y-35095238D01*
X2314285Y-35190476D01*
X2266666Y-35380952D01*
X2266666Y-35523809D01*
X2314285Y-35714285D01*
X2361904Y-35809523D01*
X2457142Y-35904761D01*
X2600000Y-35952380D01*
X2838095Y-35952380D01*
X4185714Y-40152380D02*
X4519047Y-39676190D01*
X4757142Y-40152380D02*
X4757142Y-39152380D01*
X4376190Y-39152380D01*
X4280952Y-39200000D01*
X4233333Y-39247619D01*
X4185714Y-39342857D01*
X4185714Y-39485714D01*
X4233333Y-39580952D01*
X4280952Y-39628571D01*
X4376190Y-39676190D01*
X4757142Y-39676190D01*
X3566666Y-39152380D02*
X3376190Y-39152380D01*
X3280952Y-39200000D01*
X3185714Y-39295238D01*
X3138095Y-39485714D01*
X3138095Y-39819047D01*
X3185714Y-40009523D01*
X3280952Y-40104761D01*
X3376190Y-40152380D01*
X3566666Y-40152380D01*
X3661904Y-40104761D01*
X3757142Y-40009523D01*
X3804761Y-39819047D01*
X3804761Y-39485714D01*
X3757142Y-39295238D01*
X3661904Y-39200000D01*
X3566666Y-39152380D01*
X2804761Y-39152380D02*
X2566666Y-40152380D01*
X2376190Y-39438095D01*
X2185714Y-40152380D01*
X1947619Y-39152380D01*
X-2914285Y-40252380D02*
X-2580952Y-39776190D01*
X-2342857Y-40252380D02*
X-2342857Y-39252380D01*
X-2723809Y-39252380D01*
X-2819047Y-39300000D01*
X-2866666Y-39347619D01*
X-2914285Y-39442857D01*
X-2914285Y-39585714D01*
X-2866666Y-39680952D01*
X-2819047Y-39728571D01*
X-2723809Y-39776190D01*
X-2342857Y-39776190D01*
X-3533333Y-39252380D02*
X-3723809Y-39252380D01*
X-3819047Y-39300000D01*
X-3914285Y-39395238D01*
X-3961904Y-39585714D01*
X-3961904Y-39919047D01*
X-3914285Y-40109523D01*
X-3819047Y-40204761D01*
X-3723809Y-40252380D01*
X-3533333Y-40252380D01*
X-3438095Y-40204761D01*
X-3342857Y-40109523D01*
X-3295238Y-39919047D01*
X-3295238Y-39585714D01*
X-3342857Y-39395238D01*
X-3438095Y-39300000D01*
X-3533333Y-39252380D01*
X-4295238Y-39252380D02*
X-4533333Y-40252380D01*
X-4723809Y-39538095D01*
X-4914285Y-40252380D01*
X-5152380Y-39252380D01*
X257142Y-41080952D02*
X304761Y-41033333D01*
X352380Y-40890476D01*
X352380Y-40795238D01*
X304761Y-40652380D01*
X209523Y-40557142D01*
X114285Y-40509523D01*
X-76190Y-40461904D01*
X-219047Y-40461904D01*
X-409523Y-40509523D01*
X-504761Y-40557142D01*
X-600000Y-40652380D01*
X-647619Y-40795238D01*
X-647619Y-40890476D01*
X-600000Y-41033333D01*
X-552380Y-41080952D01*
X-647619Y-41700000D02*
X-647619Y-41890476D01*
X-600000Y-41985714D01*
X-504761Y-42080952D01*
X-314285Y-42128571D01*
X19047Y-42128571D01*
X209523Y-42080952D01*
X304761Y-41985714D01*
X352380Y-41890476D01*
X352380Y-41700000D01*
X304761Y-41604761D01*
X209523Y-41509523D01*
X19047Y-41461904D01*
X-314285Y-41461904D01*
X-504761Y-41509523D01*
X-600000Y-41604761D01*
X-647619Y-41700000D01*
X352380Y-43033333D02*
X352380Y-42557142D01*
X-647619Y-42557142D01*
X-4700000Y-44447619D02*
X-4700000Y-45447619D01*
X-4461904Y-45447619D01*
X-4319047Y-45400000D01*
X-4223809Y-45304761D01*
X-4176190Y-45209523D01*
X-4128571Y-45019047D01*
X-4128571Y-44876190D01*
X-4176190Y-44685714D01*
X-4223809Y-44590476D01*
X-4319047Y-44495238D01*
X-4461904Y-44447619D01*
X-4700000Y-44447619D01*
X-3700000Y-44447619D02*
X-3700000Y-45447619D01*
X2314285Y-44447619D02*
X2314285Y-45447619D01*
X2552380Y-45447619D01*
X2695238Y-45400000D01*
X2790476Y-45304761D01*
X2838095Y-45209523D01*
X2885714Y-45019047D01*
X2885714Y-44876190D01*
X2838095Y-44685714D01*
X2790476Y-44590476D01*
X2695238Y-44495238D01*
X2552380Y-44447619D01*
X2314285Y-44447619D01*
X3504761Y-45447619D02*
X3695238Y-45447619D01*
X3790476Y-45400000D01*
X3885714Y-45304761D01*
X3933333Y-45114285D01*
X3933333Y-44780952D01*
X3885714Y-44590476D01*
X3790476Y-44495238D01*
X3695238Y-44447619D01*
X3504761Y-44447619D01*
X3409523Y-44495238D01*
X3314285Y-44590476D01*
X3266666Y-44780952D01*
X3266666Y-45114285D01*
X3314285Y-45304761D01*
X3409523Y-45400000D01*
X3504761Y-45447619D01*
X51933333Y-15452380D02*
X51600000Y-16452380D01*
X51266666Y-15452380D01*
X50361904Y-16357142D02*
X50409523Y-16404761D01*
X50552380Y-16452380D01*
X50647619Y-16452380D01*
X50790476Y-16404761D01*
X50885714Y-16309523D01*
X50933333Y-16214285D01*
X50980952Y-16023809D01*
X50980952Y-15880952D01*
X50933333Y-15690476D01*
X50885714Y-15595238D01*
X50790476Y-15500000D01*
X50647619Y-15452380D01*
X50552380Y-15452380D01*
X50409523Y-15500000D01*
X50361904Y-15547619D01*
X49361904Y-16357142D02*
X49409523Y-16404761D01*
X49552380Y-16452380D01*
X49647619Y-16452380D01*
X49790476Y-16404761D01*
X49885714Y-16309523D01*
X49933333Y-16214285D01*
X49980952Y-16023809D01*
X49980952Y-15880952D01*
X49933333Y-15690476D01*
X49885714Y-15595238D01*
X49790476Y-15500000D01*
X49647619Y-15452380D01*
X49552380Y-15452380D01*
X49409523Y-15500000D01*
X49361904Y-15547619D01*
X56857142Y-14680952D02*
X56904761Y-14633333D01*
X56952380Y-14490476D01*
X56952380Y-14395238D01*
X56904761Y-14252380D01*
X56809523Y-14157142D01*
X56714285Y-14109523D01*
X56523809Y-14061904D01*
X56380952Y-14061904D01*
X56190476Y-14109523D01*
X56095238Y-14157142D01*
X56000000Y-14252380D01*
X55952380Y-14395238D01*
X55952380Y-14490476D01*
X56000000Y-14633333D01*
X56047619Y-14680952D01*
X55952380Y-15300000D02*
X55952380Y-15490476D01*
X56000000Y-15585714D01*
X56095238Y-15680952D01*
X56285714Y-15728571D01*
X56619047Y-15728571D01*
X56809523Y-15680952D01*
X56904761Y-15585714D01*
X56952380Y-15490476D01*
X56952380Y-15300000D01*
X56904761Y-15204761D01*
X56809523Y-15109523D01*
X56619047Y-15061904D01*
X56285714Y-15061904D01*
X56095238Y-15109523D01*
X56000000Y-15204761D01*
X55952380Y-15300000D01*
X56952380Y-16633333D02*
X56952380Y-16157142D01*
X55952380Y-16157142D01*
X61361904Y-16000000D02*
X61457142Y-15952380D01*
X61600000Y-15952380D01*
X61742857Y-16000000D01*
X61838095Y-16095238D01*
X61885714Y-16190476D01*
X61933333Y-16380952D01*
X61933333Y-16523809D01*
X61885714Y-16714285D01*
X61838095Y-16809523D01*
X61742857Y-16904761D01*
X61600000Y-16952380D01*
X61504761Y-16952380D01*
X61361904Y-16904761D01*
X61314285Y-16857142D01*
X61314285Y-16523809D01*
X61504761Y-16523809D01*
X60885714Y-16952380D02*
X60885714Y-15952380D01*
X60314285Y-16952380D01*
X60314285Y-15952380D01*
X59838095Y-16952380D02*
X59838095Y-15952380D01*
X59600000Y-15952380D01*
X59457142Y-16000000D01*
X59361904Y-16095238D01*
X59314285Y-16190476D01*
X59266666Y-16380952D01*
X59266666Y-16523809D01*
X59314285Y-16714285D01*
X59361904Y-16809523D01*
X59457142Y-16904761D01*
X59600000Y-16952380D01*
X59838095Y-16952380D01*
X61185714Y-21152380D02*
X61519047Y-20676190D01*
X61757142Y-21152380D02*
X61757142Y-20152380D01*
X61376190Y-20152380D01*
X61280952Y-20200000D01*
X61233333Y-20247619D01*
X61185714Y-20342857D01*
X61185714Y-20485714D01*
X61233333Y-20580952D01*
X61280952Y-20628571D01*
X61376190Y-20676190D01*
X61757142Y-20676190D01*
X60566666Y-20152380D02*
X60376190Y-20152380D01*
X60280952Y-20200000D01*
X60185714Y-20295238D01*
X60138095Y-20485714D01*
X60138095Y-20819047D01*
X60185714Y-21009523D01*
X60280952Y-21104761D01*
X60376190Y-21152380D01*
X60566666Y-21152380D01*
X60661904Y-21104761D01*
X60757142Y-21009523D01*
X60804761Y-20819047D01*
X60804761Y-20485714D01*
X60757142Y-20295238D01*
X60661904Y-20200000D01*
X60566666Y-20152380D01*
X59804761Y-20152380D02*
X59566666Y-21152380D01*
X59376190Y-20438095D01*
X59185714Y-21152380D01*
X58947619Y-20152380D01*
X54085714Y-21252380D02*
X54419047Y-20776190D01*
X54657142Y-21252380D02*
X54657142Y-20252380D01*
X54276190Y-20252380D01*
X54180952Y-20300000D01*
X54133333Y-20347619D01*
X54085714Y-20442857D01*
X54085714Y-20585714D01*
X54133333Y-20680952D01*
X54180952Y-20728571D01*
X54276190Y-20776190D01*
X54657142Y-20776190D01*
X53466666Y-20252380D02*
X53276190Y-20252380D01*
X53180952Y-20300000D01*
X53085714Y-20395238D01*
X53038095Y-20585714D01*
X53038095Y-20919047D01*
X53085714Y-21109523D01*
X53180952Y-21204761D01*
X53276190Y-21252380D01*
X53466666Y-21252380D01*
X53561904Y-21204761D01*
X53657142Y-21109523D01*
X53704761Y-20919047D01*
X53704761Y-20585714D01*
X53657142Y-20395238D01*
X53561904Y-20300000D01*
X53466666Y-20252380D01*
X52704761Y-20252380D02*
X52466666Y-21252380D01*
X52276190Y-20538095D01*
X52085714Y-21252380D01*
X51847619Y-20252380D01*
X57257142Y-22080952D02*
X57304761Y-22033333D01*
X57352380Y-21890476D01*
X57352380Y-21795238D01*
X57304761Y-21652380D01*
X57209523Y-21557142D01*
X57114285Y-21509523D01*
X56923809Y-21461904D01*
X56780952Y-21461904D01*
X56590476Y-21509523D01*
X56495238Y-21557142D01*
X56400000Y-21652380D01*
X56352380Y-21795238D01*
X56352380Y-21890476D01*
X56400000Y-22033333D01*
X56447619Y-22080952D01*
X56352380Y-22700000D02*
X56352380Y-22890476D01*
X56400000Y-22985714D01*
X56495238Y-23080952D01*
X56685714Y-23128571D01*
X57019047Y-23128571D01*
X57209523Y-23080952D01*
X57304761Y-22985714D01*
X57352380Y-22890476D01*
X57352380Y-22700000D01*
X57304761Y-22604761D01*
X57209523Y-22509523D01*
X57019047Y-22461904D01*
X56685714Y-22461904D01*
X56495238Y-22509523D01*
X56400000Y-22604761D01*
X56352380Y-22700000D01*
X57352380Y-24033333D02*
X57352380Y-23557142D01*
X56352380Y-23557142D01*
X52300000Y-25447619D02*
X52300000Y-26447619D01*
X52538095Y-26447619D01*
X52680952Y-26400000D01*
X52776190Y-26304761D01*
X52823809Y-26209523D01*
X52871428Y-26019047D01*
X52871428Y-25876190D01*
X52823809Y-25685714D01*
X52776190Y-25590476D01*
X52680952Y-25495238D01*
X52538095Y-25447619D01*
X52300000Y-25447619D01*
X53300000Y-25447619D02*
X53300000Y-26447619D01*
X59314285Y-25447619D02*
X59314285Y-26447619D01*
X59552380Y-26447619D01*
X59695238Y-26400000D01*
X59790476Y-26304761D01*
X59838095Y-26209523D01*
X59885714Y-26019047D01*
X59885714Y-25876190D01*
X59838095Y-25685714D01*
X59790476Y-25590476D01*
X59695238Y-25495238D01*
X59552380Y-25447619D01*
X59314285Y-25447619D01*
X60504761Y-26447619D02*
X60695238Y-26447619D01*
X60790476Y-26400000D01*
X60885714Y-26304761D01*
X60933333Y-26114285D01*
X60933333Y-25780952D01*
X60885714Y-25590476D01*
X60790476Y-25495238D01*
X60695238Y-25447619D01*
X60504761Y-25447619D01*
X60409523Y-25495238D01*
X60314285Y-25590476D01*
X60266666Y-25780952D01*
X60266666Y-26114285D01*
X60314285Y-26304761D01*
X60409523Y-26400000D01*
X60504761Y-26447619D01*
X32933333Y-15452380D02*
X32600000Y-16452380D01*
X32266666Y-15452380D01*
X31361904Y-16357142D02*
X31409523Y-16404761D01*
X31552380Y-16452380D01*
X31647619Y-16452380D01*
X31790476Y-16404761D01*
X31885714Y-16309523D01*
X31933333Y-16214285D01*
X31980952Y-16023809D01*
X31980952Y-15880952D01*
X31933333Y-15690476D01*
X31885714Y-15595238D01*
X31790476Y-15500000D01*
X31647619Y-15452380D01*
X31552380Y-15452380D01*
X31409523Y-15500000D01*
X31361904Y-15547619D01*
X30361904Y-16357142D02*
X30409523Y-16404761D01*
X30552380Y-16452380D01*
X30647619Y-16452380D01*
X30790476Y-16404761D01*
X30885714Y-16309523D01*
X30933333Y-16214285D01*
X30980952Y-16023809D01*
X30980952Y-15880952D01*
X30933333Y-15690476D01*
X30885714Y-15595238D01*
X30790476Y-15500000D01*
X30647619Y-15452380D01*
X30552380Y-15452380D01*
X30409523Y-15500000D01*
X30361904Y-15547619D01*
X37857142Y-14680952D02*
X37904761Y-14633333D01*
X37952380Y-14490476D01*
X37952380Y-14395238D01*
X37904761Y-14252380D01*
X37809523Y-14157142D01*
X37714285Y-14109523D01*
X37523809Y-14061904D01*
X37380952Y-14061904D01*
X37190476Y-14109523D01*
X37095238Y-14157142D01*
X37000000Y-14252380D01*
X36952380Y-14395238D01*
X36952380Y-14490476D01*
X37000000Y-14633333D01*
X37047619Y-14680952D01*
X36952380Y-15300000D02*
X36952380Y-15490476D01*
X37000000Y-15585714D01*
X37095238Y-15680952D01*
X37285714Y-15728571D01*
X37619047Y-15728571D01*
X37809523Y-15680952D01*
X37904761Y-15585714D01*
X37952380Y-15490476D01*
X37952380Y-15300000D01*
X37904761Y-15204761D01*
X37809523Y-15109523D01*
X37619047Y-15061904D01*
X37285714Y-15061904D01*
X37095238Y-15109523D01*
X37000000Y-15204761D01*
X36952380Y-15300000D01*
X37952380Y-16633333D02*
X37952380Y-16157142D01*
X36952380Y-16157142D01*
X42361904Y-16000000D02*
X42457142Y-15952380D01*
X42600000Y-15952380D01*
X42742857Y-16000000D01*
X42838095Y-16095238D01*
X42885714Y-16190476D01*
X42933333Y-16380952D01*
X42933333Y-16523809D01*
X42885714Y-16714285D01*
X42838095Y-16809523D01*
X42742857Y-16904761D01*
X42600000Y-16952380D01*
X42504761Y-16952380D01*
X42361904Y-16904761D01*
X42314285Y-16857142D01*
X42314285Y-16523809D01*
X42504761Y-16523809D01*
X41885714Y-16952380D02*
X41885714Y-15952380D01*
X41314285Y-16952380D01*
X41314285Y-15952380D01*
X40838095Y-16952380D02*
X40838095Y-15952380D01*
X40600000Y-15952380D01*
X40457142Y-16000000D01*
X40361904Y-16095238D01*
X40314285Y-16190476D01*
X40266666Y-16380952D01*
X40266666Y-16523809D01*
X40314285Y-16714285D01*
X40361904Y-16809523D01*
X40457142Y-16904761D01*
X40600000Y-16952380D01*
X40838095Y-16952380D01*
X42185714Y-21152380D02*
X42519047Y-20676190D01*
X42757142Y-21152380D02*
X42757142Y-20152380D01*
X42376190Y-20152380D01*
X42280952Y-20200000D01*
X42233333Y-20247619D01*
X42185714Y-20342857D01*
X42185714Y-20485714D01*
X42233333Y-20580952D01*
X42280952Y-20628571D01*
X42376190Y-20676190D01*
X42757142Y-20676190D01*
X41566666Y-20152380D02*
X41376190Y-20152380D01*
X41280952Y-20200000D01*
X41185714Y-20295238D01*
X41138095Y-20485714D01*
X41138095Y-20819047D01*
X41185714Y-21009523D01*
X41280952Y-21104761D01*
X41376190Y-21152380D01*
X41566666Y-21152380D01*
X41661904Y-21104761D01*
X41757142Y-21009523D01*
X41804761Y-20819047D01*
X41804761Y-20485714D01*
X41757142Y-20295238D01*
X41661904Y-20200000D01*
X41566666Y-20152380D01*
X40804761Y-20152380D02*
X40566666Y-21152380D01*
X40376190Y-20438095D01*
X40185714Y-21152380D01*
X39947619Y-20152380D01*
X35085714Y-21252380D02*
X35419047Y-20776190D01*
X35657142Y-21252380D02*
X35657142Y-20252380D01*
X35276190Y-20252380D01*
X35180952Y-20300000D01*
X35133333Y-20347619D01*
X35085714Y-20442857D01*
X35085714Y-20585714D01*
X35133333Y-20680952D01*
X35180952Y-20728571D01*
X35276190Y-20776190D01*
X35657142Y-20776190D01*
X34466666Y-20252380D02*
X34276190Y-20252380D01*
X34180952Y-20300000D01*
X34085714Y-20395238D01*
X34038095Y-20585714D01*
X34038095Y-20919047D01*
X34085714Y-21109523D01*
X34180952Y-21204761D01*
X34276190Y-21252380D01*
X34466666Y-21252380D01*
X34561904Y-21204761D01*
X34657142Y-21109523D01*
X34704761Y-20919047D01*
X34704761Y-20585714D01*
X34657142Y-20395238D01*
X34561904Y-20300000D01*
X34466666Y-20252380D01*
X33704761Y-20252380D02*
X33466666Y-21252380D01*
X33276190Y-20538095D01*
X33085714Y-21252380D01*
X32847619Y-20252380D01*
X38257142Y-22080952D02*
X38304761Y-22033333D01*
X38352380Y-21890476D01*
X38352380Y-21795238D01*
X38304761Y-21652380D01*
X38209523Y-21557142D01*
X38114285Y-21509523D01*
X37923809Y-21461904D01*
X37780952Y-21461904D01*
X37590476Y-21509523D01*
X37495238Y-21557142D01*
X37400000Y-21652380D01*
X37352380Y-21795238D01*
X37352380Y-21890476D01*
X37400000Y-22033333D01*
X37447619Y-22080952D01*
X37352380Y-22700000D02*
X37352380Y-22890476D01*
X37400000Y-22985714D01*
X37495238Y-23080952D01*
X37685714Y-23128571D01*
X38019047Y-23128571D01*
X38209523Y-23080952D01*
X38304761Y-22985714D01*
X38352380Y-22890476D01*
X38352380Y-22700000D01*
X38304761Y-22604761D01*
X38209523Y-22509523D01*
X38019047Y-22461904D01*
X37685714Y-22461904D01*
X37495238Y-22509523D01*
X37400000Y-22604761D01*
X37352380Y-22700000D01*
X38352380Y-24033333D02*
X38352380Y-23557142D01*
X37352380Y-23557142D01*
X33300000Y-25447619D02*
X33300000Y-26447619D01*
X33538095Y-26447619D01*
X33680952Y-26400000D01*
X33776190Y-26304761D01*
X33823809Y-26209523D01*
X33871428Y-26019047D01*
X33871428Y-25876190D01*
X33823809Y-25685714D01*
X33776190Y-25590476D01*
X33680952Y-25495238D01*
X33538095Y-25447619D01*
X33300000Y-25447619D01*
X34300000Y-25447619D02*
X34300000Y-26447619D01*
X40314285Y-25447619D02*
X40314285Y-26447619D01*
X40552380Y-26447619D01*
X40695238Y-26400000D01*
X40790476Y-26304761D01*
X40838095Y-26209523D01*
X40885714Y-26019047D01*
X40885714Y-25876190D01*
X40838095Y-25685714D01*
X40790476Y-25590476D01*
X40695238Y-25495238D01*
X40552380Y-25447619D01*
X40314285Y-25447619D01*
X41504761Y-26447619D02*
X41695238Y-26447619D01*
X41790476Y-26400000D01*
X41885714Y-26304761D01*
X41933333Y-26114285D01*
X41933333Y-25780952D01*
X41885714Y-25590476D01*
X41790476Y-25495238D01*
X41695238Y-25447619D01*
X41504761Y-25447619D01*
X41409523Y-25495238D01*
X41314285Y-25590476D01*
X41266666Y-25780952D01*
X41266666Y-26114285D01*
X41314285Y-26304761D01*
X41409523Y-26400000D01*
X41504761Y-26447619D01*
X13933333Y-15452380D02*
X13600000Y-16452380D01*
X13266666Y-15452380D01*
X12361904Y-16357142D02*
X12409523Y-16404761D01*
X12552380Y-16452380D01*
X12647619Y-16452380D01*
X12790476Y-16404761D01*
X12885714Y-16309523D01*
X12933333Y-16214285D01*
X12980952Y-16023809D01*
X12980952Y-15880952D01*
X12933333Y-15690476D01*
X12885714Y-15595238D01*
X12790476Y-15500000D01*
X12647619Y-15452380D01*
X12552380Y-15452380D01*
X12409523Y-15500000D01*
X12361904Y-15547619D01*
X11361904Y-16357142D02*
X11409523Y-16404761D01*
X11552380Y-16452380D01*
X11647619Y-16452380D01*
X11790476Y-16404761D01*
X11885714Y-16309523D01*
X11933333Y-16214285D01*
X11980952Y-16023809D01*
X11980952Y-15880952D01*
X11933333Y-15690476D01*
X11885714Y-15595238D01*
X11790476Y-15500000D01*
X11647619Y-15452380D01*
X11552380Y-15452380D01*
X11409523Y-15500000D01*
X11361904Y-15547619D01*
X18857142Y-14680952D02*
X18904761Y-14633333D01*
X18952380Y-14490476D01*
X18952380Y-14395238D01*
X18904761Y-14252380D01*
X18809523Y-14157142D01*
X18714285Y-14109523D01*
X18523809Y-14061904D01*
X18380952Y-14061904D01*
X18190476Y-14109523D01*
X18095238Y-14157142D01*
X18000000Y-14252380D01*
X17952380Y-14395238D01*
X17952380Y-14490476D01*
X18000000Y-14633333D01*
X18047619Y-14680952D01*
X17952380Y-15300000D02*
X17952380Y-15490476D01*
X18000000Y-15585714D01*
X18095238Y-15680952D01*
X18285714Y-15728571D01*
X18619047Y-15728571D01*
X18809523Y-15680952D01*
X18904761Y-15585714D01*
X18952380Y-15490476D01*
X18952380Y-15300000D01*
X18904761Y-15204761D01*
X18809523Y-15109523D01*
X18619047Y-15061904D01*
X18285714Y-15061904D01*
X18095238Y-15109523D01*
X18000000Y-15204761D01*
X17952380Y-15300000D01*
X18952380Y-16633333D02*
X18952380Y-16157142D01*
X17952380Y-16157142D01*
X23361904Y-16000000D02*
X23457142Y-15952380D01*
X23600000Y-15952380D01*
X23742857Y-16000000D01*
X23838095Y-16095238D01*
X23885714Y-16190476D01*
X23933333Y-16380952D01*
X23933333Y-16523809D01*
X23885714Y-16714285D01*
X23838095Y-16809523D01*
X23742857Y-16904761D01*
X23600000Y-16952380D01*
X23504761Y-16952380D01*
X23361904Y-16904761D01*
X23314285Y-16857142D01*
X23314285Y-16523809D01*
X23504761Y-16523809D01*
X22885714Y-16952380D02*
X22885714Y-15952380D01*
X22314285Y-16952380D01*
X22314285Y-15952380D01*
X21838095Y-16952380D02*
X21838095Y-15952380D01*
X21600000Y-15952380D01*
X21457142Y-16000000D01*
X21361904Y-16095238D01*
X21314285Y-16190476D01*
X21266666Y-16380952D01*
X21266666Y-16523809D01*
X21314285Y-16714285D01*
X21361904Y-16809523D01*
X21457142Y-16904761D01*
X21600000Y-16952380D01*
X21838095Y-16952380D01*
X23185714Y-21152380D02*
X23519047Y-20676190D01*
X23757142Y-21152380D02*
X23757142Y-20152380D01*
X23376190Y-20152380D01*
X23280952Y-20200000D01*
X23233333Y-20247619D01*
X23185714Y-20342857D01*
X23185714Y-20485714D01*
X23233333Y-20580952D01*
X23280952Y-20628571D01*
X23376190Y-20676190D01*
X23757142Y-20676190D01*
X22566666Y-20152380D02*
X22376190Y-20152380D01*
X22280952Y-20200000D01*
X22185714Y-20295238D01*
X22138095Y-20485714D01*
X22138095Y-20819047D01*
X22185714Y-21009523D01*
X22280952Y-21104761D01*
X22376190Y-21152380D01*
X22566666Y-21152380D01*
X22661904Y-21104761D01*
X22757142Y-21009523D01*
X22804761Y-20819047D01*
X22804761Y-20485714D01*
X22757142Y-20295238D01*
X22661904Y-20200000D01*
X22566666Y-20152380D01*
X21804761Y-20152380D02*
X21566666Y-21152380D01*
X21376190Y-20438095D01*
X21185714Y-21152380D01*
X20947619Y-20152380D01*
X16085714Y-21252380D02*
X16419047Y-20776190D01*
X16657142Y-21252380D02*
X16657142Y-20252380D01*
X16276190Y-20252380D01*
X16180952Y-20300000D01*
X16133333Y-20347619D01*
X16085714Y-20442857D01*
X16085714Y-20585714D01*
X16133333Y-20680952D01*
X16180952Y-20728571D01*
X16276190Y-20776190D01*
X16657142Y-20776190D01*
X15466666Y-20252380D02*
X15276190Y-20252380D01*
X15180952Y-20300000D01*
X15085714Y-20395238D01*
X15038095Y-20585714D01*
X15038095Y-20919047D01*
X15085714Y-21109523D01*
X15180952Y-21204761D01*
X15276190Y-21252380D01*
X15466666Y-21252380D01*
X15561904Y-21204761D01*
X15657142Y-21109523D01*
X15704761Y-20919047D01*
X15704761Y-20585714D01*
X15657142Y-20395238D01*
X15561904Y-20300000D01*
X15466666Y-20252380D01*
X14704761Y-20252380D02*
X14466666Y-21252380D01*
X14276190Y-20538095D01*
X14085714Y-21252380D01*
X13847619Y-20252380D01*
X19257142Y-22080952D02*
X19304761Y-22033333D01*
X19352380Y-21890476D01*
X19352380Y-21795238D01*
X19304761Y-21652380D01*
X19209523Y-21557142D01*
X19114285Y-21509523D01*
X18923809Y-21461904D01*
X18780952Y-21461904D01*
X18590476Y-21509523D01*
X18495238Y-21557142D01*
X18400000Y-21652380D01*
X18352380Y-21795238D01*
X18352380Y-21890476D01*
X18400000Y-22033333D01*
X18447619Y-22080952D01*
X18352380Y-22700000D02*
X18352380Y-22890476D01*
X18400000Y-22985714D01*
X18495238Y-23080952D01*
X18685714Y-23128571D01*
X19019047Y-23128571D01*
X19209523Y-23080952D01*
X19304761Y-22985714D01*
X19352380Y-22890476D01*
X19352380Y-22700000D01*
X19304761Y-22604761D01*
X19209523Y-22509523D01*
X19019047Y-22461904D01*
X18685714Y-22461904D01*
X18495238Y-22509523D01*
X18400000Y-22604761D01*
X18352380Y-22700000D01*
X19352380Y-24033333D02*
X19352380Y-23557142D01*
X18352380Y-23557142D01*
X14300000Y-25447619D02*
X14300000Y-26447619D01*
X14538095Y-26447619D01*
X14680952Y-26400000D01*
X14776190Y-26304761D01*
X14823809Y-26209523D01*
X14871428Y-26019047D01*
X14871428Y-25876190D01*
X14823809Y-25685714D01*
X14776190Y-25590476D01*
X14680952Y-25495238D01*
X14538095Y-25447619D01*
X14300000Y-25447619D01*
X15300000Y-25447619D02*
X15300000Y-26447619D01*
X21314285Y-25447619D02*
X21314285Y-26447619D01*
X21552380Y-26447619D01*
X21695238Y-26400000D01*
X21790476Y-26304761D01*
X21838095Y-26209523D01*
X21885714Y-26019047D01*
X21885714Y-25876190D01*
X21838095Y-25685714D01*
X21790476Y-25590476D01*
X21695238Y-25495238D01*
X21552380Y-25447619D01*
X21314285Y-25447619D01*
X22504761Y-26447619D02*
X22695238Y-26447619D01*
X22790476Y-26400000D01*
X22885714Y-26304761D01*
X22933333Y-26114285D01*
X22933333Y-25780952D01*
X22885714Y-25590476D01*
X22790476Y-25495238D01*
X22695238Y-25447619D01*
X22504761Y-25447619D01*
X22409523Y-25495238D01*
X22314285Y-25590476D01*
X22266666Y-25780952D01*
X22266666Y-26114285D01*
X22314285Y-26304761D01*
X22409523Y-26400000D01*
X22504761Y-26447619D01*
X-5066666Y-15452380D02*
X-5400000Y-16452380D01*
X-5733333Y-15452380D01*
X-6638095Y-16357142D02*
X-6590476Y-16404761D01*
X-6447619Y-16452380D01*
X-6352380Y-16452380D01*
X-6209523Y-16404761D01*
X-6114285Y-16309523D01*
X-6066666Y-16214285D01*
X-6019047Y-16023809D01*
X-6019047Y-15880952D01*
X-6066666Y-15690476D01*
X-6114285Y-15595238D01*
X-6209523Y-15500000D01*
X-6352380Y-15452380D01*
X-6447619Y-15452380D01*
X-6590476Y-15500000D01*
X-6638095Y-15547619D01*
X-7638095Y-16357142D02*
X-7590476Y-16404761D01*
X-7447619Y-16452380D01*
X-7352380Y-16452380D01*
X-7209523Y-16404761D01*
X-7114285Y-16309523D01*
X-7066666Y-16214285D01*
X-7019047Y-16023809D01*
X-7019047Y-15880952D01*
X-7066666Y-15690476D01*
X-7114285Y-15595238D01*
X-7209523Y-15500000D01*
X-7352380Y-15452380D01*
X-7447619Y-15452380D01*
X-7590476Y-15500000D01*
X-7638095Y-15547619D01*
X-142857Y-14680952D02*
X-95238Y-14633333D01*
X-47619Y-14490476D01*
X-47619Y-14395238D01*
X-95238Y-14252380D01*
X-190476Y-14157142D01*
X-285714Y-14109523D01*
X-476190Y-14061904D01*
X-619047Y-14061904D01*
X-809523Y-14109523D01*
X-904761Y-14157142D01*
X-1000000Y-14252380D01*
X-1047619Y-14395238D01*
X-1047619Y-14490476D01*
X-1000000Y-14633333D01*
X-952380Y-14680952D01*
X-1047619Y-15300000D02*
X-1047619Y-15490476D01*
X-1000000Y-15585714D01*
X-904761Y-15680952D01*
X-714285Y-15728571D01*
X-380952Y-15728571D01*
X-190476Y-15680952D01*
X-95238Y-15585714D01*
X-47619Y-15490476D01*
X-47619Y-15300000D01*
X-95238Y-15204761D01*
X-190476Y-15109523D01*
X-380952Y-15061904D01*
X-714285Y-15061904D01*
X-904761Y-15109523D01*
X-1000000Y-15204761D01*
X-1047619Y-15300000D01*
X-47619Y-16633333D02*
X-47619Y-16157142D01*
X-1047619Y-16157142D01*
X4361904Y-16000000D02*
X4457142Y-15952380D01*
X4600000Y-15952380D01*
X4742857Y-16000000D01*
X4838095Y-16095238D01*
X4885714Y-16190476D01*
X4933333Y-16380952D01*
X4933333Y-16523809D01*
X4885714Y-16714285D01*
X4838095Y-16809523D01*
X4742857Y-16904761D01*
X4600000Y-16952380D01*
X4504761Y-16952380D01*
X4361904Y-16904761D01*
X4314285Y-16857142D01*
X4314285Y-16523809D01*
X4504761Y-16523809D01*
X3885714Y-16952380D02*
X3885714Y-15952380D01*
X3314285Y-16952380D01*
X3314285Y-15952380D01*
X2838095Y-16952380D02*
X2838095Y-15952380D01*
X2600000Y-15952380D01*
X2457142Y-16000000D01*
X2361904Y-16095238D01*
X2314285Y-16190476D01*
X2266666Y-16380952D01*
X2266666Y-16523809D01*
X2314285Y-16714285D01*
X2361904Y-16809523D01*
X2457142Y-16904761D01*
X2600000Y-16952380D01*
X2838095Y-16952380D01*
X4185714Y-21152380D02*
X4519047Y-20676190D01*
X4757142Y-21152380D02*
X4757142Y-20152380D01*
X4376190Y-20152380D01*
X4280952Y-20200000D01*
X4233333Y-20247619D01*
X4185714Y-20342857D01*
X4185714Y-20485714D01*
X4233333Y-20580952D01*
X4280952Y-20628571D01*
X4376190Y-20676190D01*
X4757142Y-20676190D01*
X3566666Y-20152380D02*
X3376190Y-20152380D01*
X3280952Y-20200000D01*
X3185714Y-20295238D01*
X3138095Y-20485714D01*
X3138095Y-20819047D01*
X3185714Y-21009523D01*
X3280952Y-21104761D01*
X3376190Y-21152380D01*
X3566666Y-21152380D01*
X3661904Y-21104761D01*
X3757142Y-21009523D01*
X3804761Y-20819047D01*
X3804761Y-20485714D01*
X3757142Y-20295238D01*
X3661904Y-20200000D01*
X3566666Y-20152380D01*
X2804761Y-20152380D02*
X2566666Y-21152380D01*
X2376190Y-20438095D01*
X2185714Y-21152380D01*
X1947619Y-20152380D01*
X-2914285Y-21252380D02*
X-2580952Y-20776190D01*
X-2342857Y-21252380D02*
X-2342857Y-20252380D01*
X-2723809Y-20252380D01*
X-2819047Y-20300000D01*
X-2866666Y-20347619D01*
X-2914285Y-20442857D01*
X-2914285Y-20585714D01*
X-2866666Y-20680952D01*
X-2819047Y-20728571D01*
X-2723809Y-20776190D01*
X-2342857Y-20776190D01*
X-3533333Y-20252380D02*
X-3723809Y-20252380D01*
X-3819047Y-20300000D01*
X-3914285Y-20395238D01*
X-3961904Y-20585714D01*
X-3961904Y-20919047D01*
X-3914285Y-21109523D01*
X-3819047Y-21204761D01*
X-3723809Y-21252380D01*
X-3533333Y-21252380D01*
X-3438095Y-21204761D01*
X-3342857Y-21109523D01*
X-3295238Y-20919047D01*
X-3295238Y-20585714D01*
X-3342857Y-20395238D01*
X-3438095Y-20300000D01*
X-3533333Y-20252380D01*
X-4295238Y-20252380D02*
X-4533333Y-21252380D01*
X-4723809Y-20538095D01*
X-4914285Y-21252380D01*
X-5152380Y-20252380D01*
X257142Y-22080952D02*
X304761Y-22033333D01*
X352380Y-21890476D01*
X352380Y-21795238D01*
X304761Y-21652380D01*
X209523Y-21557142D01*
X114285Y-21509523D01*
X-76190Y-21461904D01*
X-219047Y-21461904D01*
X-409523Y-21509523D01*
X-504761Y-21557142D01*
X-600000Y-21652380D01*
X-647619Y-21795238D01*
X-647619Y-21890476D01*
X-600000Y-22033333D01*
X-552380Y-22080952D01*
X-647619Y-22700000D02*
X-647619Y-22890476D01*
X-600000Y-22985714D01*
X-504761Y-23080952D01*
X-314285Y-23128571D01*
X19047Y-23128571D01*
X209523Y-23080952D01*
X304761Y-22985714D01*
X352380Y-22890476D01*
X352380Y-22700000D01*
X304761Y-22604761D01*
X209523Y-22509523D01*
X19047Y-22461904D01*
X-314285Y-22461904D01*
X-504761Y-22509523D01*
X-600000Y-22604761D01*
X-647619Y-22700000D01*
X352380Y-24033333D02*
X352380Y-23557142D01*
X-647619Y-23557142D01*
X-4700000Y-25447619D02*
X-4700000Y-26447619D01*
X-4461904Y-26447619D01*
X-4319047Y-26400000D01*
X-4223809Y-26304761D01*
X-4176190Y-26209523D01*
X-4128571Y-26019047D01*
X-4128571Y-25876190D01*
X-4176190Y-25685714D01*
X-4223809Y-25590476D01*
X-4319047Y-25495238D01*
X-4461904Y-25447619D01*
X-4700000Y-25447619D01*
X-3700000Y-25447619D02*
X-3700000Y-26447619D01*
X2314285Y-25447619D02*
X2314285Y-26447619D01*
X2552380Y-26447619D01*
X2695238Y-26400000D01*
X2790476Y-26304761D01*
X2838095Y-26209523D01*
X2885714Y-26019047D01*
X2885714Y-25876190D01*
X2838095Y-25685714D01*
X2790476Y-25590476D01*
X2695238Y-25495238D01*
X2552380Y-25447619D01*
X2314285Y-25447619D01*
X3504761Y-26447619D02*
X3695238Y-26447619D01*
X3790476Y-26400000D01*
X3885714Y-26304761D01*
X3933333Y-26114285D01*
X3933333Y-25780952D01*
X3885714Y-25590476D01*
X3790476Y-25495238D01*
X3695238Y-25447619D01*
X3504761Y-25447619D01*
X3409523Y-25495238D01*
X3314285Y-25590476D01*
X3266666Y-25780952D01*
X3266666Y-26114285D01*
X3314285Y-26304761D01*
X3409523Y-26400000D01*
X3504761Y-26447619D01*
X51933333Y3547619D02*
X51600000Y2547619D01*
X51266666Y3547619D01*
X50361904Y2642857D02*
X50409523Y2595238D01*
X50552380Y2547619D01*
X50647619Y2547619D01*
X50790476Y2595238D01*
X50885714Y2690476D01*
X50933333Y2785714D01*
X50980952Y2976190D01*
X50980952Y3119047D01*
X50933333Y3309523D01*
X50885714Y3404761D01*
X50790476Y3500000D01*
X50647619Y3547619D01*
X50552380Y3547619D01*
X50409523Y3500000D01*
X50361904Y3452380D01*
X49361904Y2642857D02*
X49409523Y2595238D01*
X49552380Y2547619D01*
X49647619Y2547619D01*
X49790476Y2595238D01*
X49885714Y2690476D01*
X49933333Y2785714D01*
X49980952Y2976190D01*
X49980952Y3119047D01*
X49933333Y3309523D01*
X49885714Y3404761D01*
X49790476Y3500000D01*
X49647619Y3547619D01*
X49552380Y3547619D01*
X49409523Y3500000D01*
X49361904Y3452380D01*
X56857142Y4319047D02*
X56904761Y4366666D01*
X56952380Y4509523D01*
X56952380Y4604761D01*
X56904761Y4747619D01*
X56809523Y4842857D01*
X56714285Y4890476D01*
X56523809Y4938095D01*
X56380952Y4938095D01*
X56190476Y4890476D01*
X56095238Y4842857D01*
X56000000Y4747619D01*
X55952380Y4604761D01*
X55952380Y4509523D01*
X56000000Y4366666D01*
X56047619Y4319047D01*
X55952380Y3700000D02*
X55952380Y3509523D01*
X56000000Y3414285D01*
X56095238Y3319047D01*
X56285714Y3271428D01*
X56619047Y3271428D01*
X56809523Y3319047D01*
X56904761Y3414285D01*
X56952380Y3509523D01*
X56952380Y3700000D01*
X56904761Y3795238D01*
X56809523Y3890476D01*
X56619047Y3938095D01*
X56285714Y3938095D01*
X56095238Y3890476D01*
X56000000Y3795238D01*
X55952380Y3700000D01*
X56952380Y2366666D02*
X56952380Y2842857D01*
X55952380Y2842857D01*
X61361904Y3000000D02*
X61457142Y3047619D01*
X61600000Y3047619D01*
X61742857Y3000000D01*
X61838095Y2904761D01*
X61885714Y2809523D01*
X61933333Y2619047D01*
X61933333Y2476190D01*
X61885714Y2285714D01*
X61838095Y2190476D01*
X61742857Y2095238D01*
X61600000Y2047619D01*
X61504761Y2047619D01*
X61361904Y2095238D01*
X61314285Y2142857D01*
X61314285Y2476190D01*
X61504761Y2476190D01*
X60885714Y2047619D02*
X60885714Y3047619D01*
X60314285Y2047619D01*
X60314285Y3047619D01*
X59838095Y2047619D02*
X59838095Y3047619D01*
X59600000Y3047619D01*
X59457142Y3000000D01*
X59361904Y2904761D01*
X59314285Y2809523D01*
X59266666Y2619047D01*
X59266666Y2476190D01*
X59314285Y2285714D01*
X59361904Y2190476D01*
X59457142Y2095238D01*
X59600000Y2047619D01*
X59838095Y2047619D01*
X61185714Y-2152380D02*
X61519047Y-1676190D01*
X61757142Y-2152380D02*
X61757142Y-1152380D01*
X61376190Y-1152380D01*
X61280952Y-1200000D01*
X61233333Y-1247619D01*
X61185714Y-1342857D01*
X61185714Y-1485714D01*
X61233333Y-1580952D01*
X61280952Y-1628571D01*
X61376190Y-1676190D01*
X61757142Y-1676190D01*
X60566666Y-1152380D02*
X60376190Y-1152380D01*
X60280952Y-1200000D01*
X60185714Y-1295238D01*
X60138095Y-1485714D01*
X60138095Y-1819047D01*
X60185714Y-2009523D01*
X60280952Y-2104761D01*
X60376190Y-2152380D01*
X60566666Y-2152380D01*
X60661904Y-2104761D01*
X60757142Y-2009523D01*
X60804761Y-1819047D01*
X60804761Y-1485714D01*
X60757142Y-1295238D01*
X60661904Y-1200000D01*
X60566666Y-1152380D01*
X59804761Y-1152380D02*
X59566666Y-2152380D01*
X59376190Y-1438095D01*
X59185714Y-2152380D01*
X58947619Y-1152380D01*
X54085714Y-2252380D02*
X54419047Y-1776190D01*
X54657142Y-2252380D02*
X54657142Y-1252380D01*
X54276190Y-1252380D01*
X54180952Y-1300000D01*
X54133333Y-1347619D01*
X54085714Y-1442857D01*
X54085714Y-1585714D01*
X54133333Y-1680952D01*
X54180952Y-1728571D01*
X54276190Y-1776190D01*
X54657142Y-1776190D01*
X53466666Y-1252380D02*
X53276190Y-1252380D01*
X53180952Y-1300000D01*
X53085714Y-1395238D01*
X53038095Y-1585714D01*
X53038095Y-1919047D01*
X53085714Y-2109523D01*
X53180952Y-2204761D01*
X53276190Y-2252380D01*
X53466666Y-2252380D01*
X53561904Y-2204761D01*
X53657142Y-2109523D01*
X53704761Y-1919047D01*
X53704761Y-1585714D01*
X53657142Y-1395238D01*
X53561904Y-1300000D01*
X53466666Y-1252380D01*
X52704761Y-1252380D02*
X52466666Y-2252380D01*
X52276190Y-1538095D01*
X52085714Y-2252380D01*
X51847619Y-1252380D01*
X57257142Y-3080952D02*
X57304761Y-3033333D01*
X57352380Y-2890476D01*
X57352380Y-2795238D01*
X57304761Y-2652380D01*
X57209523Y-2557142D01*
X57114285Y-2509523D01*
X56923809Y-2461904D01*
X56780952Y-2461904D01*
X56590476Y-2509523D01*
X56495238Y-2557142D01*
X56400000Y-2652380D01*
X56352380Y-2795238D01*
X56352380Y-2890476D01*
X56400000Y-3033333D01*
X56447619Y-3080952D01*
X56352380Y-3700000D02*
X56352380Y-3890476D01*
X56400000Y-3985714D01*
X56495238Y-4080952D01*
X56685714Y-4128571D01*
X57019047Y-4128571D01*
X57209523Y-4080952D01*
X57304761Y-3985714D01*
X57352380Y-3890476D01*
X57352380Y-3700000D01*
X57304761Y-3604761D01*
X57209523Y-3509523D01*
X57019047Y-3461904D01*
X56685714Y-3461904D01*
X56495238Y-3509523D01*
X56400000Y-3604761D01*
X56352380Y-3700000D01*
X57352380Y-5033333D02*
X57352380Y-4557142D01*
X56352380Y-4557142D01*
X52300000Y-6447619D02*
X52300000Y-7447619D01*
X52538095Y-7447619D01*
X52680952Y-7400000D01*
X52776190Y-7304761D01*
X52823809Y-7209523D01*
X52871428Y-7019047D01*
X52871428Y-6876190D01*
X52823809Y-6685714D01*
X52776190Y-6590476D01*
X52680952Y-6495238D01*
X52538095Y-6447619D01*
X52300000Y-6447619D01*
X53300000Y-6447619D02*
X53300000Y-7447619D01*
X59314285Y-6447619D02*
X59314285Y-7447619D01*
X59552380Y-7447619D01*
X59695238Y-7400000D01*
X59790476Y-7304761D01*
X59838095Y-7209523D01*
X59885714Y-7019047D01*
X59885714Y-6876190D01*
X59838095Y-6685714D01*
X59790476Y-6590476D01*
X59695238Y-6495238D01*
X59552380Y-6447619D01*
X59314285Y-6447619D01*
X60504761Y-7447619D02*
X60695238Y-7447619D01*
X60790476Y-7400000D01*
X60885714Y-7304761D01*
X60933333Y-7114285D01*
X60933333Y-6780952D01*
X60885714Y-6590476D01*
X60790476Y-6495238D01*
X60695238Y-6447619D01*
X60504761Y-6447619D01*
X60409523Y-6495238D01*
X60314285Y-6590476D01*
X60266666Y-6780952D01*
X60266666Y-7114285D01*
X60314285Y-7304761D01*
X60409523Y-7400000D01*
X60504761Y-7447619D01*
X32933333Y3547619D02*
X32600000Y2547619D01*
X32266666Y3547619D01*
X31361904Y2642857D02*
X31409523Y2595238D01*
X31552380Y2547619D01*
X31647619Y2547619D01*
X31790476Y2595238D01*
X31885714Y2690476D01*
X31933333Y2785714D01*
X31980952Y2976190D01*
X31980952Y3119047D01*
X31933333Y3309523D01*
X31885714Y3404761D01*
X31790476Y3500000D01*
X31647619Y3547619D01*
X31552380Y3547619D01*
X31409523Y3500000D01*
X31361904Y3452380D01*
X30361904Y2642857D02*
X30409523Y2595238D01*
X30552380Y2547619D01*
X30647619Y2547619D01*
X30790476Y2595238D01*
X30885714Y2690476D01*
X30933333Y2785714D01*
X30980952Y2976190D01*
X30980952Y3119047D01*
X30933333Y3309523D01*
X30885714Y3404761D01*
X30790476Y3500000D01*
X30647619Y3547619D01*
X30552380Y3547619D01*
X30409523Y3500000D01*
X30361904Y3452380D01*
X37857142Y4319047D02*
X37904761Y4366666D01*
X37952380Y4509523D01*
X37952380Y4604761D01*
X37904761Y4747619D01*
X37809523Y4842857D01*
X37714285Y4890476D01*
X37523809Y4938095D01*
X37380952Y4938095D01*
X37190476Y4890476D01*
X37095238Y4842857D01*
X37000000Y4747619D01*
X36952380Y4604761D01*
X36952380Y4509523D01*
X37000000Y4366666D01*
X37047619Y4319047D01*
X36952380Y3700000D02*
X36952380Y3509523D01*
X37000000Y3414285D01*
X37095238Y3319047D01*
X37285714Y3271428D01*
X37619047Y3271428D01*
X37809523Y3319047D01*
X37904761Y3414285D01*
X37952380Y3509523D01*
X37952380Y3700000D01*
X37904761Y3795238D01*
X37809523Y3890476D01*
X37619047Y3938095D01*
X37285714Y3938095D01*
X37095238Y3890476D01*
X37000000Y3795238D01*
X36952380Y3700000D01*
X37952380Y2366666D02*
X37952380Y2842857D01*
X36952380Y2842857D01*
X42361904Y3000000D02*
X42457142Y3047619D01*
X42600000Y3047619D01*
X42742857Y3000000D01*
X42838095Y2904761D01*
X42885714Y2809523D01*
X42933333Y2619047D01*
X42933333Y2476190D01*
X42885714Y2285714D01*
X42838095Y2190476D01*
X42742857Y2095238D01*
X42600000Y2047619D01*
X42504761Y2047619D01*
X42361904Y2095238D01*
X42314285Y2142857D01*
X42314285Y2476190D01*
X42504761Y2476190D01*
X41885714Y2047619D02*
X41885714Y3047619D01*
X41314285Y2047619D01*
X41314285Y3047619D01*
X40838095Y2047619D02*
X40838095Y3047619D01*
X40600000Y3047619D01*
X40457142Y3000000D01*
X40361904Y2904761D01*
X40314285Y2809523D01*
X40266666Y2619047D01*
X40266666Y2476190D01*
X40314285Y2285714D01*
X40361904Y2190476D01*
X40457142Y2095238D01*
X40600000Y2047619D01*
X40838095Y2047619D01*
X42185714Y-2152380D02*
X42519047Y-1676190D01*
X42757142Y-2152380D02*
X42757142Y-1152380D01*
X42376190Y-1152380D01*
X42280952Y-1200000D01*
X42233333Y-1247619D01*
X42185714Y-1342857D01*
X42185714Y-1485714D01*
X42233333Y-1580952D01*
X42280952Y-1628571D01*
X42376190Y-1676190D01*
X42757142Y-1676190D01*
X41566666Y-1152380D02*
X41376190Y-1152380D01*
X41280952Y-1200000D01*
X41185714Y-1295238D01*
X41138095Y-1485714D01*
X41138095Y-1819047D01*
X41185714Y-2009523D01*
X41280952Y-2104761D01*
X41376190Y-2152380D01*
X41566666Y-2152380D01*
X41661904Y-2104761D01*
X41757142Y-2009523D01*
X41804761Y-1819047D01*
X41804761Y-1485714D01*
X41757142Y-1295238D01*
X41661904Y-1200000D01*
X41566666Y-1152380D01*
X40804761Y-1152380D02*
X40566666Y-2152380D01*
X40376190Y-1438095D01*
X40185714Y-2152380D01*
X39947619Y-1152380D01*
X35085714Y-2252380D02*
X35419047Y-1776190D01*
X35657142Y-2252380D02*
X35657142Y-1252380D01*
X35276190Y-1252380D01*
X35180952Y-1300000D01*
X35133333Y-1347619D01*
X35085714Y-1442857D01*
X35085714Y-1585714D01*
X35133333Y-1680952D01*
X35180952Y-1728571D01*
X35276190Y-1776190D01*
X35657142Y-1776190D01*
X34466666Y-1252380D02*
X34276190Y-1252380D01*
X34180952Y-1300000D01*
X34085714Y-1395238D01*
X34038095Y-1585714D01*
X34038095Y-1919047D01*
X34085714Y-2109523D01*
X34180952Y-2204761D01*
X34276190Y-2252380D01*
X34466666Y-2252380D01*
X34561904Y-2204761D01*
X34657142Y-2109523D01*
X34704761Y-1919047D01*
X34704761Y-1585714D01*
X34657142Y-1395238D01*
X34561904Y-1300000D01*
X34466666Y-1252380D01*
X33704761Y-1252380D02*
X33466666Y-2252380D01*
X33276190Y-1538095D01*
X33085714Y-2252380D01*
X32847619Y-1252380D01*
X38257142Y-3080952D02*
X38304761Y-3033333D01*
X38352380Y-2890476D01*
X38352380Y-2795238D01*
X38304761Y-2652380D01*
X38209523Y-2557142D01*
X38114285Y-2509523D01*
X37923809Y-2461904D01*
X37780952Y-2461904D01*
X37590476Y-2509523D01*
X37495238Y-2557142D01*
X37400000Y-2652380D01*
X37352380Y-2795238D01*
X37352380Y-2890476D01*
X37400000Y-3033333D01*
X37447619Y-3080952D01*
X37352380Y-3700000D02*
X37352380Y-3890476D01*
X37400000Y-3985714D01*
X37495238Y-4080952D01*
X37685714Y-4128571D01*
X38019047Y-4128571D01*
X38209523Y-4080952D01*
X38304761Y-3985714D01*
X38352380Y-3890476D01*
X38352380Y-3700000D01*
X38304761Y-3604761D01*
X38209523Y-3509523D01*
X38019047Y-3461904D01*
X37685714Y-3461904D01*
X37495238Y-3509523D01*
X37400000Y-3604761D01*
X37352380Y-3700000D01*
X38352380Y-5033333D02*
X38352380Y-4557142D01*
X37352380Y-4557142D01*
X33300000Y-6447619D02*
X33300000Y-7447619D01*
X33538095Y-7447619D01*
X33680952Y-7400000D01*
X33776190Y-7304761D01*
X33823809Y-7209523D01*
X33871428Y-7019047D01*
X33871428Y-6876190D01*
X33823809Y-6685714D01*
X33776190Y-6590476D01*
X33680952Y-6495238D01*
X33538095Y-6447619D01*
X33300000Y-6447619D01*
X34300000Y-6447619D02*
X34300000Y-7447619D01*
X40314285Y-6447619D02*
X40314285Y-7447619D01*
X40552380Y-7447619D01*
X40695238Y-7400000D01*
X40790476Y-7304761D01*
X40838095Y-7209523D01*
X40885714Y-7019047D01*
X40885714Y-6876190D01*
X40838095Y-6685714D01*
X40790476Y-6590476D01*
X40695238Y-6495238D01*
X40552380Y-6447619D01*
X40314285Y-6447619D01*
X41504761Y-7447619D02*
X41695238Y-7447619D01*
X41790476Y-7400000D01*
X41885714Y-7304761D01*
X41933333Y-7114285D01*
X41933333Y-6780952D01*
X41885714Y-6590476D01*
X41790476Y-6495238D01*
X41695238Y-6447619D01*
X41504761Y-6447619D01*
X41409523Y-6495238D01*
X41314285Y-6590476D01*
X41266666Y-6780952D01*
X41266666Y-7114285D01*
X41314285Y-7304761D01*
X41409523Y-7400000D01*
X41504761Y-7447619D01*
X13933333Y3547619D02*
X13600000Y2547619D01*
X13266666Y3547619D01*
X12361904Y2642857D02*
X12409523Y2595238D01*
X12552380Y2547619D01*
X12647619Y2547619D01*
X12790476Y2595238D01*
X12885714Y2690476D01*
X12933333Y2785714D01*
X12980952Y2976190D01*
X12980952Y3119047D01*
X12933333Y3309523D01*
X12885714Y3404761D01*
X12790476Y3500000D01*
X12647619Y3547619D01*
X12552380Y3547619D01*
X12409523Y3500000D01*
X12361904Y3452380D01*
X11361904Y2642857D02*
X11409523Y2595238D01*
X11552380Y2547619D01*
X11647619Y2547619D01*
X11790476Y2595238D01*
X11885714Y2690476D01*
X11933333Y2785714D01*
X11980952Y2976190D01*
X11980952Y3119047D01*
X11933333Y3309523D01*
X11885714Y3404761D01*
X11790476Y3500000D01*
X11647619Y3547619D01*
X11552380Y3547619D01*
X11409523Y3500000D01*
X11361904Y3452380D01*
X18857142Y4319047D02*
X18904761Y4366666D01*
X18952380Y4509523D01*
X18952380Y4604761D01*
X18904761Y4747619D01*
X18809523Y4842857D01*
X18714285Y4890476D01*
X18523809Y4938095D01*
X18380952Y4938095D01*
X18190476Y4890476D01*
X18095238Y4842857D01*
X18000000Y4747619D01*
X17952380Y4604761D01*
X17952380Y4509523D01*
X18000000Y4366666D01*
X18047619Y4319047D01*
X17952380Y3700000D02*
X17952380Y3509523D01*
X18000000Y3414285D01*
X18095238Y3319047D01*
X18285714Y3271428D01*
X18619047Y3271428D01*
X18809523Y3319047D01*
X18904761Y3414285D01*
X18952380Y3509523D01*
X18952380Y3700000D01*
X18904761Y3795238D01*
X18809523Y3890476D01*
X18619047Y3938095D01*
X18285714Y3938095D01*
X18095238Y3890476D01*
X18000000Y3795238D01*
X17952380Y3700000D01*
X18952380Y2366666D02*
X18952380Y2842857D01*
X17952380Y2842857D01*
X23361904Y3000000D02*
X23457142Y3047619D01*
X23600000Y3047619D01*
X23742857Y3000000D01*
X23838095Y2904761D01*
X23885714Y2809523D01*
X23933333Y2619047D01*
X23933333Y2476190D01*
X23885714Y2285714D01*
X23838095Y2190476D01*
X23742857Y2095238D01*
X23600000Y2047619D01*
X23504761Y2047619D01*
X23361904Y2095238D01*
X23314285Y2142857D01*
X23314285Y2476190D01*
X23504761Y2476190D01*
X22885714Y2047619D02*
X22885714Y3047619D01*
X22314285Y2047619D01*
X22314285Y3047619D01*
X21838095Y2047619D02*
X21838095Y3047619D01*
X21600000Y3047619D01*
X21457142Y3000000D01*
X21361904Y2904761D01*
X21314285Y2809523D01*
X21266666Y2619047D01*
X21266666Y2476190D01*
X21314285Y2285714D01*
X21361904Y2190476D01*
X21457142Y2095238D01*
X21600000Y2047619D01*
X21838095Y2047619D01*
X23185714Y-2152380D02*
X23519047Y-1676190D01*
X23757142Y-2152380D02*
X23757142Y-1152380D01*
X23376190Y-1152380D01*
X23280952Y-1200000D01*
X23233333Y-1247619D01*
X23185714Y-1342857D01*
X23185714Y-1485714D01*
X23233333Y-1580952D01*
X23280952Y-1628571D01*
X23376190Y-1676190D01*
X23757142Y-1676190D01*
X22566666Y-1152380D02*
X22376190Y-1152380D01*
X22280952Y-1200000D01*
X22185714Y-1295238D01*
X22138095Y-1485714D01*
X22138095Y-1819047D01*
X22185714Y-2009523D01*
X22280952Y-2104761D01*
X22376190Y-2152380D01*
X22566666Y-2152380D01*
X22661904Y-2104761D01*
X22757142Y-2009523D01*
X22804761Y-1819047D01*
X22804761Y-1485714D01*
X22757142Y-1295238D01*
X22661904Y-1200000D01*
X22566666Y-1152380D01*
X21804761Y-1152380D02*
X21566666Y-2152380D01*
X21376190Y-1438095D01*
X21185714Y-2152380D01*
X20947619Y-1152380D01*
X16085714Y-2252380D02*
X16419047Y-1776190D01*
X16657142Y-2252380D02*
X16657142Y-1252380D01*
X16276190Y-1252380D01*
X16180952Y-1300000D01*
X16133333Y-1347619D01*
X16085714Y-1442857D01*
X16085714Y-1585714D01*
X16133333Y-1680952D01*
X16180952Y-1728571D01*
X16276190Y-1776190D01*
X16657142Y-1776190D01*
X15466666Y-1252380D02*
X15276190Y-1252380D01*
X15180952Y-1300000D01*
X15085714Y-1395238D01*
X15038095Y-1585714D01*
X15038095Y-1919047D01*
X15085714Y-2109523D01*
X15180952Y-2204761D01*
X15276190Y-2252380D01*
X15466666Y-2252380D01*
X15561904Y-2204761D01*
X15657142Y-2109523D01*
X15704761Y-1919047D01*
X15704761Y-1585714D01*
X15657142Y-1395238D01*
X15561904Y-1300000D01*
X15466666Y-1252380D01*
X14704761Y-1252380D02*
X14466666Y-2252380D01*
X14276190Y-1538095D01*
X14085714Y-2252380D01*
X13847619Y-1252380D01*
X19257142Y-3080952D02*
X19304761Y-3033333D01*
X19352380Y-2890476D01*
X19352380Y-2795238D01*
X19304761Y-2652380D01*
X19209523Y-2557142D01*
X19114285Y-2509523D01*
X18923809Y-2461904D01*
X18780952Y-2461904D01*
X18590476Y-2509523D01*
X18495238Y-2557142D01*
X18400000Y-2652380D01*
X18352380Y-2795238D01*
X18352380Y-2890476D01*
X18400000Y-3033333D01*
X18447619Y-3080952D01*
X18352380Y-3700000D02*
X18352380Y-3890476D01*
X18400000Y-3985714D01*
X18495238Y-4080952D01*
X18685714Y-4128571D01*
X19019047Y-4128571D01*
X19209523Y-4080952D01*
X19304761Y-3985714D01*
X19352380Y-3890476D01*
X19352380Y-3700000D01*
X19304761Y-3604761D01*
X19209523Y-3509523D01*
X19019047Y-3461904D01*
X18685714Y-3461904D01*
X18495238Y-3509523D01*
X18400000Y-3604761D01*
X18352380Y-3700000D01*
X19352380Y-5033333D02*
X19352380Y-4557142D01*
X18352380Y-4557142D01*
X14300000Y-6447619D02*
X14300000Y-7447619D01*
X14538095Y-7447619D01*
X14680952Y-7400000D01*
X14776190Y-7304761D01*
X14823809Y-7209523D01*
X14871428Y-7019047D01*
X14871428Y-6876190D01*
X14823809Y-6685714D01*
X14776190Y-6590476D01*
X14680952Y-6495238D01*
X14538095Y-6447619D01*
X14300000Y-6447619D01*
X15300000Y-6447619D02*
X15300000Y-7447619D01*
X21314285Y-6447619D02*
X21314285Y-7447619D01*
X21552380Y-7447619D01*
X21695238Y-7400000D01*
X21790476Y-7304761D01*
X21838095Y-7209523D01*
X21885714Y-7019047D01*
X21885714Y-6876190D01*
X21838095Y-6685714D01*
X21790476Y-6590476D01*
X21695238Y-6495238D01*
X21552380Y-6447619D01*
X21314285Y-6447619D01*
X22504761Y-7447619D02*
X22695238Y-7447619D01*
X22790476Y-7400000D01*
X22885714Y-7304761D01*
X22933333Y-7114285D01*
X22933333Y-6780952D01*
X22885714Y-6590476D01*
X22790476Y-6495238D01*
X22695238Y-6447619D01*
X22504761Y-6447619D01*
X22409523Y-6495238D01*
X22314285Y-6590476D01*
X22266666Y-6780952D01*
X22266666Y-7114285D01*
X22314285Y-7304761D01*
X22409523Y-7400000D01*
X22504761Y-7447619D01*
X2314285Y-6447619D02*
X2314285Y-7447619D01*
X2552380Y-7447619D01*
X2695238Y-7400000D01*
X2790476Y-7304761D01*
X2838095Y-7209523D01*
X2885714Y-7019047D01*
X2885714Y-6876190D01*
X2838095Y-6685714D01*
X2790476Y-6590476D01*
X2695238Y-6495238D01*
X2552380Y-6447619D01*
X2314285Y-6447619D01*
X3504761Y-7447619D02*
X3695238Y-7447619D01*
X3790476Y-7400000D01*
X3885714Y-7304761D01*
X3933333Y-7114285D01*
X3933333Y-6780952D01*
X3885714Y-6590476D01*
X3790476Y-6495238D01*
X3695238Y-6447619D01*
X3504761Y-6447619D01*
X3409523Y-6495238D01*
X3314285Y-6590476D01*
X3266666Y-6780952D01*
X3266666Y-7114285D01*
X3314285Y-7304761D01*
X3409523Y-7400000D01*
X3504761Y-7447619D01*
X-4700000Y-6447619D02*
X-4700000Y-7447619D01*
X-4461904Y-7447619D01*
X-4319047Y-7400000D01*
X-4223809Y-7304761D01*
X-4176190Y-7209523D01*
X-4128571Y-7019047D01*
X-4128571Y-6876190D01*
X-4176190Y-6685714D01*
X-4223809Y-6590476D01*
X-4319047Y-6495238D01*
X-4461904Y-6447619D01*
X-4700000Y-6447619D01*
X-3700000Y-6447619D02*
X-3700000Y-7447619D01*
X257142Y-3080952D02*
X304761Y-3033333D01*
X352380Y-2890476D01*
X352380Y-2795238D01*
X304761Y-2652380D01*
X209523Y-2557142D01*
X114285Y-2509523D01*
X-76190Y-2461904D01*
X-219047Y-2461904D01*
X-409523Y-2509523D01*
X-504761Y-2557142D01*
X-600000Y-2652380D01*
X-647619Y-2795238D01*
X-647619Y-2890476D01*
X-600000Y-3033333D01*
X-552380Y-3080952D01*
X-647619Y-3700000D02*
X-647619Y-3890476D01*
X-600000Y-3985714D01*
X-504761Y-4080952D01*
X-314285Y-4128571D01*
X19047Y-4128571D01*
X209523Y-4080952D01*
X304761Y-3985714D01*
X352380Y-3890476D01*
X352380Y-3700000D01*
X304761Y-3604761D01*
X209523Y-3509523D01*
X19047Y-3461904D01*
X-314285Y-3461904D01*
X-504761Y-3509523D01*
X-600000Y-3604761D01*
X-647619Y-3700000D01*
X352380Y-5033333D02*
X352380Y-4557142D01*
X-647619Y-4557142D01*
X-2914285Y-2252380D02*
X-2580952Y-1776190D01*
X-2342857Y-2252380D02*
X-2342857Y-1252380D01*
X-2723809Y-1252380D01*
X-2819047Y-1300000D01*
X-2866666Y-1347619D01*
X-2914285Y-1442857D01*
X-2914285Y-1585714D01*
X-2866666Y-1680952D01*
X-2819047Y-1728571D01*
X-2723809Y-1776190D01*
X-2342857Y-1776190D01*
X-3533333Y-1252380D02*
X-3723809Y-1252380D01*
X-3819047Y-1300000D01*
X-3914285Y-1395238D01*
X-3961904Y-1585714D01*
X-3961904Y-1919047D01*
X-3914285Y-2109523D01*
X-3819047Y-2204761D01*
X-3723809Y-2252380D01*
X-3533333Y-2252380D01*
X-3438095Y-2204761D01*
X-3342857Y-2109523D01*
X-3295238Y-1919047D01*
X-3295238Y-1585714D01*
X-3342857Y-1395238D01*
X-3438095Y-1300000D01*
X-3533333Y-1252380D01*
X-4295238Y-1252380D02*
X-4533333Y-2252380D01*
X-4723809Y-1538095D01*
X-4914285Y-2252380D01*
X-5152380Y-1252380D01*
X4185714Y-2152380D02*
X4519047Y-1676190D01*
X4757142Y-2152380D02*
X4757142Y-1152380D01*
X4376190Y-1152380D01*
X4280952Y-1200000D01*
X4233333Y-1247619D01*
X4185714Y-1342857D01*
X4185714Y-1485714D01*
X4233333Y-1580952D01*
X4280952Y-1628571D01*
X4376190Y-1676190D01*
X4757142Y-1676190D01*
X3566666Y-1152380D02*
X3376190Y-1152380D01*
X3280952Y-1200000D01*
X3185714Y-1295238D01*
X3138095Y-1485714D01*
X3138095Y-1819047D01*
X3185714Y-2009523D01*
X3280952Y-2104761D01*
X3376190Y-2152380D01*
X3566666Y-2152380D01*
X3661904Y-2104761D01*
X3757142Y-2009523D01*
X3804761Y-1819047D01*
X3804761Y-1485714D01*
X3757142Y-1295238D01*
X3661904Y-1200000D01*
X3566666Y-1152380D01*
X2804761Y-1152380D02*
X2566666Y-2152380D01*
X2376190Y-1438095D01*
X2185714Y-2152380D01*
X1947619Y-1152380D01*
X4361904Y3000000D02*
X4457142Y3047619D01*
X4600000Y3047619D01*
X4742857Y3000000D01*
X4838095Y2904761D01*
X4885714Y2809523D01*
X4933333Y2619047D01*
X4933333Y2476190D01*
X4885714Y2285714D01*
X4838095Y2190476D01*
X4742857Y2095238D01*
X4600000Y2047619D01*
X4504761Y2047619D01*
X4361904Y2095238D01*
X4314285Y2142857D01*
X4314285Y2476190D01*
X4504761Y2476190D01*
X3885714Y2047619D02*
X3885714Y3047619D01*
X3314285Y2047619D01*
X3314285Y3047619D01*
X2838095Y2047619D02*
X2838095Y3047619D01*
X2600000Y3047619D01*
X2457142Y3000000D01*
X2361904Y2904761D01*
X2314285Y2809523D01*
X2266666Y2619047D01*
X2266666Y2476190D01*
X2314285Y2285714D01*
X2361904Y2190476D01*
X2457142Y2095238D01*
X2600000Y2047619D01*
X2838095Y2047619D01*
X-142857Y4319047D02*
X-95238Y4366666D01*
X-47619Y4509523D01*
X-47619Y4604761D01*
X-95238Y4747619D01*
X-190476Y4842857D01*
X-285714Y4890476D01*
X-476190Y4938095D01*
X-619047Y4938095D01*
X-809523Y4890476D01*
X-904761Y4842857D01*
X-1000000Y4747619D01*
X-1047619Y4604761D01*
X-1047619Y4509523D01*
X-1000000Y4366666D01*
X-952380Y4319047D01*
X-1047619Y3700000D02*
X-1047619Y3509523D01*
X-1000000Y3414285D01*
X-904761Y3319047D01*
X-714285Y3271428D01*
X-380952Y3271428D01*
X-190476Y3319047D01*
X-95238Y3414285D01*
X-47619Y3509523D01*
X-47619Y3700000D01*
X-95238Y3795238D01*
X-190476Y3890476D01*
X-380952Y3938095D01*
X-714285Y3938095D01*
X-904761Y3890476D01*
X-1000000Y3795238D01*
X-1047619Y3700000D01*
X-47619Y2366666D02*
X-47619Y2842857D01*
X-1047619Y2842857D01*
X-5066666Y3547619D02*
X-5400000Y2547619D01*
X-5733333Y3547619D01*
X-6638095Y2642857D02*
X-6590476Y2595238D01*
X-6447619Y2547619D01*
X-6352380Y2547619D01*
X-6209523Y2595238D01*
X-6114285Y2690476D01*
X-6066666Y2785714D01*
X-6019047Y2976190D01*
X-6019047Y3119047D01*
X-6066666Y3309523D01*
X-6114285Y3404761D01*
X-6209523Y3500000D01*
X-6352380Y3547619D01*
X-6447619Y3547619D01*
X-6590476Y3500000D01*
X-6638095Y3452380D01*
X-7638095Y2642857D02*
X-7590476Y2595238D01*
X-7447619Y2547619D01*
X-7352380Y2547619D01*
X-7209523Y2595238D01*
X-7114285Y2690476D01*
X-7066666Y2785714D01*
X-7019047Y2976190D01*
X-7019047Y3119047D01*
X-7066666Y3309523D01*
X-7114285Y3404761D01*
X-7209523Y3500000D01*
X-7352380Y3547619D01*
X-7447619Y3547619D01*
X-7590476Y3500000D01*
X-7638095Y3452380D01*
M02*
