%TF.GenerationSoftware,KiCad,Pcbnew,(5.1.9-0-10_14)*%
%TF.CreationDate,2021-09-25T06:11:46-07:00*%
%TF.ProjectId,MX-KEY-SWITCH-BOARD,4d582d4b-4559-42d5-9357-495443482d42,rev?*%
%TF.SameCoordinates,Original*%
%TF.FileFunction,Soldermask,Bot*%
%TF.FilePolarity,Negative*%
%FSLAX46Y46*%
G04 Gerber Fmt 4.6, Leading zero omitted, Abs format (unit mm)*
G04 Created by KiCad (PCBNEW (5.1.9-0-10_14)) date 2021-09-25 06:11:46*
%MOMM*%
%LPD*%
G01*
G04 APERTURE LIST*
%ADD10C,0.100000*%
%ADD11C,1.700000*%
%ADD12C,4.000000*%
%ADD13C,2.200000*%
G04 APERTURE END LIST*
D10*
G36*
X52900000Y-33500000D02*
G01*
X52500000Y-33900000D01*
X49200000Y-33950000D01*
X49200000Y-30250000D01*
X52800000Y-30200000D01*
X52900000Y-33500000D01*
G37*
X52900000Y-33500000D02*
X52500000Y-33900000D01*
X49200000Y-33950000D01*
X49200000Y-30250000D01*
X52800000Y-30200000D01*
X52900000Y-33500000D01*
G36*
X64700000Y-34500000D02*
G01*
X61687500Y-34575000D01*
X61312500Y-33900000D01*
X61350000Y-30300000D01*
X64700000Y-30300000D01*
X64700000Y-34500000D01*
G37*
X64700000Y-34500000D02*
X61687500Y-34575000D01*
X61312500Y-33900000D01*
X61350000Y-30300000D01*
X64700000Y-30300000D01*
X64700000Y-34500000D01*
G36*
X58400000Y-31700000D02*
G01*
X58000000Y-32100000D01*
X54500000Y-32100000D01*
X54500000Y-30200000D01*
X58300000Y-30200000D01*
X58400000Y-31700000D01*
G37*
X58400000Y-31700000D02*
X58000000Y-32100000D01*
X54500000Y-32100000D01*
X54500000Y-30200000D01*
X58300000Y-30200000D01*
X58400000Y-31700000D01*
G36*
X64700000Y-39200000D02*
G01*
X64600000Y-40300000D01*
X62450000Y-40300000D01*
X62400000Y-35700000D01*
X64750000Y-35700000D01*
X64700000Y-39200000D01*
G37*
X64700000Y-39200000D02*
X64600000Y-40300000D01*
X62450000Y-40300000D01*
X62400000Y-35700000D01*
X64750000Y-35700000D01*
X64700000Y-39200000D01*
G36*
X51650000Y-45350000D02*
G01*
X51500000Y-45700000D01*
X49400000Y-45750000D01*
X49400000Y-42050000D01*
X51550000Y-42050000D01*
X51650000Y-45350000D01*
G37*
X51650000Y-45350000D02*
X51500000Y-45700000D01*
X49400000Y-45750000D01*
X49400000Y-42050000D01*
X51550000Y-42050000D01*
X51650000Y-45350000D01*
G36*
X58900000Y-43500000D02*
G01*
X58950000Y-45600000D01*
X55250000Y-45600000D01*
X55250000Y-43450000D01*
X58550000Y-43350000D01*
X58900000Y-43500000D01*
G37*
X58900000Y-43500000D02*
X58950000Y-45600000D01*
X55250000Y-45600000D01*
X55250000Y-43450000D01*
X58550000Y-43350000D01*
X58900000Y-43500000D01*
G36*
X64550000Y-45250000D02*
G01*
X64400000Y-45600000D01*
X61200000Y-45650000D01*
X61275000Y-41700000D01*
X64525000Y-41700000D01*
X64550000Y-45250000D01*
G37*
X64550000Y-45250000D02*
X64400000Y-45600000D01*
X61200000Y-45650000D01*
X61275000Y-41700000D01*
X64525000Y-41700000D01*
X64550000Y-45250000D01*
G36*
X51650000Y-39450000D02*
G01*
X51500000Y-39800000D01*
X49400000Y-39850000D01*
X49400000Y-36150000D01*
X51550000Y-36150000D01*
X51650000Y-39450000D01*
G37*
X51650000Y-39450000D02*
X51500000Y-39800000D01*
X49400000Y-39850000D01*
X49400000Y-36150000D01*
X51550000Y-36150000D01*
X51650000Y-39450000D01*
G36*
X33900000Y-33500000D02*
G01*
X33500000Y-33900000D01*
X30200000Y-33950000D01*
X30200000Y-30250000D01*
X33800000Y-30200000D01*
X33900000Y-33500000D01*
G37*
X33900000Y-33500000D02*
X33500000Y-33900000D01*
X30200000Y-33950000D01*
X30200000Y-30250000D01*
X33800000Y-30200000D01*
X33900000Y-33500000D01*
G36*
X45700000Y-34500000D02*
G01*
X42687500Y-34575000D01*
X42312500Y-33900000D01*
X42350000Y-30300000D01*
X45700000Y-30300000D01*
X45700000Y-34500000D01*
G37*
X45700000Y-34500000D02*
X42687500Y-34575000D01*
X42312500Y-33900000D01*
X42350000Y-30300000D01*
X45700000Y-30300000D01*
X45700000Y-34500000D01*
G36*
X39400000Y-31700000D02*
G01*
X39000000Y-32100000D01*
X35500000Y-32100000D01*
X35500000Y-30200000D01*
X39300000Y-30200000D01*
X39400000Y-31700000D01*
G37*
X39400000Y-31700000D02*
X39000000Y-32100000D01*
X35500000Y-32100000D01*
X35500000Y-30200000D01*
X39300000Y-30200000D01*
X39400000Y-31700000D01*
G36*
X45700000Y-39200000D02*
G01*
X45600000Y-40300000D01*
X43450000Y-40300000D01*
X43400000Y-35700000D01*
X45750000Y-35700000D01*
X45700000Y-39200000D01*
G37*
X45700000Y-39200000D02*
X45600000Y-40300000D01*
X43450000Y-40300000D01*
X43400000Y-35700000D01*
X45750000Y-35700000D01*
X45700000Y-39200000D01*
G36*
X32650000Y-45350000D02*
G01*
X32500000Y-45700000D01*
X30400000Y-45750000D01*
X30400000Y-42050000D01*
X32550000Y-42050000D01*
X32650000Y-45350000D01*
G37*
X32650000Y-45350000D02*
X32500000Y-45700000D01*
X30400000Y-45750000D01*
X30400000Y-42050000D01*
X32550000Y-42050000D01*
X32650000Y-45350000D01*
G36*
X39900000Y-43500000D02*
G01*
X39950000Y-45600000D01*
X36250000Y-45600000D01*
X36250000Y-43450000D01*
X39550000Y-43350000D01*
X39900000Y-43500000D01*
G37*
X39900000Y-43500000D02*
X39950000Y-45600000D01*
X36250000Y-45600000D01*
X36250000Y-43450000D01*
X39550000Y-43350000D01*
X39900000Y-43500000D01*
G36*
X45550000Y-45250000D02*
G01*
X45400000Y-45600000D01*
X42200000Y-45650000D01*
X42275000Y-41700000D01*
X45525000Y-41700000D01*
X45550000Y-45250000D01*
G37*
X45550000Y-45250000D02*
X45400000Y-45600000D01*
X42200000Y-45650000D01*
X42275000Y-41700000D01*
X45525000Y-41700000D01*
X45550000Y-45250000D01*
G36*
X32650000Y-39450000D02*
G01*
X32500000Y-39800000D01*
X30400000Y-39850000D01*
X30400000Y-36150000D01*
X32550000Y-36150000D01*
X32650000Y-39450000D01*
G37*
X32650000Y-39450000D02*
X32500000Y-39800000D01*
X30400000Y-39850000D01*
X30400000Y-36150000D01*
X32550000Y-36150000D01*
X32650000Y-39450000D01*
G36*
X14900000Y-33500000D02*
G01*
X14500000Y-33900000D01*
X11200000Y-33950000D01*
X11200000Y-30250000D01*
X14800000Y-30200000D01*
X14900000Y-33500000D01*
G37*
X14900000Y-33500000D02*
X14500000Y-33900000D01*
X11200000Y-33950000D01*
X11200000Y-30250000D01*
X14800000Y-30200000D01*
X14900000Y-33500000D01*
G36*
X26700000Y-34500000D02*
G01*
X23687500Y-34575000D01*
X23312500Y-33900000D01*
X23350000Y-30300000D01*
X26700000Y-30300000D01*
X26700000Y-34500000D01*
G37*
X26700000Y-34500000D02*
X23687500Y-34575000D01*
X23312500Y-33900000D01*
X23350000Y-30300000D01*
X26700000Y-30300000D01*
X26700000Y-34500000D01*
G36*
X20400000Y-31700000D02*
G01*
X20000000Y-32100000D01*
X16500000Y-32100000D01*
X16500000Y-30200000D01*
X20300000Y-30200000D01*
X20400000Y-31700000D01*
G37*
X20400000Y-31700000D02*
X20000000Y-32100000D01*
X16500000Y-32100000D01*
X16500000Y-30200000D01*
X20300000Y-30200000D01*
X20400000Y-31700000D01*
G36*
X26700000Y-39200000D02*
G01*
X26600000Y-40300000D01*
X24450000Y-40300000D01*
X24400000Y-35700000D01*
X26750000Y-35700000D01*
X26700000Y-39200000D01*
G37*
X26700000Y-39200000D02*
X26600000Y-40300000D01*
X24450000Y-40300000D01*
X24400000Y-35700000D01*
X26750000Y-35700000D01*
X26700000Y-39200000D01*
G36*
X13650000Y-45350000D02*
G01*
X13500000Y-45700000D01*
X11400000Y-45750000D01*
X11400000Y-42050000D01*
X13550000Y-42050000D01*
X13650000Y-45350000D01*
G37*
X13650000Y-45350000D02*
X13500000Y-45700000D01*
X11400000Y-45750000D01*
X11400000Y-42050000D01*
X13550000Y-42050000D01*
X13650000Y-45350000D01*
G36*
X20900000Y-43500000D02*
G01*
X20950000Y-45600000D01*
X17250000Y-45600000D01*
X17250000Y-43450000D01*
X20550000Y-43350000D01*
X20900000Y-43500000D01*
G37*
X20900000Y-43500000D02*
X20950000Y-45600000D01*
X17250000Y-45600000D01*
X17250000Y-43450000D01*
X20550000Y-43350000D01*
X20900000Y-43500000D01*
G36*
X26550000Y-45250000D02*
G01*
X26400000Y-45600000D01*
X23200000Y-45650000D01*
X23275000Y-41700000D01*
X26525000Y-41700000D01*
X26550000Y-45250000D01*
G37*
X26550000Y-45250000D02*
X26400000Y-45600000D01*
X23200000Y-45650000D01*
X23275000Y-41700000D01*
X26525000Y-41700000D01*
X26550000Y-45250000D01*
G36*
X13650000Y-39450000D02*
G01*
X13500000Y-39800000D01*
X11400000Y-39850000D01*
X11400000Y-36150000D01*
X13550000Y-36150000D01*
X13650000Y-39450000D01*
G37*
X13650000Y-39450000D02*
X13500000Y-39800000D01*
X11400000Y-39850000D01*
X11400000Y-36150000D01*
X13550000Y-36150000D01*
X13650000Y-39450000D01*
G36*
X-4100000Y-33500000D02*
G01*
X-4500000Y-33900000D01*
X-7800000Y-33950000D01*
X-7800000Y-30250000D01*
X-4200000Y-30200000D01*
X-4100000Y-33500000D01*
G37*
X-4100000Y-33500000D02*
X-4500000Y-33900000D01*
X-7800000Y-33950000D01*
X-7800000Y-30250000D01*
X-4200000Y-30200000D01*
X-4100000Y-33500000D01*
G36*
X7700000Y-34500000D02*
G01*
X4687500Y-34575000D01*
X4312500Y-33900000D01*
X4350000Y-30300000D01*
X7700000Y-30300000D01*
X7700000Y-34500000D01*
G37*
X7700000Y-34500000D02*
X4687500Y-34575000D01*
X4312500Y-33900000D01*
X4350000Y-30300000D01*
X7700000Y-30300000D01*
X7700000Y-34500000D01*
G36*
X1400000Y-31700000D02*
G01*
X1000000Y-32100000D01*
X-2500000Y-32100000D01*
X-2500000Y-30200000D01*
X1300000Y-30200000D01*
X1400000Y-31700000D01*
G37*
X1400000Y-31700000D02*
X1000000Y-32100000D01*
X-2500000Y-32100000D01*
X-2500000Y-30200000D01*
X1300000Y-30200000D01*
X1400000Y-31700000D01*
G36*
X7700000Y-39200000D02*
G01*
X7600000Y-40300000D01*
X5450000Y-40300000D01*
X5400000Y-35700000D01*
X7750000Y-35700000D01*
X7700000Y-39200000D01*
G37*
X7700000Y-39200000D02*
X7600000Y-40300000D01*
X5450000Y-40300000D01*
X5400000Y-35700000D01*
X7750000Y-35700000D01*
X7700000Y-39200000D01*
G36*
X-5350000Y-45350000D02*
G01*
X-5500000Y-45700000D01*
X-7600000Y-45750000D01*
X-7600000Y-42050000D01*
X-5450000Y-42050000D01*
X-5350000Y-45350000D01*
G37*
X-5350000Y-45350000D02*
X-5500000Y-45700000D01*
X-7600000Y-45750000D01*
X-7600000Y-42050000D01*
X-5450000Y-42050000D01*
X-5350000Y-45350000D01*
G36*
X1900000Y-43500000D02*
G01*
X1950000Y-45600000D01*
X-1750000Y-45600000D01*
X-1750000Y-43450000D01*
X1550000Y-43350000D01*
X1900000Y-43500000D01*
G37*
X1900000Y-43500000D02*
X1950000Y-45600000D01*
X-1750000Y-45600000D01*
X-1750000Y-43450000D01*
X1550000Y-43350000D01*
X1900000Y-43500000D01*
G36*
X7550000Y-45250000D02*
G01*
X7400000Y-45600000D01*
X4200000Y-45650000D01*
X4275000Y-41700000D01*
X7525000Y-41700000D01*
X7550000Y-45250000D01*
G37*
X7550000Y-45250000D02*
X7400000Y-45600000D01*
X4200000Y-45650000D01*
X4275000Y-41700000D01*
X7525000Y-41700000D01*
X7550000Y-45250000D01*
G36*
X-5350000Y-39450000D02*
G01*
X-5500000Y-39800000D01*
X-7600000Y-39850000D01*
X-7600000Y-36150000D01*
X-5450000Y-36150000D01*
X-5350000Y-39450000D01*
G37*
X-5350000Y-39450000D02*
X-5500000Y-39800000D01*
X-7600000Y-39850000D01*
X-7600000Y-36150000D01*
X-5450000Y-36150000D01*
X-5350000Y-39450000D01*
G36*
X52900000Y-14500000D02*
G01*
X52500000Y-14900000D01*
X49200000Y-14950000D01*
X49200000Y-11250000D01*
X52800000Y-11200000D01*
X52900000Y-14500000D01*
G37*
X52900000Y-14500000D02*
X52500000Y-14900000D01*
X49200000Y-14950000D01*
X49200000Y-11250000D01*
X52800000Y-11200000D01*
X52900000Y-14500000D01*
G36*
X64700000Y-15500000D02*
G01*
X61687500Y-15575000D01*
X61312500Y-14900000D01*
X61350000Y-11300000D01*
X64700000Y-11300000D01*
X64700000Y-15500000D01*
G37*
X64700000Y-15500000D02*
X61687500Y-15575000D01*
X61312500Y-14900000D01*
X61350000Y-11300000D01*
X64700000Y-11300000D01*
X64700000Y-15500000D01*
G36*
X58400000Y-12700000D02*
G01*
X58000000Y-13100000D01*
X54500000Y-13100000D01*
X54500000Y-11200000D01*
X58300000Y-11200000D01*
X58400000Y-12700000D01*
G37*
X58400000Y-12700000D02*
X58000000Y-13100000D01*
X54500000Y-13100000D01*
X54500000Y-11200000D01*
X58300000Y-11200000D01*
X58400000Y-12700000D01*
G36*
X64700000Y-20200000D02*
G01*
X64600000Y-21300000D01*
X62450000Y-21300000D01*
X62400000Y-16700000D01*
X64750000Y-16700000D01*
X64700000Y-20200000D01*
G37*
X64700000Y-20200000D02*
X64600000Y-21300000D01*
X62450000Y-21300000D01*
X62400000Y-16700000D01*
X64750000Y-16700000D01*
X64700000Y-20200000D01*
G36*
X51650000Y-26350000D02*
G01*
X51500000Y-26700000D01*
X49400000Y-26750000D01*
X49400000Y-23050000D01*
X51550000Y-23050000D01*
X51650000Y-26350000D01*
G37*
X51650000Y-26350000D02*
X51500000Y-26700000D01*
X49400000Y-26750000D01*
X49400000Y-23050000D01*
X51550000Y-23050000D01*
X51650000Y-26350000D01*
G36*
X58900000Y-24500000D02*
G01*
X58950000Y-26600000D01*
X55250000Y-26600000D01*
X55250000Y-24450000D01*
X58550000Y-24350000D01*
X58900000Y-24500000D01*
G37*
X58900000Y-24500000D02*
X58950000Y-26600000D01*
X55250000Y-26600000D01*
X55250000Y-24450000D01*
X58550000Y-24350000D01*
X58900000Y-24500000D01*
G36*
X64550000Y-26250000D02*
G01*
X64400000Y-26600000D01*
X61200000Y-26650000D01*
X61275000Y-22700000D01*
X64525000Y-22700000D01*
X64550000Y-26250000D01*
G37*
X64550000Y-26250000D02*
X64400000Y-26600000D01*
X61200000Y-26650000D01*
X61275000Y-22700000D01*
X64525000Y-22700000D01*
X64550000Y-26250000D01*
G36*
X51650000Y-20450000D02*
G01*
X51500000Y-20800000D01*
X49400000Y-20850000D01*
X49400000Y-17150000D01*
X51550000Y-17150000D01*
X51650000Y-20450000D01*
G37*
X51650000Y-20450000D02*
X51500000Y-20800000D01*
X49400000Y-20850000D01*
X49400000Y-17150000D01*
X51550000Y-17150000D01*
X51650000Y-20450000D01*
G36*
X33900000Y-14500000D02*
G01*
X33500000Y-14900000D01*
X30200000Y-14950000D01*
X30200000Y-11250000D01*
X33800000Y-11200000D01*
X33900000Y-14500000D01*
G37*
X33900000Y-14500000D02*
X33500000Y-14900000D01*
X30200000Y-14950000D01*
X30200000Y-11250000D01*
X33800000Y-11200000D01*
X33900000Y-14500000D01*
G36*
X45700000Y-15500000D02*
G01*
X42687500Y-15575000D01*
X42312500Y-14900000D01*
X42350000Y-11300000D01*
X45700000Y-11300000D01*
X45700000Y-15500000D01*
G37*
X45700000Y-15500000D02*
X42687500Y-15575000D01*
X42312500Y-14900000D01*
X42350000Y-11300000D01*
X45700000Y-11300000D01*
X45700000Y-15500000D01*
G36*
X39400000Y-12700000D02*
G01*
X39000000Y-13100000D01*
X35500000Y-13100000D01*
X35500000Y-11200000D01*
X39300000Y-11200000D01*
X39400000Y-12700000D01*
G37*
X39400000Y-12700000D02*
X39000000Y-13100000D01*
X35500000Y-13100000D01*
X35500000Y-11200000D01*
X39300000Y-11200000D01*
X39400000Y-12700000D01*
G36*
X45700000Y-20200000D02*
G01*
X45600000Y-21300000D01*
X43450000Y-21300000D01*
X43400000Y-16700000D01*
X45750000Y-16700000D01*
X45700000Y-20200000D01*
G37*
X45700000Y-20200000D02*
X45600000Y-21300000D01*
X43450000Y-21300000D01*
X43400000Y-16700000D01*
X45750000Y-16700000D01*
X45700000Y-20200000D01*
G36*
X32650000Y-26350000D02*
G01*
X32500000Y-26700000D01*
X30400000Y-26750000D01*
X30400000Y-23050000D01*
X32550000Y-23050000D01*
X32650000Y-26350000D01*
G37*
X32650000Y-26350000D02*
X32500000Y-26700000D01*
X30400000Y-26750000D01*
X30400000Y-23050000D01*
X32550000Y-23050000D01*
X32650000Y-26350000D01*
G36*
X39900000Y-24500000D02*
G01*
X39950000Y-26600000D01*
X36250000Y-26600000D01*
X36250000Y-24450000D01*
X39550000Y-24350000D01*
X39900000Y-24500000D01*
G37*
X39900000Y-24500000D02*
X39950000Y-26600000D01*
X36250000Y-26600000D01*
X36250000Y-24450000D01*
X39550000Y-24350000D01*
X39900000Y-24500000D01*
G36*
X45550000Y-26250000D02*
G01*
X45400000Y-26600000D01*
X42200000Y-26650000D01*
X42275000Y-22700000D01*
X45525000Y-22700000D01*
X45550000Y-26250000D01*
G37*
X45550000Y-26250000D02*
X45400000Y-26600000D01*
X42200000Y-26650000D01*
X42275000Y-22700000D01*
X45525000Y-22700000D01*
X45550000Y-26250000D01*
G36*
X32650000Y-20450000D02*
G01*
X32500000Y-20800000D01*
X30400000Y-20850000D01*
X30400000Y-17150000D01*
X32550000Y-17150000D01*
X32650000Y-20450000D01*
G37*
X32650000Y-20450000D02*
X32500000Y-20800000D01*
X30400000Y-20850000D01*
X30400000Y-17150000D01*
X32550000Y-17150000D01*
X32650000Y-20450000D01*
G36*
X14900000Y-14500000D02*
G01*
X14500000Y-14900000D01*
X11200000Y-14950000D01*
X11200000Y-11250000D01*
X14800000Y-11200000D01*
X14900000Y-14500000D01*
G37*
X14900000Y-14500000D02*
X14500000Y-14900000D01*
X11200000Y-14950000D01*
X11200000Y-11250000D01*
X14800000Y-11200000D01*
X14900000Y-14500000D01*
G36*
X26700000Y-15500000D02*
G01*
X23687500Y-15575000D01*
X23312500Y-14900000D01*
X23350000Y-11300000D01*
X26700000Y-11300000D01*
X26700000Y-15500000D01*
G37*
X26700000Y-15500000D02*
X23687500Y-15575000D01*
X23312500Y-14900000D01*
X23350000Y-11300000D01*
X26700000Y-11300000D01*
X26700000Y-15500000D01*
G36*
X20400000Y-12700000D02*
G01*
X20000000Y-13100000D01*
X16500000Y-13100000D01*
X16500000Y-11200000D01*
X20300000Y-11200000D01*
X20400000Y-12700000D01*
G37*
X20400000Y-12700000D02*
X20000000Y-13100000D01*
X16500000Y-13100000D01*
X16500000Y-11200000D01*
X20300000Y-11200000D01*
X20400000Y-12700000D01*
G36*
X26700000Y-20200000D02*
G01*
X26600000Y-21300000D01*
X24450000Y-21300000D01*
X24400000Y-16700000D01*
X26750000Y-16700000D01*
X26700000Y-20200000D01*
G37*
X26700000Y-20200000D02*
X26600000Y-21300000D01*
X24450000Y-21300000D01*
X24400000Y-16700000D01*
X26750000Y-16700000D01*
X26700000Y-20200000D01*
G36*
X13650000Y-26350000D02*
G01*
X13500000Y-26700000D01*
X11400000Y-26750000D01*
X11400000Y-23050000D01*
X13550000Y-23050000D01*
X13650000Y-26350000D01*
G37*
X13650000Y-26350000D02*
X13500000Y-26700000D01*
X11400000Y-26750000D01*
X11400000Y-23050000D01*
X13550000Y-23050000D01*
X13650000Y-26350000D01*
G36*
X20900000Y-24500000D02*
G01*
X20950000Y-26600000D01*
X17250000Y-26600000D01*
X17250000Y-24450000D01*
X20550000Y-24350000D01*
X20900000Y-24500000D01*
G37*
X20900000Y-24500000D02*
X20950000Y-26600000D01*
X17250000Y-26600000D01*
X17250000Y-24450000D01*
X20550000Y-24350000D01*
X20900000Y-24500000D01*
G36*
X26550000Y-26250000D02*
G01*
X26400000Y-26600000D01*
X23200000Y-26650000D01*
X23275000Y-22700000D01*
X26525000Y-22700000D01*
X26550000Y-26250000D01*
G37*
X26550000Y-26250000D02*
X26400000Y-26600000D01*
X23200000Y-26650000D01*
X23275000Y-22700000D01*
X26525000Y-22700000D01*
X26550000Y-26250000D01*
G36*
X13650000Y-20450000D02*
G01*
X13500000Y-20800000D01*
X11400000Y-20850000D01*
X11400000Y-17150000D01*
X13550000Y-17150000D01*
X13650000Y-20450000D01*
G37*
X13650000Y-20450000D02*
X13500000Y-20800000D01*
X11400000Y-20850000D01*
X11400000Y-17150000D01*
X13550000Y-17150000D01*
X13650000Y-20450000D01*
G36*
X-4100000Y-14500000D02*
G01*
X-4500000Y-14900000D01*
X-7800000Y-14950000D01*
X-7800000Y-11250000D01*
X-4200000Y-11200000D01*
X-4100000Y-14500000D01*
G37*
X-4100000Y-14500000D02*
X-4500000Y-14900000D01*
X-7800000Y-14950000D01*
X-7800000Y-11250000D01*
X-4200000Y-11200000D01*
X-4100000Y-14500000D01*
G36*
X7700000Y-15500000D02*
G01*
X4687500Y-15575000D01*
X4312500Y-14900000D01*
X4350000Y-11300000D01*
X7700000Y-11300000D01*
X7700000Y-15500000D01*
G37*
X7700000Y-15500000D02*
X4687500Y-15575000D01*
X4312500Y-14900000D01*
X4350000Y-11300000D01*
X7700000Y-11300000D01*
X7700000Y-15500000D01*
G36*
X1400000Y-12700000D02*
G01*
X1000000Y-13100000D01*
X-2500000Y-13100000D01*
X-2500000Y-11200000D01*
X1300000Y-11200000D01*
X1400000Y-12700000D01*
G37*
X1400000Y-12700000D02*
X1000000Y-13100000D01*
X-2500000Y-13100000D01*
X-2500000Y-11200000D01*
X1300000Y-11200000D01*
X1400000Y-12700000D01*
G36*
X7700000Y-20200000D02*
G01*
X7600000Y-21300000D01*
X5450000Y-21300000D01*
X5400000Y-16700000D01*
X7750000Y-16700000D01*
X7700000Y-20200000D01*
G37*
X7700000Y-20200000D02*
X7600000Y-21300000D01*
X5450000Y-21300000D01*
X5400000Y-16700000D01*
X7750000Y-16700000D01*
X7700000Y-20200000D01*
G36*
X-5350000Y-26350000D02*
G01*
X-5500000Y-26700000D01*
X-7600000Y-26750000D01*
X-7600000Y-23050000D01*
X-5450000Y-23050000D01*
X-5350000Y-26350000D01*
G37*
X-5350000Y-26350000D02*
X-5500000Y-26700000D01*
X-7600000Y-26750000D01*
X-7600000Y-23050000D01*
X-5450000Y-23050000D01*
X-5350000Y-26350000D01*
G36*
X1900000Y-24500000D02*
G01*
X1950000Y-26600000D01*
X-1750000Y-26600000D01*
X-1750000Y-24450000D01*
X1550000Y-24350000D01*
X1900000Y-24500000D01*
G37*
X1900000Y-24500000D02*
X1950000Y-26600000D01*
X-1750000Y-26600000D01*
X-1750000Y-24450000D01*
X1550000Y-24350000D01*
X1900000Y-24500000D01*
G36*
X7550000Y-26250000D02*
G01*
X7400000Y-26600000D01*
X4200000Y-26650000D01*
X4275000Y-22700000D01*
X7525000Y-22700000D01*
X7550000Y-26250000D01*
G37*
X7550000Y-26250000D02*
X7400000Y-26600000D01*
X4200000Y-26650000D01*
X4275000Y-22700000D01*
X7525000Y-22700000D01*
X7550000Y-26250000D01*
G36*
X-5350000Y-20450000D02*
G01*
X-5500000Y-20800000D01*
X-7600000Y-20850000D01*
X-7600000Y-17150000D01*
X-5450000Y-17150000D01*
X-5350000Y-20450000D01*
G37*
X-5350000Y-20450000D02*
X-5500000Y-20800000D01*
X-7600000Y-20850000D01*
X-7600000Y-17150000D01*
X-5450000Y-17150000D01*
X-5350000Y-20450000D01*
G36*
X52900000Y4500000D02*
G01*
X52500000Y4100000D01*
X49200000Y4050000D01*
X49200000Y7750000D01*
X52800000Y7800000D01*
X52900000Y4500000D01*
G37*
X52900000Y4500000D02*
X52500000Y4100000D01*
X49200000Y4050000D01*
X49200000Y7750000D01*
X52800000Y7800000D01*
X52900000Y4500000D01*
G36*
X64700000Y3500000D02*
G01*
X61687500Y3425000D01*
X61312500Y4100000D01*
X61350000Y7700000D01*
X64700000Y7700000D01*
X64700000Y3500000D01*
G37*
X64700000Y3500000D02*
X61687500Y3425000D01*
X61312500Y4100000D01*
X61350000Y7700000D01*
X64700000Y7700000D01*
X64700000Y3500000D01*
G36*
X58400000Y6300000D02*
G01*
X58000000Y5900000D01*
X54500000Y5900000D01*
X54500000Y7800000D01*
X58300000Y7800000D01*
X58400000Y6300000D01*
G37*
X58400000Y6300000D02*
X58000000Y5900000D01*
X54500000Y5900000D01*
X54500000Y7800000D01*
X58300000Y7800000D01*
X58400000Y6300000D01*
G36*
X64700000Y-1200000D02*
G01*
X64600000Y-2300000D01*
X62450000Y-2300000D01*
X62400000Y2300000D01*
X64750000Y2300000D01*
X64700000Y-1200000D01*
G37*
X64700000Y-1200000D02*
X64600000Y-2300000D01*
X62450000Y-2300000D01*
X62400000Y2300000D01*
X64750000Y2300000D01*
X64700000Y-1200000D01*
G36*
X51650000Y-7350000D02*
G01*
X51500000Y-7700000D01*
X49400000Y-7750000D01*
X49400000Y-4050000D01*
X51550000Y-4050000D01*
X51650000Y-7350000D01*
G37*
X51650000Y-7350000D02*
X51500000Y-7700000D01*
X49400000Y-7750000D01*
X49400000Y-4050000D01*
X51550000Y-4050000D01*
X51650000Y-7350000D01*
G36*
X58900000Y-5500000D02*
G01*
X58950000Y-7600000D01*
X55250000Y-7600000D01*
X55250000Y-5450000D01*
X58550000Y-5350000D01*
X58900000Y-5500000D01*
G37*
X58900000Y-5500000D02*
X58950000Y-7600000D01*
X55250000Y-7600000D01*
X55250000Y-5450000D01*
X58550000Y-5350000D01*
X58900000Y-5500000D01*
G36*
X64550000Y-7250000D02*
G01*
X64400000Y-7600000D01*
X61200000Y-7650000D01*
X61275000Y-3700000D01*
X64525000Y-3700000D01*
X64550000Y-7250000D01*
G37*
X64550000Y-7250000D02*
X64400000Y-7600000D01*
X61200000Y-7650000D01*
X61275000Y-3700000D01*
X64525000Y-3700000D01*
X64550000Y-7250000D01*
G36*
X51650000Y-1450000D02*
G01*
X51500000Y-1800000D01*
X49400000Y-1850000D01*
X49400000Y1850000D01*
X51550000Y1850000D01*
X51650000Y-1450000D01*
G37*
X51650000Y-1450000D02*
X51500000Y-1800000D01*
X49400000Y-1850000D01*
X49400000Y1850000D01*
X51550000Y1850000D01*
X51650000Y-1450000D01*
G36*
X33900000Y4500000D02*
G01*
X33500000Y4100000D01*
X30200000Y4050000D01*
X30200000Y7750000D01*
X33800000Y7800000D01*
X33900000Y4500000D01*
G37*
X33900000Y4500000D02*
X33500000Y4100000D01*
X30200000Y4050000D01*
X30200000Y7750000D01*
X33800000Y7800000D01*
X33900000Y4500000D01*
G36*
X45700000Y3500000D02*
G01*
X42687500Y3425000D01*
X42312500Y4100000D01*
X42350000Y7700000D01*
X45700000Y7700000D01*
X45700000Y3500000D01*
G37*
X45700000Y3500000D02*
X42687500Y3425000D01*
X42312500Y4100000D01*
X42350000Y7700000D01*
X45700000Y7700000D01*
X45700000Y3500000D01*
G36*
X39400000Y6300000D02*
G01*
X39000000Y5900000D01*
X35500000Y5900000D01*
X35500000Y7800000D01*
X39300000Y7800000D01*
X39400000Y6300000D01*
G37*
X39400000Y6300000D02*
X39000000Y5900000D01*
X35500000Y5900000D01*
X35500000Y7800000D01*
X39300000Y7800000D01*
X39400000Y6300000D01*
G36*
X45700000Y-1200000D02*
G01*
X45600000Y-2300000D01*
X43450000Y-2300000D01*
X43400000Y2300000D01*
X45750000Y2300000D01*
X45700000Y-1200000D01*
G37*
X45700000Y-1200000D02*
X45600000Y-2300000D01*
X43450000Y-2300000D01*
X43400000Y2300000D01*
X45750000Y2300000D01*
X45700000Y-1200000D01*
G36*
X32650000Y-7350000D02*
G01*
X32500000Y-7700000D01*
X30400000Y-7750000D01*
X30400000Y-4050000D01*
X32550000Y-4050000D01*
X32650000Y-7350000D01*
G37*
X32650000Y-7350000D02*
X32500000Y-7700000D01*
X30400000Y-7750000D01*
X30400000Y-4050000D01*
X32550000Y-4050000D01*
X32650000Y-7350000D01*
G36*
X39900000Y-5500000D02*
G01*
X39950000Y-7600000D01*
X36250000Y-7600000D01*
X36250000Y-5450000D01*
X39550000Y-5350000D01*
X39900000Y-5500000D01*
G37*
X39900000Y-5500000D02*
X39950000Y-7600000D01*
X36250000Y-7600000D01*
X36250000Y-5450000D01*
X39550000Y-5350000D01*
X39900000Y-5500000D01*
G36*
X45550000Y-7250000D02*
G01*
X45400000Y-7600000D01*
X42200000Y-7650000D01*
X42275000Y-3700000D01*
X45525000Y-3700000D01*
X45550000Y-7250000D01*
G37*
X45550000Y-7250000D02*
X45400000Y-7600000D01*
X42200000Y-7650000D01*
X42275000Y-3700000D01*
X45525000Y-3700000D01*
X45550000Y-7250000D01*
G36*
X32650000Y-1450000D02*
G01*
X32500000Y-1800000D01*
X30400000Y-1850000D01*
X30400000Y1850000D01*
X32550000Y1850000D01*
X32650000Y-1450000D01*
G37*
X32650000Y-1450000D02*
X32500000Y-1800000D01*
X30400000Y-1850000D01*
X30400000Y1850000D01*
X32550000Y1850000D01*
X32650000Y-1450000D01*
G36*
X14900000Y4500000D02*
G01*
X14500000Y4100000D01*
X11200000Y4050000D01*
X11200000Y7750000D01*
X14800000Y7800000D01*
X14900000Y4500000D01*
G37*
X14900000Y4500000D02*
X14500000Y4100000D01*
X11200000Y4050000D01*
X11200000Y7750000D01*
X14800000Y7800000D01*
X14900000Y4500000D01*
G36*
X26700000Y3500000D02*
G01*
X23687500Y3425000D01*
X23312500Y4100000D01*
X23350000Y7700000D01*
X26700000Y7700000D01*
X26700000Y3500000D01*
G37*
X26700000Y3500000D02*
X23687500Y3425000D01*
X23312500Y4100000D01*
X23350000Y7700000D01*
X26700000Y7700000D01*
X26700000Y3500000D01*
G36*
X20400000Y6300000D02*
G01*
X20000000Y5900000D01*
X16500000Y5900000D01*
X16500000Y7800000D01*
X20300000Y7800000D01*
X20400000Y6300000D01*
G37*
X20400000Y6300000D02*
X20000000Y5900000D01*
X16500000Y5900000D01*
X16500000Y7800000D01*
X20300000Y7800000D01*
X20400000Y6300000D01*
G36*
X26700000Y-1200000D02*
G01*
X26600000Y-2300000D01*
X24450000Y-2300000D01*
X24400000Y2300000D01*
X26750000Y2300000D01*
X26700000Y-1200000D01*
G37*
X26700000Y-1200000D02*
X26600000Y-2300000D01*
X24450000Y-2300000D01*
X24400000Y2300000D01*
X26750000Y2300000D01*
X26700000Y-1200000D01*
G36*
X13650000Y-7350000D02*
G01*
X13500000Y-7700000D01*
X11400000Y-7750000D01*
X11400000Y-4050000D01*
X13550000Y-4050000D01*
X13650000Y-7350000D01*
G37*
X13650000Y-7350000D02*
X13500000Y-7700000D01*
X11400000Y-7750000D01*
X11400000Y-4050000D01*
X13550000Y-4050000D01*
X13650000Y-7350000D01*
G36*
X20900000Y-5500000D02*
G01*
X20950000Y-7600000D01*
X17250000Y-7600000D01*
X17250000Y-5450000D01*
X20550000Y-5350000D01*
X20900000Y-5500000D01*
G37*
X20900000Y-5500000D02*
X20950000Y-7600000D01*
X17250000Y-7600000D01*
X17250000Y-5450000D01*
X20550000Y-5350000D01*
X20900000Y-5500000D01*
G36*
X26550000Y-7250000D02*
G01*
X26400000Y-7600000D01*
X23200000Y-7650000D01*
X23275000Y-3700000D01*
X26525000Y-3700000D01*
X26550000Y-7250000D01*
G37*
X26550000Y-7250000D02*
X26400000Y-7600000D01*
X23200000Y-7650000D01*
X23275000Y-3700000D01*
X26525000Y-3700000D01*
X26550000Y-7250000D01*
G36*
X13650000Y-1450000D02*
G01*
X13500000Y-1800000D01*
X11400000Y-1850000D01*
X11400000Y1850000D01*
X13550000Y1850000D01*
X13650000Y-1450000D01*
G37*
X13650000Y-1450000D02*
X13500000Y-1800000D01*
X11400000Y-1850000D01*
X11400000Y1850000D01*
X13550000Y1850000D01*
X13650000Y-1450000D01*
G36*
X-5350000Y-1450000D02*
G01*
X-5500000Y-1800000D01*
X-7600000Y-1850000D01*
X-7600000Y1850000D01*
X-5450000Y1850000D01*
X-5350000Y-1450000D01*
G37*
X-5350000Y-1450000D02*
X-5500000Y-1800000D01*
X-7600000Y-1850000D01*
X-7600000Y1850000D01*
X-5450000Y1850000D01*
X-5350000Y-1450000D01*
G36*
X7550000Y-7250000D02*
G01*
X7400000Y-7600000D01*
X4200000Y-7650000D01*
X4275000Y-3700000D01*
X7525000Y-3700000D01*
X7550000Y-7250000D01*
G37*
X7550000Y-7250000D02*
X7400000Y-7600000D01*
X4200000Y-7650000D01*
X4275000Y-3700000D01*
X7525000Y-3700000D01*
X7550000Y-7250000D01*
G36*
X1900000Y-5500000D02*
G01*
X1950000Y-7600000D01*
X-1750000Y-7600000D01*
X-1750000Y-5450000D01*
X1550000Y-5350000D01*
X1900000Y-5500000D01*
G37*
X1900000Y-5500000D02*
X1950000Y-7600000D01*
X-1750000Y-7600000D01*
X-1750000Y-5450000D01*
X1550000Y-5350000D01*
X1900000Y-5500000D01*
G36*
X-5350000Y-7350000D02*
G01*
X-5500000Y-7700000D01*
X-7600000Y-7750000D01*
X-7600000Y-4050000D01*
X-5450000Y-4050000D01*
X-5350000Y-7350000D01*
G37*
X-5350000Y-7350000D02*
X-5500000Y-7700000D01*
X-7600000Y-7750000D01*
X-7600000Y-4050000D01*
X-5450000Y-4050000D01*
X-5350000Y-7350000D01*
G36*
X7700000Y-1200000D02*
G01*
X7600000Y-2300000D01*
X5450000Y-2300000D01*
X5400000Y2300000D01*
X7750000Y2300000D01*
X7700000Y-1200000D01*
G37*
X7700000Y-1200000D02*
X7600000Y-2300000D01*
X5450000Y-2300000D01*
X5400000Y2300000D01*
X7750000Y2300000D01*
X7700000Y-1200000D01*
G36*
X1400000Y6300000D02*
G01*
X1000000Y5900000D01*
X-2500000Y5900000D01*
X-2500000Y7800000D01*
X1300000Y7800000D01*
X1400000Y6300000D01*
G37*
X1400000Y6300000D02*
X1000000Y5900000D01*
X-2500000Y5900000D01*
X-2500000Y7800000D01*
X1300000Y7800000D01*
X1400000Y6300000D01*
G36*
X7700000Y3500000D02*
G01*
X4687500Y3425000D01*
X4312500Y4100000D01*
X4350000Y7700000D01*
X7700000Y7700000D01*
X7700000Y3500000D01*
G37*
X7700000Y3500000D02*
X4687500Y3425000D01*
X4312500Y4100000D01*
X4350000Y7700000D01*
X7700000Y7700000D01*
X7700000Y3500000D01*
G36*
X-4100000Y4500000D02*
G01*
X-4500000Y4100000D01*
X-7800000Y4050000D01*
X-7800000Y7750000D01*
X-4200000Y7800000D01*
X-4100000Y4500000D01*
G37*
X-4100000Y4500000D02*
X-4500000Y4100000D01*
X-7800000Y4050000D01*
X-7800000Y7750000D01*
X-4200000Y7800000D01*
X-4100000Y4500000D01*
D11*
%TO.C,SW12*%
X62140000Y-37980000D03*
X51980000Y-37980000D03*
D12*
X57060000Y-37980000D03*
D13*
X53250000Y-35440000D03*
X59600000Y-32900000D03*
%TD*%
D11*
%TO.C,SW11*%
X43140000Y-37980000D03*
X32980000Y-37980000D03*
D12*
X38060000Y-37980000D03*
D13*
X34250000Y-35440000D03*
X40600000Y-32900000D03*
%TD*%
D11*
%TO.C,SW10*%
X24140000Y-37980000D03*
X13980000Y-37980000D03*
D12*
X19060000Y-37980000D03*
D13*
X15250000Y-35440000D03*
X21600000Y-32900000D03*
%TD*%
D11*
%TO.C,SW9*%
X5140000Y-37980000D03*
X-5020000Y-37980000D03*
D12*
X60000Y-37980000D03*
D13*
X-3750000Y-35440000D03*
X2600000Y-32900000D03*
%TD*%
D11*
%TO.C,SW8*%
X62140000Y-18980000D03*
X51980000Y-18980000D03*
D12*
X57060000Y-18980000D03*
D13*
X53250000Y-16440000D03*
X59600000Y-13900000D03*
%TD*%
D11*
%TO.C,SW7*%
X43140000Y-18980000D03*
X32980000Y-18980000D03*
D12*
X38060000Y-18980000D03*
D13*
X34250000Y-16440000D03*
X40600000Y-13900000D03*
%TD*%
D11*
%TO.C,SW6*%
X24140000Y-18980000D03*
X13980000Y-18980000D03*
D12*
X19060000Y-18980000D03*
D13*
X15250000Y-16440000D03*
X21600000Y-13900000D03*
%TD*%
D11*
%TO.C,SW5*%
X5140000Y-18980000D03*
X-5020000Y-18980000D03*
D12*
X60000Y-18980000D03*
D13*
X-3750000Y-16440000D03*
X2600000Y-13900000D03*
%TD*%
D11*
%TO.C,SW4*%
X62140000Y20000D03*
X51980000Y20000D03*
D12*
X57060000Y20000D03*
D13*
X53250000Y2560000D03*
X59600000Y5100000D03*
%TD*%
D11*
%TO.C,SW3*%
X43140000Y20000D03*
X32980000Y20000D03*
D12*
X38060000Y20000D03*
D13*
X34250000Y2560000D03*
X40600000Y5100000D03*
%TD*%
D11*
%TO.C,SW2*%
X24140000Y20000D03*
X13980000Y20000D03*
D12*
X19060000Y20000D03*
D13*
X15250000Y2560000D03*
X21600000Y5100000D03*
%TD*%
D11*
%TO.C,SW1*%
X5140000Y20000D03*
X-5020000Y20000D03*
D12*
X60000Y20000D03*
D13*
X-3750000Y2560000D03*
X2600000Y5100000D03*
%TD*%
M02*
