M48
; DRILL file {KiCad (5.1.9-0-10_14)} date Saturday, September 25, 2021 at 06:11:48 AM
; FORMAT={-:-/ absolute / inch / decimal}
; #@! TF.CreationDate,2021-09-25T06:11:48-07:00
; #@! TF.GenerationSoftware,Kicad,Pcbnew,(5.1.9-0-10_14)
; #@! TF.FileFunction,Plated,1,2,PTH
FMAT,2
INCH
T1C0.0157
T2C0.0591
%
G90
G05
T1
X-0.2904Y-0.0669
X-0.2904Y-0.815
X-0.2904Y-1.563
X-0.2638Y0.2677
X-0.2638Y-0.4803
X-0.2638Y-1.2283
X-0.2323Y-0.2323
X-0.2323Y-0.9803
X-0.2323Y-1.7283
X-0.1417Y-0.1378
X-0.1417Y-0.2126
X-0.1417Y-0.8858
X-0.1417Y-0.9606
X-0.1417Y-1.6339
X-0.1417Y-1.7087
X-0.0591Y-0.3543
X-0.0591Y-0.3937
X-0.0591Y-1.1024
X-0.0591Y-1.1417
X-0.0433Y-0.2756
X-0.0433Y-1.0236
X-0.0433Y-1.7717
X-0.0197Y-0.3543
X-0.0197Y-0.3937
X-0.0197Y-1.1024
X-0.0197Y-1.1417
X0.0197Y-0.3543
X0.0197Y-0.3937
X0.0197Y-1.1024
X0.0197Y-1.1417
X0.0591Y-0.3543
X0.0591Y-0.3937
X0.0591Y-1.1024
X0.0591Y-1.1417
X0.1949Y-0.0965
X0.1949Y-0.8445
X0.1949Y-1.5925
X0.2441Y0.2402
X0.2441Y-0.0709
X0.2441Y-0.5079
X0.2441Y-0.8189
X0.2441Y-1.2559
X0.2441Y-1.5669
X0.2756Y-0.2717
X0.2756Y-1.0197
X0.2756Y-1.7677
X0.3543Y-0.689
X0.3543Y-0.7283
X0.3543Y-0.7677
X0.3543Y-0.8071
X0.3937Y-0.689
X0.3937Y-0.7283
X0.3937Y-0.7677
X0.3937Y-0.8071
X0.4577Y-0.0669
X0.4577Y-0.815
X0.4577Y-1.563
X0.4843Y0.2677
X0.4843Y-0.4803
X0.4843Y-1.2283
X0.5157Y-0.2323
X0.5157Y-0.9803
X0.5157Y-1.7283
X0.6063Y-0.1378
X0.6063Y-0.2126
X0.6063Y-0.8858
X0.6063Y-0.9606
X0.6063Y-1.6339
X0.6063Y-1.7087
X0.689Y-0.3543
X0.689Y-0.3937
X0.689Y-1.1024
X0.689Y-1.1417
X0.7047Y-0.2756
X0.7047Y-1.0236
X0.7047Y-1.7717
X0.7283Y-0.3543
X0.7283Y-0.3937
X0.7283Y-1.1024
X0.7283Y-1.1417
X0.7677Y-0.3543
X0.7677Y-0.3937
X0.7677Y-1.1024
X0.7677Y-1.1417
X0.8071Y-0.3543
X0.8071Y-0.3937
X0.8071Y-1.1024
X0.8071Y-1.1417
X0.9429Y-0.0965
X0.9429Y-0.8445
X0.9429Y-1.5925
X0.9921Y0.2402
X0.9921Y-0.0709
X0.9921Y-0.5079
X0.9921Y-0.8189
X0.9921Y-1.2559
X0.9921Y-1.5669
X1.0236Y-0.2717
X1.0236Y-1.0197
X1.0236Y-1.7677
X1.1024Y-0.689
X1.1024Y-0.7283
X1.1024Y-0.7677
X1.1024Y-0.8071
X1.1417Y-0.689
X1.1417Y-0.7283
X1.1417Y-0.7677
X1.1417Y-0.8071
X1.2057Y-0.0669
X1.2057Y-0.815
X1.2057Y-1.563
X1.2323Y0.2677
X1.2323Y-0.4803
X1.2323Y-1.2283
X1.2638Y-0.2323
X1.2638Y-0.9803
X1.2638Y-1.7283
X1.3543Y-0.1378
X1.3543Y-0.2126
X1.3543Y-0.8858
X1.3543Y-0.9606
X1.3543Y-1.6339
X1.3543Y-1.7087
X1.437Y-0.3543
X1.437Y-0.3937
X1.437Y-1.1024
X1.437Y-1.1417
X1.4528Y-0.2756
X1.4528Y-1.0236
X1.4528Y-1.7717
X1.4764Y-0.3543
X1.4764Y-0.3937
X1.4764Y-1.1024
X1.4764Y-1.1417
X1.5157Y-0.3543
X1.5157Y-0.3937
X1.5157Y-1.1024
X1.5157Y-1.1417
X1.5551Y-0.3543
X1.5551Y-0.3937
X1.5551Y-1.1024
X1.5551Y-1.1417
X1.6909Y-0.0965
X1.6909Y-0.8445
X1.6909Y-1.5925
X1.7402Y0.2402
X1.7402Y-0.0709
X1.7402Y-0.5079
X1.7402Y-0.8189
X1.7402Y-1.2559
X1.7402Y-1.5669
X1.7717Y-0.2717
X1.7717Y-1.0197
X1.7717Y-1.7677
X1.8504Y-0.689
X1.8504Y-0.7283
X1.8504Y-0.7677
X1.8504Y-0.8071
X1.8898Y-0.689
X1.8898Y-0.7283
X1.8898Y-0.7677
X1.8898Y-0.8071
X1.9537Y-0.0669
X1.9537Y-0.815
X1.9537Y-1.563
X1.9803Y0.2677
X1.9803Y-0.4803
X1.9803Y-1.2283
X2.0118Y-0.2323
X2.0118Y-0.9803
X2.0118Y-1.7283
X2.1024Y-0.1378
X2.1024Y-0.2126
X2.1024Y-0.8858
X2.1024Y-0.9606
X2.1024Y-1.6339
X2.1024Y-1.7087
X2.185Y-0.3543
X2.185Y-0.3937
X2.185Y-1.1024
X2.185Y-1.1417
X2.2008Y-0.2756
X2.2008Y-1.0236
X2.2008Y-1.7717
X2.2244Y-0.3543
X2.2244Y-0.3937
X2.2244Y-1.1024
X2.2244Y-1.1417
X2.2638Y-0.3543
X2.2638Y-0.3937
X2.2638Y-1.1024
X2.2638Y-1.1417
X2.3031Y-0.3543
X2.3031Y-0.3937
X2.3031Y-1.1024
X2.3031Y-1.1417
X2.439Y-0.0965
X2.439Y-0.8445
X2.439Y-1.5925
X2.4882Y0.2402
X2.4882Y-0.0709
X2.4882Y-0.5079
X2.4882Y-0.8189
X2.4882Y-1.2559
X2.4882Y-1.5669
X2.5197Y-0.2717
X2.5197Y-1.0197
X2.5197Y-1.7677
T2
X-0.1476Y0.1008
X-0.1476Y-0.6472
X-0.1476Y-1.3953
X0.1024Y0.2008
X0.1024Y-0.5472
X0.1024Y-1.2953
X0.6004Y0.1008
X0.6004Y-0.6472
X0.6004Y-1.3953
X0.8504Y0.2008
X0.8504Y-0.5472
X0.8504Y-1.2953
X1.3484Y0.1008
X1.3484Y-0.6472
X1.3484Y-1.3953
X1.5984Y0.2008
X1.5984Y-0.5472
X1.5984Y-1.2953
X2.0965Y0.1008
X2.0965Y-0.6472
X2.0965Y-1.3953
X2.3465Y0.2008
X2.3465Y-0.5472
X2.3465Y-1.2953
T0
M30
