%TF.GenerationSoftware,KiCad,Pcbnew,(5.1.9-0-10_14)*%
%TF.CreationDate,2021-09-25T06:11:46-07:00*%
%TF.ProjectId,MX-KEY-SWITCH-BOARD,4d582d4b-4559-42d5-9357-495443482d42,rev?*%
%TF.SameCoordinates,Original*%
%TF.FileFunction,Copper,L2,Bot*%
%TF.FilePolarity,Positive*%
%FSLAX46Y46*%
G04 Gerber Fmt 4.6, Leading zero omitted, Abs format (unit mm)*
G04 Created by KiCad (PCBNEW (5.1.9-0-10_14)) date 2021-09-25 06:11:46*
%MOMM*%
%LPD*%
G01*
G04 APERTURE LIST*
%TA.AperFunction,ComponentPad*%
%ADD10C,2.200000*%
%TD*%
%TA.AperFunction,ViaPad*%
%ADD11C,0.800000*%
%TD*%
%TA.AperFunction,Conductor*%
%ADD12C,0.500000*%
%TD*%
%TA.AperFunction,Conductor*%
%ADD13C,0.200000*%
%TD*%
%TA.AperFunction,Conductor*%
%ADD14C,0.100000*%
%TD*%
G04 APERTURE END LIST*
D10*
%TO.P,SW12,2*%
%TO.N,COL*%
X53250000Y-35440000D03*
%TO.P,SW12,1*%
%TO.N,Net-(D12-Pad2)*%
X59600000Y-32900000D03*
%TD*%
%TO.P,SW11,2*%
%TO.N,COL*%
X34250000Y-35440000D03*
%TO.P,SW11,1*%
%TO.N,Net-(D11-Pad2)*%
X40600000Y-32900000D03*
%TD*%
%TO.P,SW10,2*%
%TO.N,COL*%
X15250000Y-35440000D03*
%TO.P,SW10,1*%
%TO.N,Net-(D10-Pad2)*%
X21600000Y-32900000D03*
%TD*%
%TO.P,SW9,2*%
%TO.N,COL*%
X-3750000Y-35440000D03*
%TO.P,SW9,1*%
%TO.N,Net-(D9-Pad2)*%
X2600000Y-32900000D03*
%TD*%
%TO.P,SW8,2*%
%TO.N,COL*%
X53250000Y-16440000D03*
%TO.P,SW8,1*%
%TO.N,Net-(D8-Pad2)*%
X59600000Y-13900000D03*
%TD*%
%TO.P,SW7,2*%
%TO.N,COL*%
X34250000Y-16440000D03*
%TO.P,SW7,1*%
%TO.N,Net-(D7-Pad2)*%
X40600000Y-13900000D03*
%TD*%
%TO.P,SW6,2*%
%TO.N,COL*%
X15250000Y-16440000D03*
%TO.P,SW6,1*%
%TO.N,Net-(D6-Pad2)*%
X21600000Y-13900000D03*
%TD*%
%TO.P,SW5,2*%
%TO.N,COL*%
X-3750000Y-16440000D03*
%TO.P,SW5,1*%
%TO.N,Net-(D5-Pad2)*%
X2600000Y-13900000D03*
%TD*%
%TO.P,SW4,2*%
%TO.N,COL*%
X53250000Y2560000D03*
%TO.P,SW4,1*%
%TO.N,Net-(D4-Pad2)*%
X59600000Y5100000D03*
%TD*%
%TO.P,SW3,2*%
%TO.N,COL*%
X34250000Y2560000D03*
%TO.P,SW3,1*%
%TO.N,Net-(D3-Pad2)*%
X40600000Y5100000D03*
%TD*%
%TO.P,SW2,2*%
%TO.N,COL*%
X15250000Y2560000D03*
%TO.P,SW2,1*%
%TO.N,Net-(D2-Pad2)*%
X21600000Y5100000D03*
%TD*%
%TO.P,SW1,2*%
%TO.N,COL*%
X-3750000Y2560000D03*
%TO.P,SW1,1*%
%TO.N,Net-(D1-Pad2)*%
X2600000Y5100000D03*
%TD*%
D11*
%TO.N,*%
X1500000Y-9000000D03*
X500000Y-9000000D03*
X-500000Y-9000000D03*
X-1500000Y-9000000D03*
X20500000Y-9000000D03*
X19500000Y-9000000D03*
X18500000Y-9000000D03*
X17500000Y-9000000D03*
X39500000Y-9000000D03*
X38500000Y-9000000D03*
X37500000Y-9000000D03*
X36500000Y-9000000D03*
X58500000Y-9000000D03*
X57500000Y-9000000D03*
X56500000Y-9000000D03*
X55500000Y-9000000D03*
X-1500000Y-10000000D03*
X-500000Y-10000000D03*
X500000Y-10000000D03*
X1500000Y-10000000D03*
X9000000Y-17500000D03*
X9000000Y-18500000D03*
X9000000Y-19500000D03*
X9000000Y-20500000D03*
X1500000Y-28000000D03*
X500000Y-28000000D03*
X-500000Y-28000000D03*
X-1500000Y-28000000D03*
X10000000Y-17500000D03*
X10000000Y-18500000D03*
X10000000Y-19500000D03*
X10000000Y-20500000D03*
X17500000Y-10000000D03*
X18500000Y-10000000D03*
X19500000Y-10000000D03*
X20500000Y-10000000D03*
X28000000Y-17500000D03*
X28000000Y-18500000D03*
X28000000Y-19500000D03*
X28000000Y-20500000D03*
X20500000Y-28000000D03*
X19500000Y-28000000D03*
X18500000Y-28000000D03*
X17500000Y-28000000D03*
X29000000Y-17500000D03*
X29000000Y-18500000D03*
X29000000Y-19500000D03*
X29000000Y-20500000D03*
X36500000Y-10000000D03*
X37500000Y-10000000D03*
X38500000Y-10000000D03*
X39500000Y-10000000D03*
X47000000Y-17500000D03*
X47000000Y-18500000D03*
X47000000Y-19500000D03*
X47000000Y-20500000D03*
X39500000Y-28000000D03*
X38500000Y-28000000D03*
X37500000Y-28000000D03*
X36500000Y-28000000D03*
X48000000Y-17500000D03*
X48000000Y-18500000D03*
X48000000Y-19500000D03*
X48000000Y-20500000D03*
X55500000Y-10000000D03*
X56500000Y-10000000D03*
X57500000Y-10000000D03*
X58500000Y-10000000D03*
X58500000Y-28000000D03*
X57500000Y-28000000D03*
X56500000Y-28000000D03*
X55500000Y-28000000D03*
X-1500000Y-29000000D03*
X-500000Y-29000000D03*
X500000Y-29000000D03*
X1500000Y-29000000D03*
X17500000Y-29000000D03*
X18500000Y-29000000D03*
X19500000Y-29000000D03*
X20500000Y-29000000D03*
X36500000Y-29000000D03*
X37500000Y-29000000D03*
X38500000Y-29000000D03*
X39500000Y-29000000D03*
X55500000Y-29000000D03*
X56500000Y-29000000D03*
X57500000Y-29000000D03*
X58500000Y-29000000D03*
%TO.N,VCC*%
X-3600000Y-5400000D03*
X-6700000Y6800000D03*
X-3600000Y-3500000D03*
X15400000Y-5400000D03*
X12300000Y6800000D03*
X15400000Y-3500000D03*
X34400000Y-5400000D03*
X31300000Y6800000D03*
X34400000Y-3500000D03*
X53400000Y-5400000D03*
X50300000Y6800000D03*
X53400000Y-3500000D03*
X-3600000Y-24400000D03*
X-6700000Y-12200000D03*
X-3600000Y-22500000D03*
X15400000Y-24400000D03*
X12300000Y-12200000D03*
X15400000Y-22500000D03*
X34400000Y-24400000D03*
X31300000Y-12200000D03*
X34400000Y-22500000D03*
X53400000Y-24400000D03*
X50300000Y-12200000D03*
X53400000Y-22500000D03*
X-3600000Y-43400000D03*
X-6700000Y-31200000D03*
X-3600000Y-41500000D03*
X15400000Y-43400000D03*
X12300000Y-31200000D03*
X15400000Y-41500000D03*
X34400000Y-43400000D03*
X31300000Y-31200000D03*
X34400000Y-41500000D03*
X53400000Y-43400000D03*
X50300000Y-31200000D03*
X53400000Y-41500000D03*
%TO.N,DI*%
X-5900000Y-5900000D03*
X13100000Y-5900000D03*
X32100000Y-5900000D03*
X51100000Y-5900000D03*
X-5900000Y-24900000D03*
X13100000Y-24900000D03*
X32100000Y-24900000D03*
X51100000Y-24900000D03*
X-5900000Y-43900000D03*
X13100000Y-43900000D03*
X32100000Y-43900000D03*
X51100000Y-43900000D03*
%TO.N,GND*%
X6200000Y6100000D03*
X25200000Y6100000D03*
X44200000Y6100000D03*
X63200000Y6100000D03*
X6200000Y-12900000D03*
X25200000Y-12900000D03*
X44200000Y-12900000D03*
X63200000Y-12900000D03*
X6200000Y-31900000D03*
X25200000Y-31900000D03*
X44200000Y-31900000D03*
X63200000Y-31900000D03*
%TO.N,DO*%
X7000000Y-6900000D03*
X26000000Y-6900000D03*
X45000000Y-6900000D03*
X64000000Y-6900000D03*
X7000000Y-25900000D03*
X26000000Y-25900000D03*
X45000000Y-25900000D03*
X64000000Y-25900000D03*
X7000000Y-44900000D03*
X26000000Y-44900000D03*
X45000000Y-44900000D03*
X64000000Y-44900000D03*
%TO.N,COL*%
X-1100000Y-7000000D03*
X17900000Y-7000000D03*
X36900000Y-7000000D03*
X55900000Y-7000000D03*
X-1100000Y-26000000D03*
X17900000Y-26000000D03*
X36900000Y-26000000D03*
X55900000Y-26000000D03*
X-1100000Y-45000000D03*
X17900000Y-45000000D03*
X36900000Y-45000000D03*
X55900000Y-45000000D03*
%TO.N,ROW*%
X6200000Y-1800000D03*
X-7375000Y-1700000D03*
X4950001Y-2450001D03*
X25200000Y-1800000D03*
X11625000Y-1700000D03*
X23950001Y-2450001D03*
X44200000Y-1800000D03*
X30625000Y-1700000D03*
X42950001Y-2450001D03*
X63200000Y-1800000D03*
X49625000Y-1700000D03*
X61950001Y-2450001D03*
X6200000Y-20800000D03*
X-7375000Y-20700000D03*
X4950001Y-21450001D03*
X25200000Y-20800000D03*
X11625000Y-20700000D03*
X23950001Y-21450001D03*
X44200000Y-20800000D03*
X30625000Y-20700000D03*
X42950001Y-21450001D03*
X63200000Y-20800000D03*
X49625000Y-20700000D03*
X61950001Y-21450001D03*
X6200000Y-39800000D03*
X-7375000Y-39700000D03*
X4950001Y-40450001D03*
X25200000Y-39800000D03*
X11625000Y-39700000D03*
X23950001Y-40450001D03*
X44200000Y-39800000D03*
X30625000Y-39700000D03*
X42950001Y-40450001D03*
X63200000Y-39800000D03*
X49625000Y-39700000D03*
X61950001Y-40450001D03*
%TD*%
D12*
%TO.N,VCC*%
X-3600000Y-5400000D02*
X-3600000Y-3500000D01*
X15400000Y-5400000D02*
X15400000Y-3500000D01*
X34400000Y-5400000D02*
X34400000Y-3500000D01*
X53400000Y-5400000D02*
X53400000Y-3500000D01*
X-3600000Y-24400000D02*
X-3600000Y-22500000D01*
X15400000Y-24400000D02*
X15400000Y-22500000D01*
X34400000Y-24400000D02*
X34400000Y-22500000D01*
X53400000Y-24400000D02*
X53400000Y-22500000D01*
X-3600000Y-43400000D02*
X-3600000Y-41500000D01*
X15400000Y-43400000D02*
X15400000Y-41500000D01*
X34400000Y-43400000D02*
X34400000Y-41500000D01*
X53400000Y-43400000D02*
X53400000Y-41500000D01*
%TO.N,COL*%
X-710000Y7090000D02*
X-700000Y5650000D01*
X-3810000Y2540000D02*
X-700000Y5650000D01*
X290000Y-7010000D02*
X-1100000Y-7000000D01*
X18290000Y7090000D02*
X18300000Y5650000D01*
X15190000Y2540000D02*
X18300000Y5650000D01*
X19290000Y-7010000D02*
X17900000Y-7000000D01*
X37290000Y7090000D02*
X37300000Y5650000D01*
X34190000Y2540000D02*
X37300000Y5650000D01*
X38290000Y-7010000D02*
X36900000Y-7000000D01*
X56290000Y7090000D02*
X56300000Y5650000D01*
X53190000Y2540000D02*
X56300000Y5650000D01*
X57290000Y-7010000D02*
X55900000Y-7000000D01*
X-710000Y-11910000D02*
X-700000Y-13350000D01*
X-3810000Y-16460000D02*
X-700000Y-13350000D01*
X290000Y-26010000D02*
X-1100000Y-26000000D01*
X18290000Y-11910000D02*
X18300000Y-13350000D01*
X15190000Y-16460000D02*
X18300000Y-13350000D01*
X19290000Y-26010000D02*
X17900000Y-26000000D01*
X37290000Y-11910000D02*
X37300000Y-13350000D01*
X34190000Y-16460000D02*
X37300000Y-13350000D01*
X38290000Y-26010000D02*
X36900000Y-26000000D01*
X56290000Y-11910000D02*
X56300000Y-13350000D01*
X53190000Y-16460000D02*
X56300000Y-13350000D01*
X57290000Y-26010000D02*
X55900000Y-26000000D01*
X-710000Y-30910000D02*
X-700000Y-32350000D01*
X-3810000Y-35460000D02*
X-700000Y-32350000D01*
X290000Y-45010000D02*
X-1100000Y-45000000D01*
X18290000Y-30910000D02*
X18300000Y-32350000D01*
X15190000Y-35460000D02*
X18300000Y-32350000D01*
X19290000Y-45010000D02*
X17900000Y-45000000D01*
X37290000Y-30910000D02*
X37300000Y-32350000D01*
X34190000Y-35460000D02*
X37300000Y-32350000D01*
X38290000Y-45010000D02*
X36900000Y-45000000D01*
X56290000Y-30910000D02*
X56300000Y-32350000D01*
X53190000Y-35460000D02*
X56300000Y-32350000D01*
X57290000Y-45010000D02*
X55900000Y-45000000D01*
%TO.N,ROW*%
X-6624999Y-2450001D02*
X-7375000Y-1700000D01*
X6200000Y-1800000D02*
X5549999Y-2450001D01*
X4950001Y-2450001D02*
X-6624999Y-2450001D01*
X5549999Y-2450001D02*
X4950001Y-2450001D01*
X12375001Y-2450001D02*
X11625000Y-1700000D01*
X25200000Y-1800000D02*
X24549999Y-2450001D01*
X23950001Y-2450001D02*
X12375001Y-2450001D01*
X24549999Y-2450001D02*
X23950001Y-2450001D01*
X31375001Y-2450001D02*
X30625000Y-1700000D01*
X44200000Y-1800000D02*
X43549999Y-2450001D01*
X42950001Y-2450001D02*
X31375001Y-2450001D01*
X43549999Y-2450001D02*
X42950001Y-2450001D01*
X50375001Y-2450001D02*
X49625000Y-1700000D01*
X63200000Y-1800000D02*
X62549999Y-2450001D01*
X61950001Y-2450001D02*
X50375001Y-2450001D01*
X62549999Y-2450001D02*
X61950001Y-2450001D01*
X-6624999Y-21450001D02*
X-7375000Y-20700000D01*
X6200000Y-20800000D02*
X5549999Y-21450001D01*
X4950001Y-21450001D02*
X-6624999Y-21450001D01*
X5549999Y-21450001D02*
X4950001Y-21450001D01*
X12375001Y-21450001D02*
X11625000Y-20700000D01*
X25200000Y-20800000D02*
X24549999Y-21450001D01*
X23950001Y-21450001D02*
X12375001Y-21450001D01*
X24549999Y-21450001D02*
X23950001Y-21450001D01*
X31375001Y-21450001D02*
X30625000Y-20700000D01*
X44200000Y-20800000D02*
X43549999Y-21450001D01*
X42950001Y-21450001D02*
X31375001Y-21450001D01*
X43549999Y-21450001D02*
X42950001Y-21450001D01*
X50375001Y-21450001D02*
X49625000Y-20700000D01*
X63200000Y-20800000D02*
X62549999Y-21450001D01*
X61950001Y-21450001D02*
X50375001Y-21450001D01*
X62549999Y-21450001D02*
X61950001Y-21450001D01*
X-6624999Y-40450001D02*
X-7375000Y-39700000D01*
X6200000Y-39800000D02*
X5549999Y-40450001D01*
X4950001Y-40450001D02*
X-6624999Y-40450001D01*
X5549999Y-40450001D02*
X4950001Y-40450001D01*
X12375001Y-40450001D02*
X11625000Y-39700000D01*
X25200000Y-39800000D02*
X24549999Y-40450001D01*
X23950001Y-40450001D02*
X12375001Y-40450001D01*
X24549999Y-40450001D02*
X23950001Y-40450001D01*
X31375001Y-40450001D02*
X30625000Y-39700000D01*
X44200000Y-39800000D02*
X43549999Y-40450001D01*
X42950001Y-40450001D02*
X31375001Y-40450001D01*
X43549999Y-40450001D02*
X42950001Y-40450001D01*
X50375001Y-40450001D02*
X49625000Y-39700000D01*
X63200000Y-39800000D02*
X62549999Y-40450001D01*
X61950001Y-40450001D02*
X50375001Y-40450001D01*
X62549999Y-40450001D02*
X61950001Y-40450001D01*
%TD*%
D13*
%TO.N,ROW*%
X-5866319Y1879886D02*
X-5756488Y1824958D01*
X-5668576Y1739216D01*
X-5610921Y1630795D01*
X-5587587Y1502256D01*
X-5575823Y1031703D01*
X-5753082Y913263D01*
X-5913263Y753082D01*
X-6039116Y564729D01*
X-6125806Y355443D01*
X-6170000Y133265D01*
X-6170000Y-93265D01*
X-6125806Y-315443D01*
X-6039116Y-524729D01*
X-5913263Y-713082D01*
X-5753082Y-873263D01*
X-5564729Y-999116D01*
X-5524638Y-1015723D01*
X-5512947Y-1483351D01*
X-5525078Y-1595244D01*
X-5563741Y-1693769D01*
X-5626938Y-1778663D01*
X-5710228Y-1843964D01*
X-5807754Y-1885077D01*
X-5919314Y-1900000D01*
X-7675000Y-1900000D01*
X-7675000Y1900000D01*
X-5995402Y1900000D01*
X-5866319Y1879886D01*
%TA.AperFunction,Conductor*%
D14*
G36*
X-5866319Y1879886D02*
G01*
X-5756488Y1824958D01*
X-5668576Y1739216D01*
X-5610921Y1630795D01*
X-5587587Y1502256D01*
X-5575823Y1031703D01*
X-5753082Y913263D01*
X-5913263Y753082D01*
X-6039116Y564729D01*
X-6125806Y355443D01*
X-6170000Y133265D01*
X-6170000Y-93265D01*
X-6125806Y-315443D01*
X-6039116Y-524729D01*
X-5913263Y-713082D01*
X-5753082Y-873263D01*
X-5564729Y-999116D01*
X-5524638Y-1015723D01*
X-5512947Y-1483351D01*
X-5525078Y-1595244D01*
X-5563741Y-1693769D01*
X-5626938Y-1778663D01*
X-5710228Y-1843964D01*
X-5807754Y-1885077D01*
X-5919314Y-1900000D01*
X-7675000Y-1900000D01*
X-7675000Y1900000D01*
X-5995402Y1900000D01*
X-5866319Y1879886D01*
G37*
%TD.AperFunction*%
%TD*%
D13*
%TO.N,ROW*%
X7675000Y2295103D02*
X7675001Y-2190034D01*
X7598782Y-2200000D01*
X5801218Y-2200000D01*
X5692085Y-2185731D01*
X5596364Y-2146379D01*
X5513971Y-2083736D01*
X5450461Y-2002023D01*
X5410091Y-1906719D01*
X5394662Y-1797747D01*
X5387275Y-1103344D01*
X5475443Y-1085806D01*
X5684729Y-999116D01*
X5873082Y-873263D01*
X6033263Y-713082D01*
X6159116Y-524729D01*
X6245806Y-315443D01*
X6290000Y-93265D01*
X6290000Y133265D01*
X6245806Y355443D01*
X6159116Y564729D01*
X6033263Y753082D01*
X5873082Y913263D01*
X5684729Y1039116D01*
X5475443Y1125806D01*
X5363323Y1148108D01*
X5355440Y1889145D01*
X5368921Y1999880D01*
X5408287Y2097103D01*
X5471628Y2180720D01*
X5554561Y2244942D01*
X5651364Y2285342D01*
X5761946Y2300000D01*
X7638054Y2300000D01*
X7675000Y2295103D01*
%TA.AperFunction,Conductor*%
D14*
G36*
X7675000Y2295103D02*
G01*
X7675001Y-2190034D01*
X7598782Y-2200000D01*
X5801218Y-2200000D01*
X5692085Y-2185731D01*
X5596364Y-2146379D01*
X5513971Y-2083736D01*
X5450461Y-2002023D01*
X5410091Y-1906719D01*
X5394662Y-1797747D01*
X5387275Y-1103344D01*
X5475443Y-1085806D01*
X5684729Y-999116D01*
X5873082Y-873263D01*
X6033263Y-713082D01*
X6159116Y-524729D01*
X6245806Y-315443D01*
X6290000Y-93265D01*
X6290000Y133265D01*
X6245806Y355443D01*
X6159116Y564729D01*
X6033263Y753082D01*
X5873082Y913263D01*
X5684729Y1039116D01*
X5475443Y1125806D01*
X5363323Y1148108D01*
X5355440Y1889145D01*
X5368921Y1999880D01*
X5408287Y2097103D01*
X5471628Y2180720D01*
X5554561Y2244942D01*
X5651364Y2285342D01*
X5761946Y2300000D01*
X7638054Y2300000D01*
X7675000Y2295103D01*
G37*
%TD.AperFunction*%
%TD*%
D13*
%TO.N,COL*%
X1300000Y7593441D02*
X1300000Y5795402D01*
X1279886Y5666319D01*
X1224958Y5556488D01*
X1139216Y5468576D01*
X1030795Y5410921D01*
X902256Y5387587D01*
X-2083351Y5312947D01*
X-2195244Y5325078D01*
X-2293769Y5363741D01*
X-2378663Y5426938D01*
X-2443964Y5510228D01*
X-2485077Y5607754D01*
X-2500000Y5719314D01*
X-2500000Y7593441D01*
X-2489263Y7675000D01*
X1289263Y7675000D01*
X1300000Y7593441D01*
%TA.AperFunction,Conductor*%
D14*
G36*
X1300000Y7593441D02*
G01*
X1300000Y5795402D01*
X1279886Y5666319D01*
X1224958Y5556488D01*
X1139216Y5468576D01*
X1030795Y5410921D01*
X902256Y5387587D01*
X-2083351Y5312947D01*
X-2195244Y5325078D01*
X-2293769Y5363741D01*
X-2378663Y5426938D01*
X-2443964Y5510228D01*
X-2485077Y5607754D01*
X-2500000Y5719314D01*
X-2500000Y7593441D01*
X-2489263Y7675000D01*
X1289263Y7675000D01*
X1300000Y7593441D01*
G37*
%TD.AperFunction*%
%TD*%
D13*
%TO.N,COL*%
X1695244Y-5425078D02*
X1793769Y-5463741D01*
X1878663Y-5526938D01*
X1943964Y-5610228D01*
X1985077Y-5707754D01*
X2000000Y-5819314D01*
X2000000Y-7693441D01*
X1985536Y-7803307D01*
X1945664Y-7899567D01*
X1882232Y-7982232D01*
X1799567Y-8045664D01*
X1703307Y-8085536D01*
X1593441Y-8100000D01*
X-1393441Y-8100000D01*
X-1503307Y-8085536D01*
X-1599567Y-8045664D01*
X-1682232Y-7982232D01*
X-1745664Y-7899567D01*
X-1785536Y-7803307D01*
X-1800000Y-7693441D01*
X-1800000Y-5895402D01*
X-1779886Y-5766319D01*
X-1724958Y-5656488D01*
X-1639216Y-5568576D01*
X-1530795Y-5510921D01*
X-1402256Y-5487587D01*
X1583351Y-5412947D01*
X1695244Y-5425078D01*
%TA.AperFunction,Conductor*%
D14*
G36*
X1695244Y-5425078D02*
G01*
X1793769Y-5463741D01*
X1878663Y-5526938D01*
X1943964Y-5610228D01*
X1985077Y-5707754D01*
X2000000Y-5819314D01*
X2000000Y-7693441D01*
X1985536Y-7803307D01*
X1945664Y-7899567D01*
X1882232Y-7982232D01*
X1799567Y-8045664D01*
X1703307Y-8085536D01*
X1593441Y-8100000D01*
X-1393441Y-8100000D01*
X-1503307Y-8085536D01*
X-1599567Y-8045664D01*
X-1682232Y-7982232D01*
X-1745664Y-7899567D01*
X-1785536Y-7803307D01*
X-1800000Y-7693441D01*
X-1800000Y-5895402D01*
X-1779886Y-5766319D01*
X-1724958Y-5656488D01*
X-1639216Y-5568576D01*
X-1530795Y-5510921D01*
X-1402256Y-5487587D01*
X1583351Y-5412947D01*
X1695244Y-5425078D01*
G37*
%TD.AperFunction*%
%TD*%
D13*
%TO.N,GND*%
X7130805Y7660616D02*
X7256629Y7622627D01*
X7372675Y7560924D01*
X7474532Y7477852D01*
X7558310Y7376582D01*
X7620819Y7260973D01*
X7659686Y7135414D01*
X7675000Y6989715D01*
X7675001Y3505943D01*
X7588066Y3493272D01*
X4811875Y3456744D01*
X4700931Y3469990D01*
X4603479Y3509234D01*
X4519641Y3572549D01*
X4455227Y3655550D01*
X4414705Y3752475D01*
X4400000Y3863230D01*
X4400000Y7550214D01*
X4414217Y7659149D01*
X4420720Y7675000D01*
X6984103Y7675000D01*
X7130805Y7660616D01*
%TA.AperFunction,Conductor*%
D14*
G36*
X7130805Y7660616D02*
G01*
X7256629Y7622627D01*
X7372675Y7560924D01*
X7474532Y7477852D01*
X7558310Y7376582D01*
X7620819Y7260973D01*
X7659686Y7135414D01*
X7675000Y6989715D01*
X7675001Y3505943D01*
X7588066Y3493272D01*
X4811875Y3456744D01*
X4700931Y3469990D01*
X4603479Y3509234D01*
X4519641Y3572549D01*
X4455227Y3655550D01*
X4414705Y3752475D01*
X4400000Y3863230D01*
X4400000Y7550214D01*
X4414217Y7659149D01*
X4420720Y7675000D01*
X6984103Y7675000D01*
X7130805Y7660616D01*
G37*
%TD.AperFunction*%
%TD*%
D13*
%TO.N,VCC*%
X-4214464Y7603307D02*
X-4200000Y7493441D01*
X-4200000Y4506559D01*
X-4214464Y4396693D01*
X-4254336Y4300433D01*
X-4317768Y4217768D01*
X-4400433Y4154336D01*
X-4496693Y4114464D01*
X-4606559Y4100000D01*
X-7493441Y4100000D01*
X-7603307Y4114464D01*
X-7675000Y4144160D01*
X-7675000Y6984103D01*
X-7660616Y7130805D01*
X-7622627Y7256629D01*
X-7560924Y7372675D01*
X-7477852Y7474532D01*
X-7376582Y7558310D01*
X-7260973Y7620819D01*
X-7135414Y7659686D01*
X-6989715Y7675000D01*
X-4244160Y7675000D01*
X-4214464Y7603307D01*
%TA.AperFunction,Conductor*%
D14*
G36*
X-4214464Y7603307D02*
G01*
X-4200000Y7493441D01*
X-4200000Y4506559D01*
X-4214464Y4396693D01*
X-4254336Y4300433D01*
X-4317768Y4217768D01*
X-4400433Y4154336D01*
X-4496693Y4114464D01*
X-4606559Y4100000D01*
X-7493441Y4100000D01*
X-7603307Y4114464D01*
X-7675000Y4144160D01*
X-7675000Y6984103D01*
X-7660616Y7130805D01*
X-7622627Y7256629D01*
X-7560924Y7372675D01*
X-7477852Y7474532D01*
X-7376582Y7558310D01*
X-7260973Y7620819D01*
X-7135414Y7659686D01*
X-6989715Y7675000D01*
X-4244160Y7675000D01*
X-4214464Y7603307D01*
G37*
%TD.AperFunction*%
%TD*%
D13*
%TO.N,DO*%
X7558119Y-3614261D02*
X7653820Y-3653591D01*
X7675000Y-3669688D01*
X7675001Y-6984094D01*
X7660616Y-7130805D01*
X7622627Y-7256629D01*
X7560924Y-7372675D01*
X7477853Y-7474531D01*
X7376586Y-7558307D01*
X7260973Y-7620819D01*
X7135410Y-7659687D01*
X6989716Y-7675000D01*
X4149568Y-7675000D01*
X4119121Y-7599725D01*
X4105684Y-7488959D01*
X4144428Y-4002059D01*
X4159899Y-3893129D01*
X4200290Y-3797870D01*
X4263807Y-3716194D01*
X4346180Y-3653591D01*
X4441881Y-3614261D01*
X4550987Y-3600000D01*
X7449013Y-3600000D01*
X7558119Y-3614261D01*
%TA.AperFunction,Conductor*%
D14*
G36*
X7558119Y-3614261D02*
G01*
X7653820Y-3653591D01*
X7675000Y-3669688D01*
X7675001Y-6984094D01*
X7660616Y-7130805D01*
X7622627Y-7256629D01*
X7560924Y-7372675D01*
X7477853Y-7474531D01*
X7376586Y-7558307D01*
X7260973Y-7620819D01*
X7135410Y-7659687D01*
X6989716Y-7675000D01*
X4149568Y-7675000D01*
X4119121Y-7599725D01*
X4105684Y-7488959D01*
X4144428Y-4002059D01*
X4159899Y-3893129D01*
X4200290Y-3797870D01*
X4263807Y-3716194D01*
X4346180Y-3653591D01*
X4441881Y-3614261D01*
X4550987Y-3600000D01*
X7449013Y-3600000D01*
X7558119Y-3614261D01*
G37*
%TD.AperFunction*%
%TD*%
D13*
%TO.N,DI*%
X-5566319Y-4020114D02*
X-5456488Y-4075042D01*
X-5368576Y-4160784D01*
X-5310921Y-4269205D01*
X-5287587Y-4397744D01*
X-5212947Y-7383351D01*
X-5225078Y-7495244D01*
X-5263741Y-7593769D01*
X-5324211Y-7675000D01*
X-6984104Y-7675000D01*
X-7130805Y-7660616D01*
X-7256629Y-7622627D01*
X-7372675Y-7560924D01*
X-7474531Y-7477853D01*
X-7558307Y-7376586D01*
X-7620819Y-7260973D01*
X-7659687Y-7135410D01*
X-7675000Y-6989716D01*
X-7675000Y-4044160D01*
X-7603307Y-4014464D01*
X-7493441Y-4000000D01*
X-5695402Y-4000000D01*
X-5566319Y-4020114D01*
%TA.AperFunction,Conductor*%
D14*
G36*
X-5566319Y-4020114D02*
G01*
X-5456488Y-4075042D01*
X-5368576Y-4160784D01*
X-5310921Y-4269205D01*
X-5287587Y-4397744D01*
X-5212947Y-7383351D01*
X-5225078Y-7495244D01*
X-5263741Y-7593769D01*
X-5324211Y-7675000D01*
X-6984104Y-7675000D01*
X-7130805Y-7660616D01*
X-7256629Y-7622627D01*
X-7372675Y-7560924D01*
X-7474531Y-7477853D01*
X-7558307Y-7376586D01*
X-7620819Y-7260973D01*
X-7659687Y-7135410D01*
X-7675000Y-6989716D01*
X-7675000Y-4044160D01*
X-7603307Y-4014464D01*
X-7493441Y-4000000D01*
X-5695402Y-4000000D01*
X-5566319Y-4020114D01*
G37*
%TD.AperFunction*%
%TD*%
D13*
%TO.N,ROW*%
X13133681Y1879886D02*
X13243512Y1824958D01*
X13331424Y1739216D01*
X13389079Y1630795D01*
X13412413Y1502256D01*
X13424177Y1031703D01*
X13246918Y913263D01*
X13086737Y753082D01*
X12960884Y564729D01*
X12874194Y355443D01*
X12830000Y133265D01*
X12830000Y-93265D01*
X12874194Y-315443D01*
X12960884Y-524729D01*
X13086737Y-713082D01*
X13246918Y-873263D01*
X13435271Y-999116D01*
X13475362Y-1015723D01*
X13487053Y-1483351D01*
X13474922Y-1595244D01*
X13436259Y-1693769D01*
X13373062Y-1778663D01*
X13289772Y-1843964D01*
X13192246Y-1885077D01*
X13080686Y-1900000D01*
X11325000Y-1900000D01*
X11325000Y1900000D01*
X13004598Y1900000D01*
X13133681Y1879886D01*
%TA.AperFunction,Conductor*%
D14*
G36*
X13133681Y1879886D02*
G01*
X13243512Y1824958D01*
X13331424Y1739216D01*
X13389079Y1630795D01*
X13412413Y1502256D01*
X13424177Y1031703D01*
X13246918Y913263D01*
X13086737Y753082D01*
X12960884Y564729D01*
X12874194Y355443D01*
X12830000Y133265D01*
X12830000Y-93265D01*
X12874194Y-315443D01*
X12960884Y-524729D01*
X13086737Y-713082D01*
X13246918Y-873263D01*
X13435271Y-999116D01*
X13475362Y-1015723D01*
X13487053Y-1483351D01*
X13474922Y-1595244D01*
X13436259Y-1693769D01*
X13373062Y-1778663D01*
X13289772Y-1843964D01*
X13192246Y-1885077D01*
X13080686Y-1900000D01*
X11325000Y-1900000D01*
X11325000Y1900000D01*
X13004598Y1900000D01*
X13133681Y1879886D01*
G37*
%TD.AperFunction*%
%TD*%
D13*
%TO.N,ROW*%
X26675001Y2295103D02*
X26675000Y-2190035D01*
X26598782Y-2200000D01*
X24801218Y-2200000D01*
X24692085Y-2185731D01*
X24596364Y-2146379D01*
X24513971Y-2083736D01*
X24450461Y-2002023D01*
X24410091Y-1906719D01*
X24394662Y-1797747D01*
X24387275Y-1103344D01*
X24475443Y-1085806D01*
X24684729Y-999116D01*
X24873082Y-873263D01*
X25033263Y-713082D01*
X25159116Y-524729D01*
X25245806Y-315443D01*
X25290000Y-93265D01*
X25290000Y133265D01*
X25245806Y355443D01*
X25159116Y564729D01*
X25033263Y753082D01*
X24873082Y913263D01*
X24684729Y1039116D01*
X24475443Y1125806D01*
X24363323Y1148108D01*
X24355440Y1889145D01*
X24368921Y1999880D01*
X24408287Y2097103D01*
X24471628Y2180720D01*
X24554561Y2244942D01*
X24651364Y2285342D01*
X24761946Y2300000D01*
X26638054Y2300000D01*
X26675001Y2295103D01*
%TA.AperFunction,Conductor*%
D14*
G36*
X26675001Y2295103D02*
G01*
X26675000Y-2190035D01*
X26598782Y-2200000D01*
X24801218Y-2200000D01*
X24692085Y-2185731D01*
X24596364Y-2146379D01*
X24513971Y-2083736D01*
X24450461Y-2002023D01*
X24410091Y-1906719D01*
X24394662Y-1797747D01*
X24387275Y-1103344D01*
X24475443Y-1085806D01*
X24684729Y-999116D01*
X24873082Y-873263D01*
X25033263Y-713082D01*
X25159116Y-524729D01*
X25245806Y-315443D01*
X25290000Y-93265D01*
X25290000Y133265D01*
X25245806Y355443D01*
X25159116Y564729D01*
X25033263Y753082D01*
X24873082Y913263D01*
X24684729Y1039116D01*
X24475443Y1125806D01*
X24363323Y1148108D01*
X24355440Y1889145D01*
X24368921Y1999880D01*
X24408287Y2097103D01*
X24471628Y2180720D01*
X24554561Y2244942D01*
X24651364Y2285342D01*
X24761946Y2300000D01*
X26638054Y2300000D01*
X26675001Y2295103D01*
G37*
%TD.AperFunction*%
%TD*%
D13*
%TO.N,COL*%
X20300000Y7593441D02*
X20300000Y5795402D01*
X20279886Y5666319D01*
X20224958Y5556488D01*
X20139216Y5468576D01*
X20030795Y5410921D01*
X19902256Y5387587D01*
X16916649Y5312947D01*
X16804756Y5325078D01*
X16706231Y5363741D01*
X16621337Y5426938D01*
X16556036Y5510228D01*
X16514923Y5607754D01*
X16500000Y5719314D01*
X16500000Y7593441D01*
X16510737Y7675000D01*
X20289263Y7675000D01*
X20300000Y7593441D01*
%TA.AperFunction,Conductor*%
D14*
G36*
X20300000Y7593441D02*
G01*
X20300000Y5795402D01*
X20279886Y5666319D01*
X20224958Y5556488D01*
X20139216Y5468576D01*
X20030795Y5410921D01*
X19902256Y5387587D01*
X16916649Y5312947D01*
X16804756Y5325078D01*
X16706231Y5363741D01*
X16621337Y5426938D01*
X16556036Y5510228D01*
X16514923Y5607754D01*
X16500000Y5719314D01*
X16500000Y7593441D01*
X16510737Y7675000D01*
X20289263Y7675000D01*
X20300000Y7593441D01*
G37*
%TD.AperFunction*%
%TD*%
D13*
%TO.N,COL*%
X20695244Y-5425078D02*
X20793769Y-5463741D01*
X20878663Y-5526938D01*
X20943964Y-5610228D01*
X20985077Y-5707754D01*
X21000000Y-5819314D01*
X21000000Y-7693441D01*
X20985536Y-7803307D01*
X20945664Y-7899567D01*
X20882232Y-7982232D01*
X20799567Y-8045664D01*
X20703307Y-8085536D01*
X20593441Y-8100000D01*
X17606559Y-8100000D01*
X17496693Y-8085536D01*
X17400433Y-8045664D01*
X17317768Y-7982232D01*
X17254336Y-7899567D01*
X17214464Y-7803307D01*
X17200000Y-7693441D01*
X17200000Y-5895402D01*
X17220114Y-5766319D01*
X17275042Y-5656488D01*
X17360784Y-5568576D01*
X17469205Y-5510921D01*
X17597744Y-5487587D01*
X20583351Y-5412947D01*
X20695244Y-5425078D01*
%TA.AperFunction,Conductor*%
D14*
G36*
X20695244Y-5425078D02*
G01*
X20793769Y-5463741D01*
X20878663Y-5526938D01*
X20943964Y-5610228D01*
X20985077Y-5707754D01*
X21000000Y-5819314D01*
X21000000Y-7693441D01*
X20985536Y-7803307D01*
X20945664Y-7899567D01*
X20882232Y-7982232D01*
X20799567Y-8045664D01*
X20703307Y-8085536D01*
X20593441Y-8100000D01*
X17606559Y-8100000D01*
X17496693Y-8085536D01*
X17400433Y-8045664D01*
X17317768Y-7982232D01*
X17254336Y-7899567D01*
X17214464Y-7803307D01*
X17200000Y-7693441D01*
X17200000Y-5895402D01*
X17220114Y-5766319D01*
X17275042Y-5656488D01*
X17360784Y-5568576D01*
X17469205Y-5510921D01*
X17597744Y-5487587D01*
X20583351Y-5412947D01*
X20695244Y-5425078D01*
G37*
%TD.AperFunction*%
%TD*%
D13*
%TO.N,GND*%
X26130805Y7660616D02*
X26256629Y7622627D01*
X26372675Y7560924D01*
X26474532Y7477852D01*
X26558310Y7376582D01*
X26620819Y7260973D01*
X26659686Y7135414D01*
X26675000Y6989715D01*
X26675001Y3505943D01*
X26588066Y3493272D01*
X23811875Y3456744D01*
X23700931Y3469990D01*
X23603479Y3509234D01*
X23519641Y3572549D01*
X23455227Y3655550D01*
X23414705Y3752475D01*
X23400000Y3863230D01*
X23400000Y7550214D01*
X23414217Y7659149D01*
X23420720Y7675000D01*
X25984103Y7675000D01*
X26130805Y7660616D01*
%TA.AperFunction,Conductor*%
D14*
G36*
X26130805Y7660616D02*
G01*
X26256629Y7622627D01*
X26372675Y7560924D01*
X26474532Y7477852D01*
X26558310Y7376582D01*
X26620819Y7260973D01*
X26659686Y7135414D01*
X26675000Y6989715D01*
X26675001Y3505943D01*
X26588066Y3493272D01*
X23811875Y3456744D01*
X23700931Y3469990D01*
X23603479Y3509234D01*
X23519641Y3572549D01*
X23455227Y3655550D01*
X23414705Y3752475D01*
X23400000Y3863230D01*
X23400000Y7550214D01*
X23414217Y7659149D01*
X23420720Y7675000D01*
X25984103Y7675000D01*
X26130805Y7660616D01*
G37*
%TD.AperFunction*%
%TD*%
D13*
%TO.N,VCC*%
X14785536Y7603307D02*
X14800000Y7493441D01*
X14800000Y4506559D01*
X14785536Y4396693D01*
X14745664Y4300433D01*
X14682232Y4217768D01*
X14599567Y4154336D01*
X14503307Y4114464D01*
X14393441Y4100000D01*
X11506559Y4100000D01*
X11396693Y4114464D01*
X11325000Y4144160D01*
X11325000Y6984103D01*
X11339384Y7130805D01*
X11377373Y7256629D01*
X11439076Y7372675D01*
X11522148Y7474532D01*
X11623418Y7558310D01*
X11739027Y7620819D01*
X11864586Y7659686D01*
X12010285Y7675000D01*
X14755840Y7675000D01*
X14785536Y7603307D01*
%TA.AperFunction,Conductor*%
D14*
G36*
X14785536Y7603307D02*
G01*
X14800000Y7493441D01*
X14800000Y4506559D01*
X14785536Y4396693D01*
X14745664Y4300433D01*
X14682232Y4217768D01*
X14599567Y4154336D01*
X14503307Y4114464D01*
X14393441Y4100000D01*
X11506559Y4100000D01*
X11396693Y4114464D01*
X11325000Y4144160D01*
X11325000Y6984103D01*
X11339384Y7130805D01*
X11377373Y7256629D01*
X11439076Y7372675D01*
X11522148Y7474532D01*
X11623418Y7558310D01*
X11739027Y7620819D01*
X11864586Y7659686D01*
X12010285Y7675000D01*
X14755840Y7675000D01*
X14785536Y7603307D01*
G37*
%TD.AperFunction*%
%TD*%
D13*
%TO.N,DO*%
X26558119Y-3614261D02*
X26653820Y-3653591D01*
X26675000Y-3669688D01*
X26675001Y-6984094D01*
X26660616Y-7130805D01*
X26622627Y-7256629D01*
X26560924Y-7372675D01*
X26477853Y-7474531D01*
X26376586Y-7558307D01*
X26260973Y-7620819D01*
X26135410Y-7659687D01*
X25989716Y-7675000D01*
X23149568Y-7675000D01*
X23119121Y-7599725D01*
X23105684Y-7488959D01*
X23144428Y-4002059D01*
X23159899Y-3893129D01*
X23200290Y-3797870D01*
X23263807Y-3716194D01*
X23346180Y-3653591D01*
X23441881Y-3614261D01*
X23550987Y-3600000D01*
X26449013Y-3600000D01*
X26558119Y-3614261D01*
%TA.AperFunction,Conductor*%
D14*
G36*
X26558119Y-3614261D02*
G01*
X26653820Y-3653591D01*
X26675000Y-3669688D01*
X26675001Y-6984094D01*
X26660616Y-7130805D01*
X26622627Y-7256629D01*
X26560924Y-7372675D01*
X26477853Y-7474531D01*
X26376586Y-7558307D01*
X26260973Y-7620819D01*
X26135410Y-7659687D01*
X25989716Y-7675000D01*
X23149568Y-7675000D01*
X23119121Y-7599725D01*
X23105684Y-7488959D01*
X23144428Y-4002059D01*
X23159899Y-3893129D01*
X23200290Y-3797870D01*
X23263807Y-3716194D01*
X23346180Y-3653591D01*
X23441881Y-3614261D01*
X23550987Y-3600000D01*
X26449013Y-3600000D01*
X26558119Y-3614261D01*
G37*
%TD.AperFunction*%
%TD*%
D13*
%TO.N,DI*%
X13433681Y-4020114D02*
X13543512Y-4075042D01*
X13631424Y-4160784D01*
X13689079Y-4269205D01*
X13712413Y-4397744D01*
X13787053Y-7383351D01*
X13774922Y-7495244D01*
X13736259Y-7593769D01*
X13675789Y-7675000D01*
X12015896Y-7675000D01*
X11869195Y-7660616D01*
X11743371Y-7622627D01*
X11627325Y-7560924D01*
X11525469Y-7477853D01*
X11441693Y-7376586D01*
X11379181Y-7260973D01*
X11340313Y-7135410D01*
X11325000Y-6989716D01*
X11325000Y-4044160D01*
X11396693Y-4014464D01*
X11506559Y-4000000D01*
X13304598Y-4000000D01*
X13433681Y-4020114D01*
%TA.AperFunction,Conductor*%
D14*
G36*
X13433681Y-4020114D02*
G01*
X13543512Y-4075042D01*
X13631424Y-4160784D01*
X13689079Y-4269205D01*
X13712413Y-4397744D01*
X13787053Y-7383351D01*
X13774922Y-7495244D01*
X13736259Y-7593769D01*
X13675789Y-7675000D01*
X12015896Y-7675000D01*
X11869195Y-7660616D01*
X11743371Y-7622627D01*
X11627325Y-7560924D01*
X11525469Y-7477853D01*
X11441693Y-7376586D01*
X11379181Y-7260973D01*
X11340313Y-7135410D01*
X11325000Y-6989716D01*
X11325000Y-4044160D01*
X11396693Y-4014464D01*
X11506559Y-4000000D01*
X13304598Y-4000000D01*
X13433681Y-4020114D01*
G37*
%TD.AperFunction*%
%TD*%
D13*
%TO.N,ROW*%
X32133681Y1879886D02*
X32243512Y1824958D01*
X32331424Y1739216D01*
X32389079Y1630795D01*
X32412413Y1502256D01*
X32424177Y1031703D01*
X32246918Y913263D01*
X32086737Y753082D01*
X31960884Y564729D01*
X31874194Y355443D01*
X31830000Y133265D01*
X31830000Y-93265D01*
X31874194Y-315443D01*
X31960884Y-524729D01*
X32086737Y-713082D01*
X32246918Y-873263D01*
X32435271Y-999116D01*
X32475362Y-1015723D01*
X32487053Y-1483351D01*
X32474922Y-1595244D01*
X32436259Y-1693769D01*
X32373062Y-1778663D01*
X32289772Y-1843964D01*
X32192246Y-1885077D01*
X32080686Y-1900000D01*
X30325000Y-1900000D01*
X30325000Y1900000D01*
X32004598Y1900000D01*
X32133681Y1879886D01*
%TA.AperFunction,Conductor*%
D14*
G36*
X32133681Y1879886D02*
G01*
X32243512Y1824958D01*
X32331424Y1739216D01*
X32389079Y1630795D01*
X32412413Y1502256D01*
X32424177Y1031703D01*
X32246918Y913263D01*
X32086737Y753082D01*
X31960884Y564729D01*
X31874194Y355443D01*
X31830000Y133265D01*
X31830000Y-93265D01*
X31874194Y-315443D01*
X31960884Y-524729D01*
X32086737Y-713082D01*
X32246918Y-873263D01*
X32435271Y-999116D01*
X32475362Y-1015723D01*
X32487053Y-1483351D01*
X32474922Y-1595244D01*
X32436259Y-1693769D01*
X32373062Y-1778663D01*
X32289772Y-1843964D01*
X32192246Y-1885077D01*
X32080686Y-1900000D01*
X30325000Y-1900000D01*
X30325000Y1900000D01*
X32004598Y1900000D01*
X32133681Y1879886D01*
G37*
%TD.AperFunction*%
%TD*%
D13*
%TO.N,ROW*%
X45675000Y2295103D02*
X45675001Y-2190034D01*
X45598782Y-2200000D01*
X43801218Y-2200000D01*
X43692085Y-2185731D01*
X43596364Y-2146379D01*
X43513971Y-2083736D01*
X43450461Y-2002023D01*
X43410091Y-1906719D01*
X43394662Y-1797747D01*
X43387275Y-1103344D01*
X43475443Y-1085806D01*
X43684729Y-999116D01*
X43873082Y-873263D01*
X44033263Y-713082D01*
X44159116Y-524729D01*
X44245806Y-315443D01*
X44290000Y-93265D01*
X44290000Y133265D01*
X44245806Y355443D01*
X44159116Y564729D01*
X44033263Y753082D01*
X43873082Y913263D01*
X43684729Y1039116D01*
X43475443Y1125806D01*
X43363323Y1148108D01*
X43355440Y1889145D01*
X43368921Y1999880D01*
X43408287Y2097103D01*
X43471628Y2180720D01*
X43554561Y2244942D01*
X43651364Y2285342D01*
X43761946Y2300000D01*
X45638054Y2300000D01*
X45675000Y2295103D01*
%TA.AperFunction,Conductor*%
D14*
G36*
X45675000Y2295103D02*
G01*
X45675001Y-2190034D01*
X45598782Y-2200000D01*
X43801218Y-2200000D01*
X43692085Y-2185731D01*
X43596364Y-2146379D01*
X43513971Y-2083736D01*
X43450461Y-2002023D01*
X43410091Y-1906719D01*
X43394662Y-1797747D01*
X43387275Y-1103344D01*
X43475443Y-1085806D01*
X43684729Y-999116D01*
X43873082Y-873263D01*
X44033263Y-713082D01*
X44159116Y-524729D01*
X44245806Y-315443D01*
X44290000Y-93265D01*
X44290000Y133265D01*
X44245806Y355443D01*
X44159116Y564729D01*
X44033263Y753082D01*
X43873082Y913263D01*
X43684729Y1039116D01*
X43475443Y1125806D01*
X43363323Y1148108D01*
X43355440Y1889145D01*
X43368921Y1999880D01*
X43408287Y2097103D01*
X43471628Y2180720D01*
X43554561Y2244942D01*
X43651364Y2285342D01*
X43761946Y2300000D01*
X45638054Y2300000D01*
X45675000Y2295103D01*
G37*
%TD.AperFunction*%
%TD*%
D13*
%TO.N,COL*%
X39300000Y7593441D02*
X39300000Y5795402D01*
X39279886Y5666319D01*
X39224958Y5556488D01*
X39139216Y5468576D01*
X39030795Y5410921D01*
X38902256Y5387587D01*
X35916649Y5312947D01*
X35804756Y5325078D01*
X35706231Y5363741D01*
X35621337Y5426938D01*
X35556036Y5510228D01*
X35514923Y5607754D01*
X35500000Y5719314D01*
X35500000Y7593441D01*
X35510737Y7675000D01*
X39289263Y7675000D01*
X39300000Y7593441D01*
%TA.AperFunction,Conductor*%
D14*
G36*
X39300000Y7593441D02*
G01*
X39300000Y5795402D01*
X39279886Y5666319D01*
X39224958Y5556488D01*
X39139216Y5468576D01*
X39030795Y5410921D01*
X38902256Y5387587D01*
X35916649Y5312947D01*
X35804756Y5325078D01*
X35706231Y5363741D01*
X35621337Y5426938D01*
X35556036Y5510228D01*
X35514923Y5607754D01*
X35500000Y5719314D01*
X35500000Y7593441D01*
X35510737Y7675000D01*
X39289263Y7675000D01*
X39300000Y7593441D01*
G37*
%TD.AperFunction*%
%TD*%
D13*
%TO.N,COL*%
X39695244Y-5425078D02*
X39793769Y-5463741D01*
X39878663Y-5526938D01*
X39943964Y-5610228D01*
X39985077Y-5707754D01*
X40000000Y-5819314D01*
X40000000Y-7693441D01*
X39985536Y-7803307D01*
X39945664Y-7899567D01*
X39882232Y-7982232D01*
X39799567Y-8045664D01*
X39703307Y-8085536D01*
X39593441Y-8100000D01*
X36606559Y-8100000D01*
X36496693Y-8085536D01*
X36400433Y-8045664D01*
X36317768Y-7982232D01*
X36254336Y-7899567D01*
X36214464Y-7803307D01*
X36200000Y-7693441D01*
X36200000Y-5895402D01*
X36220114Y-5766319D01*
X36275042Y-5656488D01*
X36360784Y-5568576D01*
X36469205Y-5510921D01*
X36597744Y-5487587D01*
X39583351Y-5412947D01*
X39695244Y-5425078D01*
%TA.AperFunction,Conductor*%
D14*
G36*
X39695244Y-5425078D02*
G01*
X39793769Y-5463741D01*
X39878663Y-5526938D01*
X39943964Y-5610228D01*
X39985077Y-5707754D01*
X40000000Y-5819314D01*
X40000000Y-7693441D01*
X39985536Y-7803307D01*
X39945664Y-7899567D01*
X39882232Y-7982232D01*
X39799567Y-8045664D01*
X39703307Y-8085536D01*
X39593441Y-8100000D01*
X36606559Y-8100000D01*
X36496693Y-8085536D01*
X36400433Y-8045664D01*
X36317768Y-7982232D01*
X36254336Y-7899567D01*
X36214464Y-7803307D01*
X36200000Y-7693441D01*
X36200000Y-5895402D01*
X36220114Y-5766319D01*
X36275042Y-5656488D01*
X36360784Y-5568576D01*
X36469205Y-5510921D01*
X36597744Y-5487587D01*
X39583351Y-5412947D01*
X39695244Y-5425078D01*
G37*
%TD.AperFunction*%
%TD*%
D13*
%TO.N,GND*%
X45130805Y7660616D02*
X45256629Y7622627D01*
X45372675Y7560924D01*
X45474532Y7477852D01*
X45558310Y7376582D01*
X45620819Y7260973D01*
X45659686Y7135414D01*
X45675000Y6989715D01*
X45675001Y3505943D01*
X45588066Y3493272D01*
X42811875Y3456744D01*
X42700931Y3469990D01*
X42603479Y3509234D01*
X42519641Y3572549D01*
X42455227Y3655550D01*
X42414705Y3752475D01*
X42400000Y3863230D01*
X42400000Y7550214D01*
X42414217Y7659149D01*
X42420720Y7675000D01*
X44984103Y7675000D01*
X45130805Y7660616D01*
%TA.AperFunction,Conductor*%
D14*
G36*
X45130805Y7660616D02*
G01*
X45256629Y7622627D01*
X45372675Y7560924D01*
X45474532Y7477852D01*
X45558310Y7376582D01*
X45620819Y7260973D01*
X45659686Y7135414D01*
X45675000Y6989715D01*
X45675001Y3505943D01*
X45588066Y3493272D01*
X42811875Y3456744D01*
X42700931Y3469990D01*
X42603479Y3509234D01*
X42519641Y3572549D01*
X42455227Y3655550D01*
X42414705Y3752475D01*
X42400000Y3863230D01*
X42400000Y7550214D01*
X42414217Y7659149D01*
X42420720Y7675000D01*
X44984103Y7675000D01*
X45130805Y7660616D01*
G37*
%TD.AperFunction*%
%TD*%
D13*
%TO.N,VCC*%
X33785536Y7603307D02*
X33800000Y7493441D01*
X33800000Y4506559D01*
X33785536Y4396693D01*
X33745664Y4300433D01*
X33682232Y4217768D01*
X33599567Y4154336D01*
X33503307Y4114464D01*
X33393441Y4100000D01*
X30506559Y4100000D01*
X30396693Y4114464D01*
X30325000Y4144160D01*
X30325000Y6984103D01*
X30339384Y7130805D01*
X30377373Y7256629D01*
X30439076Y7372675D01*
X30522148Y7474532D01*
X30623418Y7558310D01*
X30739027Y7620819D01*
X30864586Y7659686D01*
X31010285Y7675000D01*
X33755840Y7675000D01*
X33785536Y7603307D01*
%TA.AperFunction,Conductor*%
D14*
G36*
X33785536Y7603307D02*
G01*
X33800000Y7493441D01*
X33800000Y4506559D01*
X33785536Y4396693D01*
X33745664Y4300433D01*
X33682232Y4217768D01*
X33599567Y4154336D01*
X33503307Y4114464D01*
X33393441Y4100000D01*
X30506559Y4100000D01*
X30396693Y4114464D01*
X30325000Y4144160D01*
X30325000Y6984103D01*
X30339384Y7130805D01*
X30377373Y7256629D01*
X30439076Y7372675D01*
X30522148Y7474532D01*
X30623418Y7558310D01*
X30739027Y7620819D01*
X30864586Y7659686D01*
X31010285Y7675000D01*
X33755840Y7675000D01*
X33785536Y7603307D01*
G37*
%TD.AperFunction*%
%TD*%
D13*
%TO.N,DO*%
X45558119Y-3614261D02*
X45653820Y-3653591D01*
X45675000Y-3669688D01*
X45675001Y-6984094D01*
X45660616Y-7130805D01*
X45622627Y-7256629D01*
X45560924Y-7372675D01*
X45477853Y-7474531D01*
X45376586Y-7558307D01*
X45260973Y-7620819D01*
X45135410Y-7659687D01*
X44989716Y-7675000D01*
X42149568Y-7675000D01*
X42119121Y-7599725D01*
X42105684Y-7488959D01*
X42144428Y-4002059D01*
X42159899Y-3893129D01*
X42200290Y-3797870D01*
X42263807Y-3716194D01*
X42346180Y-3653591D01*
X42441881Y-3614261D01*
X42550987Y-3600000D01*
X45449013Y-3600000D01*
X45558119Y-3614261D01*
%TA.AperFunction,Conductor*%
D14*
G36*
X45558119Y-3614261D02*
G01*
X45653820Y-3653591D01*
X45675000Y-3669688D01*
X45675001Y-6984094D01*
X45660616Y-7130805D01*
X45622627Y-7256629D01*
X45560924Y-7372675D01*
X45477853Y-7474531D01*
X45376586Y-7558307D01*
X45260973Y-7620819D01*
X45135410Y-7659687D01*
X44989716Y-7675000D01*
X42149568Y-7675000D01*
X42119121Y-7599725D01*
X42105684Y-7488959D01*
X42144428Y-4002059D01*
X42159899Y-3893129D01*
X42200290Y-3797870D01*
X42263807Y-3716194D01*
X42346180Y-3653591D01*
X42441881Y-3614261D01*
X42550987Y-3600000D01*
X45449013Y-3600000D01*
X45558119Y-3614261D01*
G37*
%TD.AperFunction*%
%TD*%
D13*
%TO.N,DI*%
X32433681Y-4020114D02*
X32543512Y-4075042D01*
X32631424Y-4160784D01*
X32689079Y-4269205D01*
X32712413Y-4397744D01*
X32787053Y-7383351D01*
X32774922Y-7495244D01*
X32736259Y-7593769D01*
X32675789Y-7675000D01*
X31015896Y-7675000D01*
X30869195Y-7660616D01*
X30743371Y-7622627D01*
X30627325Y-7560924D01*
X30525469Y-7477853D01*
X30441693Y-7376586D01*
X30379181Y-7260973D01*
X30340313Y-7135410D01*
X30325000Y-6989716D01*
X30325000Y-4044160D01*
X30396693Y-4014464D01*
X30506559Y-4000000D01*
X32304598Y-4000000D01*
X32433681Y-4020114D01*
%TA.AperFunction,Conductor*%
D14*
G36*
X32433681Y-4020114D02*
G01*
X32543512Y-4075042D01*
X32631424Y-4160784D01*
X32689079Y-4269205D01*
X32712413Y-4397744D01*
X32787053Y-7383351D01*
X32774922Y-7495244D01*
X32736259Y-7593769D01*
X32675789Y-7675000D01*
X31015896Y-7675000D01*
X30869195Y-7660616D01*
X30743371Y-7622627D01*
X30627325Y-7560924D01*
X30525469Y-7477853D01*
X30441693Y-7376586D01*
X30379181Y-7260973D01*
X30340313Y-7135410D01*
X30325000Y-6989716D01*
X30325000Y-4044160D01*
X30396693Y-4014464D01*
X30506559Y-4000000D01*
X32304598Y-4000000D01*
X32433681Y-4020114D01*
G37*
%TD.AperFunction*%
%TD*%
D13*
%TO.N,ROW*%
X51133681Y1879886D02*
X51243512Y1824958D01*
X51331424Y1739216D01*
X51389079Y1630795D01*
X51412413Y1502256D01*
X51424177Y1031703D01*
X51246918Y913263D01*
X51086737Y753082D01*
X50960884Y564729D01*
X50874194Y355443D01*
X50830000Y133265D01*
X50830000Y-93265D01*
X50874194Y-315443D01*
X50960884Y-524729D01*
X51086737Y-713082D01*
X51246918Y-873263D01*
X51435271Y-999116D01*
X51475362Y-1015723D01*
X51487053Y-1483351D01*
X51474922Y-1595244D01*
X51436259Y-1693769D01*
X51373062Y-1778663D01*
X51289772Y-1843964D01*
X51192246Y-1885077D01*
X51080686Y-1900000D01*
X49325000Y-1900000D01*
X49325000Y1900000D01*
X51004598Y1900000D01*
X51133681Y1879886D01*
%TA.AperFunction,Conductor*%
D14*
G36*
X51133681Y1879886D02*
G01*
X51243512Y1824958D01*
X51331424Y1739216D01*
X51389079Y1630795D01*
X51412413Y1502256D01*
X51424177Y1031703D01*
X51246918Y913263D01*
X51086737Y753082D01*
X50960884Y564729D01*
X50874194Y355443D01*
X50830000Y133265D01*
X50830000Y-93265D01*
X50874194Y-315443D01*
X50960884Y-524729D01*
X51086737Y-713082D01*
X51246918Y-873263D01*
X51435271Y-999116D01*
X51475362Y-1015723D01*
X51487053Y-1483351D01*
X51474922Y-1595244D01*
X51436259Y-1693769D01*
X51373062Y-1778663D01*
X51289772Y-1843964D01*
X51192246Y-1885077D01*
X51080686Y-1900000D01*
X49325000Y-1900000D01*
X49325000Y1900000D01*
X51004598Y1900000D01*
X51133681Y1879886D01*
G37*
%TD.AperFunction*%
%TD*%
D13*
%TO.N,ROW*%
X64675000Y2295103D02*
X64675001Y-2190034D01*
X64598782Y-2200000D01*
X62801218Y-2200000D01*
X62692085Y-2185731D01*
X62596364Y-2146379D01*
X62513971Y-2083736D01*
X62450461Y-2002023D01*
X62410091Y-1906719D01*
X62394662Y-1797747D01*
X62387275Y-1103344D01*
X62475443Y-1085806D01*
X62684729Y-999116D01*
X62873082Y-873263D01*
X63033263Y-713082D01*
X63159116Y-524729D01*
X63245806Y-315443D01*
X63290000Y-93265D01*
X63290000Y133265D01*
X63245806Y355443D01*
X63159116Y564729D01*
X63033263Y753082D01*
X62873082Y913263D01*
X62684729Y1039116D01*
X62475443Y1125806D01*
X62363323Y1148108D01*
X62355440Y1889145D01*
X62368921Y1999880D01*
X62408287Y2097103D01*
X62471628Y2180720D01*
X62554561Y2244942D01*
X62651364Y2285342D01*
X62761946Y2300000D01*
X64638054Y2300000D01*
X64675000Y2295103D01*
%TA.AperFunction,Conductor*%
D14*
G36*
X64675000Y2295103D02*
G01*
X64675001Y-2190034D01*
X64598782Y-2200000D01*
X62801218Y-2200000D01*
X62692085Y-2185731D01*
X62596364Y-2146379D01*
X62513971Y-2083736D01*
X62450461Y-2002023D01*
X62410091Y-1906719D01*
X62394662Y-1797747D01*
X62387275Y-1103344D01*
X62475443Y-1085806D01*
X62684729Y-999116D01*
X62873082Y-873263D01*
X63033263Y-713082D01*
X63159116Y-524729D01*
X63245806Y-315443D01*
X63290000Y-93265D01*
X63290000Y133265D01*
X63245806Y355443D01*
X63159116Y564729D01*
X63033263Y753082D01*
X62873082Y913263D01*
X62684729Y1039116D01*
X62475443Y1125806D01*
X62363323Y1148108D01*
X62355440Y1889145D01*
X62368921Y1999880D01*
X62408287Y2097103D01*
X62471628Y2180720D01*
X62554561Y2244942D01*
X62651364Y2285342D01*
X62761946Y2300000D01*
X64638054Y2300000D01*
X64675000Y2295103D01*
G37*
%TD.AperFunction*%
%TD*%
D13*
%TO.N,COL*%
X58300000Y7593441D02*
X58300000Y5795402D01*
X58279886Y5666319D01*
X58224958Y5556488D01*
X58139216Y5468576D01*
X58030795Y5410921D01*
X57902256Y5387587D01*
X54916649Y5312947D01*
X54804756Y5325078D01*
X54706231Y5363741D01*
X54621337Y5426938D01*
X54556036Y5510228D01*
X54514923Y5607754D01*
X54500000Y5719314D01*
X54500000Y7593441D01*
X54510737Y7675000D01*
X58289263Y7675000D01*
X58300000Y7593441D01*
%TA.AperFunction,Conductor*%
D14*
G36*
X58300000Y7593441D02*
G01*
X58300000Y5795402D01*
X58279886Y5666319D01*
X58224958Y5556488D01*
X58139216Y5468576D01*
X58030795Y5410921D01*
X57902256Y5387587D01*
X54916649Y5312947D01*
X54804756Y5325078D01*
X54706231Y5363741D01*
X54621337Y5426938D01*
X54556036Y5510228D01*
X54514923Y5607754D01*
X54500000Y5719314D01*
X54500000Y7593441D01*
X54510737Y7675000D01*
X58289263Y7675000D01*
X58300000Y7593441D01*
G37*
%TD.AperFunction*%
%TD*%
D13*
%TO.N,COL*%
X58695244Y-5425078D02*
X58793769Y-5463741D01*
X58878663Y-5526938D01*
X58943964Y-5610228D01*
X58985077Y-5707754D01*
X59000000Y-5819314D01*
X59000000Y-7693441D01*
X58985536Y-7803307D01*
X58945664Y-7899567D01*
X58882232Y-7982232D01*
X58799567Y-8045664D01*
X58703307Y-8085536D01*
X58593441Y-8100000D01*
X55606559Y-8100000D01*
X55496693Y-8085536D01*
X55400433Y-8045664D01*
X55317768Y-7982232D01*
X55254336Y-7899567D01*
X55214464Y-7803307D01*
X55200000Y-7693441D01*
X55200000Y-5895402D01*
X55220114Y-5766319D01*
X55275042Y-5656488D01*
X55360784Y-5568576D01*
X55469205Y-5510921D01*
X55597744Y-5487587D01*
X58583351Y-5412947D01*
X58695244Y-5425078D01*
%TA.AperFunction,Conductor*%
D14*
G36*
X58695244Y-5425078D02*
G01*
X58793769Y-5463741D01*
X58878663Y-5526938D01*
X58943964Y-5610228D01*
X58985077Y-5707754D01*
X59000000Y-5819314D01*
X59000000Y-7693441D01*
X58985536Y-7803307D01*
X58945664Y-7899567D01*
X58882232Y-7982232D01*
X58799567Y-8045664D01*
X58703307Y-8085536D01*
X58593441Y-8100000D01*
X55606559Y-8100000D01*
X55496693Y-8085536D01*
X55400433Y-8045664D01*
X55317768Y-7982232D01*
X55254336Y-7899567D01*
X55214464Y-7803307D01*
X55200000Y-7693441D01*
X55200000Y-5895402D01*
X55220114Y-5766319D01*
X55275042Y-5656488D01*
X55360784Y-5568576D01*
X55469205Y-5510921D01*
X55597744Y-5487587D01*
X58583351Y-5412947D01*
X58695244Y-5425078D01*
G37*
%TD.AperFunction*%
%TD*%
D13*
%TO.N,GND*%
X64130805Y7660616D02*
X64256629Y7622627D01*
X64372675Y7560924D01*
X64474532Y7477852D01*
X64558310Y7376582D01*
X64620819Y7260973D01*
X64659686Y7135414D01*
X64675000Y6989715D01*
X64675001Y3505943D01*
X64588066Y3493272D01*
X61811875Y3456744D01*
X61700931Y3469990D01*
X61603479Y3509234D01*
X61519641Y3572549D01*
X61455227Y3655550D01*
X61414705Y3752475D01*
X61400000Y3863230D01*
X61400000Y7550214D01*
X61414217Y7659149D01*
X61420720Y7675000D01*
X63984103Y7675000D01*
X64130805Y7660616D01*
%TA.AperFunction,Conductor*%
D14*
G36*
X64130805Y7660616D02*
G01*
X64256629Y7622627D01*
X64372675Y7560924D01*
X64474532Y7477852D01*
X64558310Y7376582D01*
X64620819Y7260973D01*
X64659686Y7135414D01*
X64675000Y6989715D01*
X64675001Y3505943D01*
X64588066Y3493272D01*
X61811875Y3456744D01*
X61700931Y3469990D01*
X61603479Y3509234D01*
X61519641Y3572549D01*
X61455227Y3655550D01*
X61414705Y3752475D01*
X61400000Y3863230D01*
X61400000Y7550214D01*
X61414217Y7659149D01*
X61420720Y7675000D01*
X63984103Y7675000D01*
X64130805Y7660616D01*
G37*
%TD.AperFunction*%
%TD*%
D13*
%TO.N,VCC*%
X52785536Y7603307D02*
X52800000Y7493441D01*
X52800000Y4506559D01*
X52785536Y4396693D01*
X52745664Y4300433D01*
X52682232Y4217768D01*
X52599567Y4154336D01*
X52503307Y4114464D01*
X52393441Y4100000D01*
X49506559Y4100000D01*
X49396693Y4114464D01*
X49325000Y4144160D01*
X49325000Y6984103D01*
X49339384Y7130805D01*
X49377373Y7256629D01*
X49439076Y7372675D01*
X49522148Y7474532D01*
X49623418Y7558310D01*
X49739027Y7620819D01*
X49864586Y7659686D01*
X50010285Y7675000D01*
X52755840Y7675000D01*
X52785536Y7603307D01*
%TA.AperFunction,Conductor*%
D14*
G36*
X52785536Y7603307D02*
G01*
X52800000Y7493441D01*
X52800000Y4506559D01*
X52785536Y4396693D01*
X52745664Y4300433D01*
X52682232Y4217768D01*
X52599567Y4154336D01*
X52503307Y4114464D01*
X52393441Y4100000D01*
X49506559Y4100000D01*
X49396693Y4114464D01*
X49325000Y4144160D01*
X49325000Y6984103D01*
X49339384Y7130805D01*
X49377373Y7256629D01*
X49439076Y7372675D01*
X49522148Y7474532D01*
X49623418Y7558310D01*
X49739027Y7620819D01*
X49864586Y7659686D01*
X50010285Y7675000D01*
X52755840Y7675000D01*
X52785536Y7603307D01*
G37*
%TD.AperFunction*%
%TD*%
D13*
%TO.N,DO*%
X64558119Y-3614261D02*
X64653820Y-3653591D01*
X64675000Y-3669688D01*
X64675001Y-6984094D01*
X64660616Y-7130805D01*
X64622627Y-7256629D01*
X64560924Y-7372675D01*
X64477853Y-7474531D01*
X64376586Y-7558307D01*
X64260973Y-7620819D01*
X64135410Y-7659687D01*
X63989716Y-7675000D01*
X61149568Y-7675000D01*
X61119121Y-7599725D01*
X61105684Y-7488959D01*
X61144428Y-4002059D01*
X61159899Y-3893129D01*
X61200290Y-3797870D01*
X61263807Y-3716194D01*
X61346180Y-3653591D01*
X61441881Y-3614261D01*
X61550987Y-3600000D01*
X64449013Y-3600000D01*
X64558119Y-3614261D01*
%TA.AperFunction,Conductor*%
D14*
G36*
X64558119Y-3614261D02*
G01*
X64653820Y-3653591D01*
X64675000Y-3669688D01*
X64675001Y-6984094D01*
X64660616Y-7130805D01*
X64622627Y-7256629D01*
X64560924Y-7372675D01*
X64477853Y-7474531D01*
X64376586Y-7558307D01*
X64260973Y-7620819D01*
X64135410Y-7659687D01*
X63989716Y-7675000D01*
X61149568Y-7675000D01*
X61119121Y-7599725D01*
X61105684Y-7488959D01*
X61144428Y-4002059D01*
X61159899Y-3893129D01*
X61200290Y-3797870D01*
X61263807Y-3716194D01*
X61346180Y-3653591D01*
X61441881Y-3614261D01*
X61550987Y-3600000D01*
X64449013Y-3600000D01*
X64558119Y-3614261D01*
G37*
%TD.AperFunction*%
%TD*%
D13*
%TO.N,DI*%
X51433681Y-4020114D02*
X51543512Y-4075042D01*
X51631424Y-4160784D01*
X51689079Y-4269205D01*
X51712413Y-4397744D01*
X51787053Y-7383351D01*
X51774922Y-7495244D01*
X51736259Y-7593769D01*
X51675789Y-7675000D01*
X50015896Y-7675000D01*
X49869195Y-7660616D01*
X49743371Y-7622627D01*
X49627325Y-7560924D01*
X49525469Y-7477853D01*
X49441693Y-7376586D01*
X49379181Y-7260973D01*
X49340313Y-7135410D01*
X49325000Y-6989716D01*
X49325000Y-4044160D01*
X49396693Y-4014464D01*
X49506559Y-4000000D01*
X51304598Y-4000000D01*
X51433681Y-4020114D01*
%TA.AperFunction,Conductor*%
D14*
G36*
X51433681Y-4020114D02*
G01*
X51543512Y-4075042D01*
X51631424Y-4160784D01*
X51689079Y-4269205D01*
X51712413Y-4397744D01*
X51787053Y-7383351D01*
X51774922Y-7495244D01*
X51736259Y-7593769D01*
X51675789Y-7675000D01*
X50015896Y-7675000D01*
X49869195Y-7660616D01*
X49743371Y-7622627D01*
X49627325Y-7560924D01*
X49525469Y-7477853D01*
X49441693Y-7376586D01*
X49379181Y-7260973D01*
X49340313Y-7135410D01*
X49325000Y-6989716D01*
X49325000Y-4044160D01*
X49396693Y-4014464D01*
X49506559Y-4000000D01*
X51304598Y-4000000D01*
X51433681Y-4020114D01*
G37*
%TD.AperFunction*%
%TD*%
D13*
%TO.N,ROW*%
X-5866319Y-17120114D02*
X-5756488Y-17175042D01*
X-5668576Y-17260784D01*
X-5610921Y-17369205D01*
X-5587587Y-17497744D01*
X-5575823Y-17968297D01*
X-5753082Y-18086737D01*
X-5913263Y-18246918D01*
X-6039116Y-18435271D01*
X-6125806Y-18644557D01*
X-6170000Y-18866735D01*
X-6170000Y-19093265D01*
X-6125806Y-19315443D01*
X-6039116Y-19524729D01*
X-5913263Y-19713082D01*
X-5753082Y-19873263D01*
X-5564729Y-19999116D01*
X-5524638Y-20015723D01*
X-5512947Y-20483351D01*
X-5525078Y-20595244D01*
X-5563741Y-20693769D01*
X-5626938Y-20778663D01*
X-5710228Y-20843964D01*
X-5807754Y-20885077D01*
X-5919314Y-20900000D01*
X-7675000Y-20900000D01*
X-7675000Y-17100000D01*
X-5995402Y-17100000D01*
X-5866319Y-17120114D01*
%TA.AperFunction,Conductor*%
D14*
G36*
X-5866319Y-17120114D02*
G01*
X-5756488Y-17175042D01*
X-5668576Y-17260784D01*
X-5610921Y-17369205D01*
X-5587587Y-17497744D01*
X-5575823Y-17968297D01*
X-5753082Y-18086737D01*
X-5913263Y-18246918D01*
X-6039116Y-18435271D01*
X-6125806Y-18644557D01*
X-6170000Y-18866735D01*
X-6170000Y-19093265D01*
X-6125806Y-19315443D01*
X-6039116Y-19524729D01*
X-5913263Y-19713082D01*
X-5753082Y-19873263D01*
X-5564729Y-19999116D01*
X-5524638Y-20015723D01*
X-5512947Y-20483351D01*
X-5525078Y-20595244D01*
X-5563741Y-20693769D01*
X-5626938Y-20778663D01*
X-5710228Y-20843964D01*
X-5807754Y-20885077D01*
X-5919314Y-20900000D01*
X-7675000Y-20900000D01*
X-7675000Y-17100000D01*
X-5995402Y-17100000D01*
X-5866319Y-17120114D01*
G37*
%TD.AperFunction*%
%TD*%
D13*
%TO.N,ROW*%
X7748636Y-16714658D02*
X7845439Y-16755058D01*
X7928372Y-16819280D01*
X7991713Y-16902897D01*
X8031079Y-17000120D01*
X8044560Y-17110855D01*
X8005338Y-20797747D01*
X7989909Y-20906719D01*
X7949539Y-21002023D01*
X7886029Y-21083736D01*
X7803636Y-21146379D01*
X7707915Y-21185731D01*
X7598782Y-21200000D01*
X5801218Y-21200000D01*
X5692085Y-21185731D01*
X5596364Y-21146379D01*
X5513971Y-21083736D01*
X5450461Y-21002023D01*
X5410091Y-20906719D01*
X5394662Y-20797747D01*
X5387275Y-20103344D01*
X5475443Y-20085806D01*
X5684729Y-19999116D01*
X5873082Y-19873263D01*
X6033263Y-19713082D01*
X6159116Y-19524729D01*
X6245806Y-19315443D01*
X6290000Y-19093265D01*
X6290000Y-18866735D01*
X6245806Y-18644557D01*
X6159116Y-18435271D01*
X6033263Y-18246918D01*
X5873082Y-18086737D01*
X5684729Y-17960884D01*
X5475443Y-17874194D01*
X5363323Y-17851892D01*
X5355440Y-17110855D01*
X5368921Y-17000120D01*
X5408287Y-16902897D01*
X5471628Y-16819280D01*
X5554561Y-16755058D01*
X5651364Y-16714658D01*
X5761946Y-16700000D01*
X7638054Y-16700000D01*
X7748636Y-16714658D01*
%TA.AperFunction,Conductor*%
D14*
G36*
X7748636Y-16714658D02*
G01*
X7845439Y-16755058D01*
X7928372Y-16819280D01*
X7991713Y-16902897D01*
X8031079Y-17000120D01*
X8044560Y-17110855D01*
X8005338Y-20797747D01*
X7989909Y-20906719D01*
X7949539Y-21002023D01*
X7886029Y-21083736D01*
X7803636Y-21146379D01*
X7707915Y-21185731D01*
X7598782Y-21200000D01*
X5801218Y-21200000D01*
X5692085Y-21185731D01*
X5596364Y-21146379D01*
X5513971Y-21083736D01*
X5450461Y-21002023D01*
X5410091Y-20906719D01*
X5394662Y-20797747D01*
X5387275Y-20103344D01*
X5475443Y-20085806D01*
X5684729Y-19999116D01*
X5873082Y-19873263D01*
X6033263Y-19713082D01*
X6159116Y-19524729D01*
X6245806Y-19315443D01*
X6290000Y-19093265D01*
X6290000Y-18866735D01*
X6245806Y-18644557D01*
X6159116Y-18435271D01*
X6033263Y-18246918D01*
X5873082Y-18086737D01*
X5684729Y-17960884D01*
X5475443Y-17874194D01*
X5363323Y-17851892D01*
X5355440Y-17110855D01*
X5368921Y-17000120D01*
X5408287Y-16902897D01*
X5471628Y-16819280D01*
X5554561Y-16755058D01*
X5651364Y-16714658D01*
X5761946Y-16700000D01*
X7638054Y-16700000D01*
X7748636Y-16714658D01*
G37*
%TD.AperFunction*%
%TD*%
D13*
%TO.N,COL*%
X1003307Y-11014464D02*
X1099567Y-11054336D01*
X1182232Y-11117768D01*
X1245664Y-11200433D01*
X1285536Y-11296693D01*
X1300000Y-11406559D01*
X1300000Y-13204598D01*
X1279886Y-13333681D01*
X1224958Y-13443512D01*
X1139216Y-13531424D01*
X1030795Y-13589079D01*
X902256Y-13612413D01*
X-2083351Y-13687053D01*
X-2195244Y-13674922D01*
X-2293769Y-13636259D01*
X-2378663Y-13573062D01*
X-2443964Y-13489772D01*
X-2485077Y-13392246D01*
X-2500000Y-13280686D01*
X-2500000Y-11406559D01*
X-2485536Y-11296693D01*
X-2446036Y-11201330D01*
X-2286230Y-11114924D01*
X-2261808Y-11098451D01*
X-2237161Y-11082322D01*
X-2233644Y-11079454D01*
X-2145958Y-11006914D01*
X-2093441Y-11000000D01*
X893441Y-11000000D01*
X1003307Y-11014464D01*
%TA.AperFunction,Conductor*%
D14*
G36*
X1003307Y-11014464D02*
G01*
X1099567Y-11054336D01*
X1182232Y-11117768D01*
X1245664Y-11200433D01*
X1285536Y-11296693D01*
X1300000Y-11406559D01*
X1300000Y-13204598D01*
X1279886Y-13333681D01*
X1224958Y-13443512D01*
X1139216Y-13531424D01*
X1030795Y-13589079D01*
X902256Y-13612413D01*
X-2083351Y-13687053D01*
X-2195244Y-13674922D01*
X-2293769Y-13636259D01*
X-2378663Y-13573062D01*
X-2443964Y-13489772D01*
X-2485077Y-13392246D01*
X-2500000Y-13280686D01*
X-2500000Y-11406559D01*
X-2485536Y-11296693D01*
X-2446036Y-11201330D01*
X-2286230Y-11114924D01*
X-2261808Y-11098451D01*
X-2237161Y-11082322D01*
X-2233644Y-11079454D01*
X-2145958Y-11006914D01*
X-2093441Y-11000000D01*
X893441Y-11000000D01*
X1003307Y-11014464D01*
G37*
%TD.AperFunction*%
%TD*%
D13*
%TO.N,COL*%
X1695244Y-24425078D02*
X1793769Y-24463741D01*
X1878663Y-24526938D01*
X1943964Y-24610228D01*
X1985077Y-24707754D01*
X2000000Y-24819314D01*
X2000000Y-26693441D01*
X1985536Y-26803307D01*
X1945664Y-26899567D01*
X1882232Y-26982232D01*
X1799567Y-27045664D01*
X1703307Y-27085536D01*
X1593441Y-27100000D01*
X-1393441Y-27100000D01*
X-1503307Y-27085536D01*
X-1599567Y-27045664D01*
X-1682232Y-26982232D01*
X-1745664Y-26899567D01*
X-1785536Y-26803307D01*
X-1800000Y-26693441D01*
X-1800000Y-24895402D01*
X-1779886Y-24766319D01*
X-1724958Y-24656488D01*
X-1639216Y-24568576D01*
X-1530795Y-24510921D01*
X-1402256Y-24487587D01*
X1583351Y-24412947D01*
X1695244Y-24425078D01*
%TA.AperFunction,Conductor*%
D14*
G36*
X1695244Y-24425078D02*
G01*
X1793769Y-24463741D01*
X1878663Y-24526938D01*
X1943964Y-24610228D01*
X1985077Y-24707754D01*
X2000000Y-24819314D01*
X2000000Y-26693441D01*
X1985536Y-26803307D01*
X1945664Y-26899567D01*
X1882232Y-26982232D01*
X1799567Y-27045664D01*
X1703307Y-27085536D01*
X1593441Y-27100000D01*
X-1393441Y-27100000D01*
X-1503307Y-27085536D01*
X-1599567Y-27045664D01*
X-1682232Y-26982232D01*
X-1745664Y-26899567D01*
X-1785536Y-26803307D01*
X-1800000Y-26693441D01*
X-1800000Y-24895402D01*
X-1779886Y-24766319D01*
X-1724958Y-24656488D01*
X-1639216Y-24568576D01*
X-1530795Y-24510921D01*
X-1402256Y-24487587D01*
X1583351Y-24412947D01*
X1695244Y-24425078D01*
G37*
%TD.AperFunction*%
%TD*%
D13*
%TO.N,GND*%
X7130805Y-11339384D02*
X7256629Y-11377373D01*
X7372675Y-11439076D01*
X7474532Y-11522148D01*
X7558310Y-11623418D01*
X7620819Y-11739027D01*
X7659686Y-11864586D01*
X7675000Y-12010285D01*
X7675001Y-15494057D01*
X7588066Y-15506728D01*
X4811875Y-15543256D01*
X4700931Y-15530010D01*
X4603479Y-15490766D01*
X4519641Y-15427451D01*
X4455227Y-15344450D01*
X4414705Y-15247525D01*
X4400000Y-15136770D01*
X4400000Y-11449786D01*
X4414217Y-11340851D01*
X4420720Y-11325000D01*
X6984103Y-11325000D01*
X7130805Y-11339384D01*
%TA.AperFunction,Conductor*%
D14*
G36*
X7130805Y-11339384D02*
G01*
X7256629Y-11377373D01*
X7372675Y-11439076D01*
X7474532Y-11522148D01*
X7558310Y-11623418D01*
X7620819Y-11739027D01*
X7659686Y-11864586D01*
X7675000Y-12010285D01*
X7675001Y-15494057D01*
X7588066Y-15506728D01*
X4811875Y-15543256D01*
X4700931Y-15530010D01*
X4603479Y-15490766D01*
X4519641Y-15427451D01*
X4455227Y-15344450D01*
X4414705Y-15247525D01*
X4400000Y-15136770D01*
X4400000Y-11449786D01*
X4414217Y-11340851D01*
X4420720Y-11325000D01*
X6984103Y-11325000D01*
X7130805Y-11339384D01*
G37*
%TD.AperFunction*%
%TD*%
D13*
%TO.N,VCC*%
X-4214464Y-11396693D02*
X-4200000Y-11506559D01*
X-4200000Y-14493441D01*
X-4214464Y-14603307D01*
X-4254336Y-14699567D01*
X-4317768Y-14782232D01*
X-4400433Y-14845664D01*
X-4496693Y-14885536D01*
X-4606559Y-14900000D01*
X-7493441Y-14900000D01*
X-7603307Y-14885536D01*
X-7675000Y-14855840D01*
X-7675000Y-12015897D01*
X-7660616Y-11869195D01*
X-7622627Y-11743371D01*
X-7560924Y-11627325D01*
X-7477852Y-11525468D01*
X-7376582Y-11441690D01*
X-7260973Y-11379181D01*
X-7135414Y-11340314D01*
X-6989715Y-11325000D01*
X-4244160Y-11325000D01*
X-4214464Y-11396693D01*
%TA.AperFunction,Conductor*%
D14*
G36*
X-4214464Y-11396693D02*
G01*
X-4200000Y-11506559D01*
X-4200000Y-14493441D01*
X-4214464Y-14603307D01*
X-4254336Y-14699567D01*
X-4317768Y-14782232D01*
X-4400433Y-14845664D01*
X-4496693Y-14885536D01*
X-4606559Y-14900000D01*
X-7493441Y-14900000D01*
X-7603307Y-14885536D01*
X-7675000Y-14855840D01*
X-7675000Y-12015897D01*
X-7660616Y-11869195D01*
X-7622627Y-11743371D01*
X-7560924Y-11627325D01*
X-7477852Y-11525468D01*
X-7376582Y-11441690D01*
X-7260973Y-11379181D01*
X-7135414Y-11340314D01*
X-6989715Y-11325000D01*
X-4244160Y-11325000D01*
X-4214464Y-11396693D01*
G37*
%TD.AperFunction*%
%TD*%
D13*
%TO.N,DO*%
X7558119Y-22614261D02*
X7653820Y-22653591D01*
X7675000Y-22669688D01*
X7675001Y-25984094D01*
X7660616Y-26130805D01*
X7622627Y-26256629D01*
X7560924Y-26372675D01*
X7477853Y-26474531D01*
X7376586Y-26558307D01*
X7260973Y-26620819D01*
X7135410Y-26659687D01*
X6989716Y-26675000D01*
X4149568Y-26675000D01*
X4119121Y-26599725D01*
X4105684Y-26488959D01*
X4144428Y-23002059D01*
X4159899Y-22893129D01*
X4200290Y-22797870D01*
X4263807Y-22716194D01*
X4346180Y-22653591D01*
X4441881Y-22614261D01*
X4550987Y-22600000D01*
X7449013Y-22600000D01*
X7558119Y-22614261D01*
%TA.AperFunction,Conductor*%
D14*
G36*
X7558119Y-22614261D02*
G01*
X7653820Y-22653591D01*
X7675000Y-22669688D01*
X7675001Y-25984094D01*
X7660616Y-26130805D01*
X7622627Y-26256629D01*
X7560924Y-26372675D01*
X7477853Y-26474531D01*
X7376586Y-26558307D01*
X7260973Y-26620819D01*
X7135410Y-26659687D01*
X6989716Y-26675000D01*
X4149568Y-26675000D01*
X4119121Y-26599725D01*
X4105684Y-26488959D01*
X4144428Y-23002059D01*
X4159899Y-22893129D01*
X4200290Y-22797870D01*
X4263807Y-22716194D01*
X4346180Y-22653591D01*
X4441881Y-22614261D01*
X4550987Y-22600000D01*
X7449013Y-22600000D01*
X7558119Y-22614261D01*
G37*
%TD.AperFunction*%
%TD*%
D13*
%TO.N,DI*%
X-5566319Y-23020114D02*
X-5456488Y-23075042D01*
X-5368576Y-23160784D01*
X-5310921Y-23269205D01*
X-5287587Y-23397744D01*
X-5212947Y-26383351D01*
X-5225078Y-26495244D01*
X-5263741Y-26593769D01*
X-5324211Y-26675000D01*
X-6984104Y-26675000D01*
X-7130805Y-26660616D01*
X-7256629Y-26622627D01*
X-7372675Y-26560924D01*
X-7474531Y-26477853D01*
X-7558307Y-26376586D01*
X-7620819Y-26260973D01*
X-7659687Y-26135410D01*
X-7675000Y-25989716D01*
X-7675000Y-23044160D01*
X-7603307Y-23014464D01*
X-7493441Y-23000000D01*
X-5695402Y-23000000D01*
X-5566319Y-23020114D01*
%TA.AperFunction,Conductor*%
D14*
G36*
X-5566319Y-23020114D02*
G01*
X-5456488Y-23075042D01*
X-5368576Y-23160784D01*
X-5310921Y-23269205D01*
X-5287587Y-23397744D01*
X-5212947Y-26383351D01*
X-5225078Y-26495244D01*
X-5263741Y-26593769D01*
X-5324211Y-26675000D01*
X-6984104Y-26675000D01*
X-7130805Y-26660616D01*
X-7256629Y-26622627D01*
X-7372675Y-26560924D01*
X-7474531Y-26477853D01*
X-7558307Y-26376586D01*
X-7620819Y-26260973D01*
X-7659687Y-26135410D01*
X-7675000Y-25989716D01*
X-7675000Y-23044160D01*
X-7603307Y-23014464D01*
X-7493441Y-23000000D01*
X-5695402Y-23000000D01*
X-5566319Y-23020114D01*
G37*
%TD.AperFunction*%
%TD*%
D13*
%TO.N,ROW*%
X13133681Y-17120114D02*
X13243512Y-17175042D01*
X13331424Y-17260784D01*
X13389079Y-17369205D01*
X13412413Y-17497744D01*
X13424177Y-17968297D01*
X13246918Y-18086737D01*
X13086737Y-18246918D01*
X12960884Y-18435271D01*
X12874194Y-18644557D01*
X12830000Y-18866735D01*
X12830000Y-19093265D01*
X12874194Y-19315443D01*
X12960884Y-19524729D01*
X13086737Y-19713082D01*
X13246918Y-19873263D01*
X13435271Y-19999116D01*
X13475362Y-20015723D01*
X13487053Y-20483351D01*
X13474922Y-20595244D01*
X13436259Y-20693769D01*
X13373062Y-20778663D01*
X13289772Y-20843964D01*
X13192246Y-20885077D01*
X13080686Y-20900000D01*
X11206559Y-20900000D01*
X11096693Y-20885536D01*
X11000433Y-20845664D01*
X10917768Y-20782232D01*
X10854336Y-20699567D01*
X10814464Y-20603307D01*
X10800000Y-20493441D01*
X10800000Y-17506559D01*
X10814464Y-17396693D01*
X10854336Y-17300433D01*
X10917768Y-17217768D01*
X11000433Y-17154336D01*
X11096693Y-17114464D01*
X11206559Y-17100000D01*
X13004598Y-17100000D01*
X13133681Y-17120114D01*
%TA.AperFunction,Conductor*%
D14*
G36*
X13133681Y-17120114D02*
G01*
X13243512Y-17175042D01*
X13331424Y-17260784D01*
X13389079Y-17369205D01*
X13412413Y-17497744D01*
X13424177Y-17968297D01*
X13246918Y-18086737D01*
X13086737Y-18246918D01*
X12960884Y-18435271D01*
X12874194Y-18644557D01*
X12830000Y-18866735D01*
X12830000Y-19093265D01*
X12874194Y-19315443D01*
X12960884Y-19524729D01*
X13086737Y-19713082D01*
X13246918Y-19873263D01*
X13435271Y-19999116D01*
X13475362Y-20015723D01*
X13487053Y-20483351D01*
X13474922Y-20595244D01*
X13436259Y-20693769D01*
X13373062Y-20778663D01*
X13289772Y-20843964D01*
X13192246Y-20885077D01*
X13080686Y-20900000D01*
X11206559Y-20900000D01*
X11096693Y-20885536D01*
X11000433Y-20845664D01*
X10917768Y-20782232D01*
X10854336Y-20699567D01*
X10814464Y-20603307D01*
X10800000Y-20493441D01*
X10800000Y-17506559D01*
X10814464Y-17396693D01*
X10854336Y-17300433D01*
X10917768Y-17217768D01*
X11000433Y-17154336D01*
X11096693Y-17114464D01*
X11206559Y-17100000D01*
X13004598Y-17100000D01*
X13133681Y-17120114D01*
G37*
%TD.AperFunction*%
%TD*%
D13*
%TO.N,ROW*%
X26748636Y-16714658D02*
X26845439Y-16755058D01*
X26928372Y-16819280D01*
X26991713Y-16902897D01*
X27031079Y-17000120D01*
X27044560Y-17110855D01*
X27005338Y-20797747D01*
X26989909Y-20906719D01*
X26949539Y-21002023D01*
X26886029Y-21083736D01*
X26803636Y-21146379D01*
X26707915Y-21185731D01*
X26598782Y-21200000D01*
X24801218Y-21200000D01*
X24692085Y-21185731D01*
X24596364Y-21146379D01*
X24513971Y-21083736D01*
X24450461Y-21002023D01*
X24410091Y-20906719D01*
X24394662Y-20797747D01*
X24387275Y-20103344D01*
X24475443Y-20085806D01*
X24684729Y-19999116D01*
X24873082Y-19873263D01*
X25033263Y-19713082D01*
X25159116Y-19524729D01*
X25245806Y-19315443D01*
X25290000Y-19093265D01*
X25290000Y-18866735D01*
X25245806Y-18644557D01*
X25159116Y-18435271D01*
X25033263Y-18246918D01*
X24873082Y-18086737D01*
X24684729Y-17960884D01*
X24475443Y-17874194D01*
X24363323Y-17851892D01*
X24355440Y-17110855D01*
X24368921Y-17000120D01*
X24408287Y-16902897D01*
X24471628Y-16819280D01*
X24554561Y-16755058D01*
X24651364Y-16714658D01*
X24761946Y-16700000D01*
X26638054Y-16700000D01*
X26748636Y-16714658D01*
%TA.AperFunction,Conductor*%
D14*
G36*
X26748636Y-16714658D02*
G01*
X26845439Y-16755058D01*
X26928372Y-16819280D01*
X26991713Y-16902897D01*
X27031079Y-17000120D01*
X27044560Y-17110855D01*
X27005338Y-20797747D01*
X26989909Y-20906719D01*
X26949539Y-21002023D01*
X26886029Y-21083736D01*
X26803636Y-21146379D01*
X26707915Y-21185731D01*
X26598782Y-21200000D01*
X24801218Y-21200000D01*
X24692085Y-21185731D01*
X24596364Y-21146379D01*
X24513971Y-21083736D01*
X24450461Y-21002023D01*
X24410091Y-20906719D01*
X24394662Y-20797747D01*
X24387275Y-20103344D01*
X24475443Y-20085806D01*
X24684729Y-19999116D01*
X24873082Y-19873263D01*
X25033263Y-19713082D01*
X25159116Y-19524729D01*
X25245806Y-19315443D01*
X25290000Y-19093265D01*
X25290000Y-18866735D01*
X25245806Y-18644557D01*
X25159116Y-18435271D01*
X25033263Y-18246918D01*
X24873082Y-18086737D01*
X24684729Y-17960884D01*
X24475443Y-17874194D01*
X24363323Y-17851892D01*
X24355440Y-17110855D01*
X24368921Y-17000120D01*
X24408287Y-16902897D01*
X24471628Y-16819280D01*
X24554561Y-16755058D01*
X24651364Y-16714658D01*
X24761946Y-16700000D01*
X26638054Y-16700000D01*
X26748636Y-16714658D01*
G37*
%TD.AperFunction*%
%TD*%
D13*
%TO.N,COL*%
X20003307Y-11014464D02*
X20099567Y-11054336D01*
X20182232Y-11117768D01*
X20245664Y-11200433D01*
X20285536Y-11296693D01*
X20300000Y-11406559D01*
X20300000Y-13204598D01*
X20279886Y-13333681D01*
X20224958Y-13443512D01*
X20139216Y-13531424D01*
X20030795Y-13589079D01*
X19902256Y-13612413D01*
X16916649Y-13687053D01*
X16804756Y-13674922D01*
X16706231Y-13636259D01*
X16621337Y-13573062D01*
X16556036Y-13489772D01*
X16514923Y-13392246D01*
X16500000Y-13280686D01*
X16500000Y-11406559D01*
X16514464Y-11296693D01*
X16553964Y-11201330D01*
X16713770Y-11114924D01*
X16738192Y-11098451D01*
X16762839Y-11082322D01*
X16766356Y-11079454D01*
X16854042Y-11006914D01*
X16906559Y-11000000D01*
X19893441Y-11000000D01*
X20003307Y-11014464D01*
%TA.AperFunction,Conductor*%
D14*
G36*
X20003307Y-11014464D02*
G01*
X20099567Y-11054336D01*
X20182232Y-11117768D01*
X20245664Y-11200433D01*
X20285536Y-11296693D01*
X20300000Y-11406559D01*
X20300000Y-13204598D01*
X20279886Y-13333681D01*
X20224958Y-13443512D01*
X20139216Y-13531424D01*
X20030795Y-13589079D01*
X19902256Y-13612413D01*
X16916649Y-13687053D01*
X16804756Y-13674922D01*
X16706231Y-13636259D01*
X16621337Y-13573062D01*
X16556036Y-13489772D01*
X16514923Y-13392246D01*
X16500000Y-13280686D01*
X16500000Y-11406559D01*
X16514464Y-11296693D01*
X16553964Y-11201330D01*
X16713770Y-11114924D01*
X16738192Y-11098451D01*
X16762839Y-11082322D01*
X16766356Y-11079454D01*
X16854042Y-11006914D01*
X16906559Y-11000000D01*
X19893441Y-11000000D01*
X20003307Y-11014464D01*
G37*
%TD.AperFunction*%
%TD*%
D13*
%TO.N,COL*%
X20695244Y-24425078D02*
X20793769Y-24463741D01*
X20878663Y-24526938D01*
X20943964Y-24610228D01*
X20985077Y-24707754D01*
X21000000Y-24819314D01*
X21000000Y-26693441D01*
X20985536Y-26803307D01*
X20945664Y-26899567D01*
X20882232Y-26982232D01*
X20799567Y-27045664D01*
X20703307Y-27085536D01*
X20593441Y-27100000D01*
X17606559Y-27100000D01*
X17496693Y-27085536D01*
X17400433Y-27045664D01*
X17317768Y-26982232D01*
X17254336Y-26899567D01*
X17214464Y-26803307D01*
X17200000Y-26693441D01*
X17200000Y-24895402D01*
X17220114Y-24766319D01*
X17275042Y-24656488D01*
X17360784Y-24568576D01*
X17469205Y-24510921D01*
X17597744Y-24487587D01*
X20583351Y-24412947D01*
X20695244Y-24425078D01*
%TA.AperFunction,Conductor*%
D14*
G36*
X20695244Y-24425078D02*
G01*
X20793769Y-24463741D01*
X20878663Y-24526938D01*
X20943964Y-24610228D01*
X20985077Y-24707754D01*
X21000000Y-24819314D01*
X21000000Y-26693441D01*
X20985536Y-26803307D01*
X20945664Y-26899567D01*
X20882232Y-26982232D01*
X20799567Y-27045664D01*
X20703307Y-27085536D01*
X20593441Y-27100000D01*
X17606559Y-27100000D01*
X17496693Y-27085536D01*
X17400433Y-27045664D01*
X17317768Y-26982232D01*
X17254336Y-26899567D01*
X17214464Y-26803307D01*
X17200000Y-26693441D01*
X17200000Y-24895402D01*
X17220114Y-24766319D01*
X17275042Y-24656488D01*
X17360784Y-24568576D01*
X17469205Y-24510921D01*
X17597744Y-24487587D01*
X20583351Y-24412947D01*
X20695244Y-24425078D01*
G37*
%TD.AperFunction*%
%TD*%
D13*
%TO.N,GND*%
X26130805Y-11339384D02*
X26256629Y-11377373D01*
X26372675Y-11439076D01*
X26474532Y-11522148D01*
X26558310Y-11623418D01*
X26620819Y-11739027D01*
X26659686Y-11864586D01*
X26675000Y-12010285D01*
X26675001Y-15494057D01*
X26588066Y-15506728D01*
X23811875Y-15543256D01*
X23700931Y-15530010D01*
X23603479Y-15490766D01*
X23519641Y-15427451D01*
X23455227Y-15344450D01*
X23414705Y-15247525D01*
X23400000Y-15136770D01*
X23400000Y-11449786D01*
X23414217Y-11340851D01*
X23420720Y-11325000D01*
X25984103Y-11325000D01*
X26130805Y-11339384D01*
%TA.AperFunction,Conductor*%
D14*
G36*
X26130805Y-11339384D02*
G01*
X26256629Y-11377373D01*
X26372675Y-11439076D01*
X26474532Y-11522148D01*
X26558310Y-11623418D01*
X26620819Y-11739027D01*
X26659686Y-11864586D01*
X26675000Y-12010285D01*
X26675001Y-15494057D01*
X26588066Y-15506728D01*
X23811875Y-15543256D01*
X23700931Y-15530010D01*
X23603479Y-15490766D01*
X23519641Y-15427451D01*
X23455227Y-15344450D01*
X23414705Y-15247525D01*
X23400000Y-15136770D01*
X23400000Y-11449786D01*
X23414217Y-11340851D01*
X23420720Y-11325000D01*
X25984103Y-11325000D01*
X26130805Y-11339384D01*
G37*
%TD.AperFunction*%
%TD*%
D13*
%TO.N,VCC*%
X14785536Y-11396693D02*
X14800000Y-11506559D01*
X14800000Y-14493441D01*
X14785536Y-14603307D01*
X14745664Y-14699567D01*
X14682232Y-14782232D01*
X14599567Y-14845664D01*
X14503307Y-14885536D01*
X14393441Y-14900000D01*
X11506559Y-14900000D01*
X11396693Y-14885536D01*
X11325000Y-14855840D01*
X11325000Y-12015897D01*
X11339384Y-11869195D01*
X11377373Y-11743371D01*
X11439076Y-11627325D01*
X11522148Y-11525468D01*
X11623418Y-11441690D01*
X11739027Y-11379181D01*
X11864586Y-11340314D01*
X12010285Y-11325000D01*
X14755840Y-11325000D01*
X14785536Y-11396693D01*
%TA.AperFunction,Conductor*%
D14*
G36*
X14785536Y-11396693D02*
G01*
X14800000Y-11506559D01*
X14800000Y-14493441D01*
X14785536Y-14603307D01*
X14745664Y-14699567D01*
X14682232Y-14782232D01*
X14599567Y-14845664D01*
X14503307Y-14885536D01*
X14393441Y-14900000D01*
X11506559Y-14900000D01*
X11396693Y-14885536D01*
X11325000Y-14855840D01*
X11325000Y-12015897D01*
X11339384Y-11869195D01*
X11377373Y-11743371D01*
X11439076Y-11627325D01*
X11522148Y-11525468D01*
X11623418Y-11441690D01*
X11739027Y-11379181D01*
X11864586Y-11340314D01*
X12010285Y-11325000D01*
X14755840Y-11325000D01*
X14785536Y-11396693D01*
G37*
%TD.AperFunction*%
%TD*%
D13*
%TO.N,DO*%
X26558119Y-22614261D02*
X26653820Y-22653591D01*
X26675000Y-22669688D01*
X26675001Y-25984094D01*
X26660616Y-26130805D01*
X26622627Y-26256629D01*
X26560924Y-26372675D01*
X26477853Y-26474531D01*
X26376586Y-26558307D01*
X26260973Y-26620819D01*
X26135410Y-26659687D01*
X25989716Y-26675000D01*
X23149568Y-26675000D01*
X23119121Y-26599725D01*
X23105684Y-26488959D01*
X23144428Y-23002059D01*
X23159899Y-22893129D01*
X23200290Y-22797870D01*
X23263807Y-22716194D01*
X23346180Y-22653591D01*
X23441881Y-22614261D01*
X23550987Y-22600000D01*
X26449013Y-22600000D01*
X26558119Y-22614261D01*
%TA.AperFunction,Conductor*%
D14*
G36*
X26558119Y-22614261D02*
G01*
X26653820Y-22653591D01*
X26675000Y-22669688D01*
X26675001Y-25984094D01*
X26660616Y-26130805D01*
X26622627Y-26256629D01*
X26560924Y-26372675D01*
X26477853Y-26474531D01*
X26376586Y-26558307D01*
X26260973Y-26620819D01*
X26135410Y-26659687D01*
X25989716Y-26675000D01*
X23149568Y-26675000D01*
X23119121Y-26599725D01*
X23105684Y-26488959D01*
X23144428Y-23002059D01*
X23159899Y-22893129D01*
X23200290Y-22797870D01*
X23263807Y-22716194D01*
X23346180Y-22653591D01*
X23441881Y-22614261D01*
X23550987Y-22600000D01*
X26449013Y-22600000D01*
X26558119Y-22614261D01*
G37*
%TD.AperFunction*%
%TD*%
D13*
%TO.N,DI*%
X13433681Y-23020114D02*
X13543512Y-23075042D01*
X13631424Y-23160784D01*
X13689079Y-23269205D01*
X13712413Y-23397744D01*
X13787053Y-26383351D01*
X13774922Y-26495244D01*
X13736259Y-26593769D01*
X13675789Y-26675000D01*
X12015896Y-26675000D01*
X11869195Y-26660616D01*
X11743371Y-26622627D01*
X11627325Y-26560924D01*
X11525469Y-26477853D01*
X11441693Y-26376586D01*
X11379181Y-26260973D01*
X11340313Y-26135410D01*
X11325000Y-25989716D01*
X11325000Y-23044160D01*
X11396693Y-23014464D01*
X11506559Y-23000000D01*
X13304598Y-23000000D01*
X13433681Y-23020114D01*
%TA.AperFunction,Conductor*%
D14*
G36*
X13433681Y-23020114D02*
G01*
X13543512Y-23075042D01*
X13631424Y-23160784D01*
X13689079Y-23269205D01*
X13712413Y-23397744D01*
X13787053Y-26383351D01*
X13774922Y-26495244D01*
X13736259Y-26593769D01*
X13675789Y-26675000D01*
X12015896Y-26675000D01*
X11869195Y-26660616D01*
X11743371Y-26622627D01*
X11627325Y-26560924D01*
X11525469Y-26477853D01*
X11441693Y-26376586D01*
X11379181Y-26260973D01*
X11340313Y-26135410D01*
X11325000Y-25989716D01*
X11325000Y-23044160D01*
X11396693Y-23014464D01*
X11506559Y-23000000D01*
X13304598Y-23000000D01*
X13433681Y-23020114D01*
G37*
%TD.AperFunction*%
%TD*%
D13*
%TO.N,ROW*%
X32133681Y-17120114D02*
X32243512Y-17175042D01*
X32331424Y-17260784D01*
X32389079Y-17369205D01*
X32412413Y-17497744D01*
X32424177Y-17968297D01*
X32246918Y-18086737D01*
X32086737Y-18246918D01*
X31960884Y-18435271D01*
X31874194Y-18644557D01*
X31830000Y-18866735D01*
X31830000Y-19093265D01*
X31874194Y-19315443D01*
X31960884Y-19524729D01*
X32086737Y-19713082D01*
X32246918Y-19873263D01*
X32435271Y-19999116D01*
X32475362Y-20015723D01*
X32487053Y-20483351D01*
X32474922Y-20595244D01*
X32436259Y-20693769D01*
X32373062Y-20778663D01*
X32289772Y-20843964D01*
X32192246Y-20885077D01*
X32080686Y-20900000D01*
X30206559Y-20900000D01*
X30096693Y-20885536D01*
X30000433Y-20845664D01*
X29917768Y-20782232D01*
X29854336Y-20699567D01*
X29814464Y-20603307D01*
X29800000Y-20493441D01*
X29800000Y-17506559D01*
X29814464Y-17396693D01*
X29854336Y-17300433D01*
X29917768Y-17217768D01*
X30000433Y-17154336D01*
X30096693Y-17114464D01*
X30206559Y-17100000D01*
X32004598Y-17100000D01*
X32133681Y-17120114D01*
%TA.AperFunction,Conductor*%
D14*
G36*
X32133681Y-17120114D02*
G01*
X32243512Y-17175042D01*
X32331424Y-17260784D01*
X32389079Y-17369205D01*
X32412413Y-17497744D01*
X32424177Y-17968297D01*
X32246918Y-18086737D01*
X32086737Y-18246918D01*
X31960884Y-18435271D01*
X31874194Y-18644557D01*
X31830000Y-18866735D01*
X31830000Y-19093265D01*
X31874194Y-19315443D01*
X31960884Y-19524729D01*
X32086737Y-19713082D01*
X32246918Y-19873263D01*
X32435271Y-19999116D01*
X32475362Y-20015723D01*
X32487053Y-20483351D01*
X32474922Y-20595244D01*
X32436259Y-20693769D01*
X32373062Y-20778663D01*
X32289772Y-20843964D01*
X32192246Y-20885077D01*
X32080686Y-20900000D01*
X30206559Y-20900000D01*
X30096693Y-20885536D01*
X30000433Y-20845664D01*
X29917768Y-20782232D01*
X29854336Y-20699567D01*
X29814464Y-20603307D01*
X29800000Y-20493441D01*
X29800000Y-17506559D01*
X29814464Y-17396693D01*
X29854336Y-17300433D01*
X29917768Y-17217768D01*
X30000433Y-17154336D01*
X30096693Y-17114464D01*
X30206559Y-17100000D01*
X32004598Y-17100000D01*
X32133681Y-17120114D01*
G37*
%TD.AperFunction*%
%TD*%
D13*
%TO.N,ROW*%
X45748636Y-16714658D02*
X45845439Y-16755058D01*
X45928372Y-16819280D01*
X45991713Y-16902897D01*
X46031079Y-17000120D01*
X46044560Y-17110855D01*
X46005338Y-20797747D01*
X45989909Y-20906719D01*
X45949539Y-21002023D01*
X45886029Y-21083736D01*
X45803636Y-21146379D01*
X45707915Y-21185731D01*
X45598782Y-21200000D01*
X43801218Y-21200000D01*
X43692085Y-21185731D01*
X43596364Y-21146379D01*
X43513971Y-21083736D01*
X43450461Y-21002023D01*
X43410091Y-20906719D01*
X43394662Y-20797747D01*
X43387275Y-20103344D01*
X43475443Y-20085806D01*
X43684729Y-19999116D01*
X43873082Y-19873263D01*
X44033263Y-19713082D01*
X44159116Y-19524729D01*
X44245806Y-19315443D01*
X44290000Y-19093265D01*
X44290000Y-18866735D01*
X44245806Y-18644557D01*
X44159116Y-18435271D01*
X44033263Y-18246918D01*
X43873082Y-18086737D01*
X43684729Y-17960884D01*
X43475443Y-17874194D01*
X43363323Y-17851892D01*
X43355440Y-17110855D01*
X43368921Y-17000120D01*
X43408287Y-16902897D01*
X43471628Y-16819280D01*
X43554561Y-16755058D01*
X43651364Y-16714658D01*
X43761946Y-16700000D01*
X45638054Y-16700000D01*
X45748636Y-16714658D01*
%TA.AperFunction,Conductor*%
D14*
G36*
X45748636Y-16714658D02*
G01*
X45845439Y-16755058D01*
X45928372Y-16819280D01*
X45991713Y-16902897D01*
X46031079Y-17000120D01*
X46044560Y-17110855D01*
X46005338Y-20797747D01*
X45989909Y-20906719D01*
X45949539Y-21002023D01*
X45886029Y-21083736D01*
X45803636Y-21146379D01*
X45707915Y-21185731D01*
X45598782Y-21200000D01*
X43801218Y-21200000D01*
X43692085Y-21185731D01*
X43596364Y-21146379D01*
X43513971Y-21083736D01*
X43450461Y-21002023D01*
X43410091Y-20906719D01*
X43394662Y-20797747D01*
X43387275Y-20103344D01*
X43475443Y-20085806D01*
X43684729Y-19999116D01*
X43873082Y-19873263D01*
X44033263Y-19713082D01*
X44159116Y-19524729D01*
X44245806Y-19315443D01*
X44290000Y-19093265D01*
X44290000Y-18866735D01*
X44245806Y-18644557D01*
X44159116Y-18435271D01*
X44033263Y-18246918D01*
X43873082Y-18086737D01*
X43684729Y-17960884D01*
X43475443Y-17874194D01*
X43363323Y-17851892D01*
X43355440Y-17110855D01*
X43368921Y-17000120D01*
X43408287Y-16902897D01*
X43471628Y-16819280D01*
X43554561Y-16755058D01*
X43651364Y-16714658D01*
X43761946Y-16700000D01*
X45638054Y-16700000D01*
X45748636Y-16714658D01*
G37*
%TD.AperFunction*%
%TD*%
D13*
%TO.N,COL*%
X39003307Y-11014464D02*
X39099567Y-11054336D01*
X39182232Y-11117768D01*
X39245664Y-11200433D01*
X39285536Y-11296693D01*
X39300000Y-11406559D01*
X39300000Y-13204598D01*
X39279886Y-13333681D01*
X39224958Y-13443512D01*
X39139216Y-13531424D01*
X39030795Y-13589079D01*
X38902256Y-13612413D01*
X35916649Y-13687053D01*
X35804756Y-13674922D01*
X35706231Y-13636259D01*
X35621337Y-13573062D01*
X35556036Y-13489772D01*
X35514923Y-13392246D01*
X35500000Y-13280686D01*
X35500000Y-11406559D01*
X35514464Y-11296693D01*
X35553964Y-11201330D01*
X35713770Y-11114924D01*
X35738192Y-11098451D01*
X35762839Y-11082322D01*
X35766356Y-11079454D01*
X35854042Y-11006914D01*
X35906559Y-11000000D01*
X38893441Y-11000000D01*
X39003307Y-11014464D01*
%TA.AperFunction,Conductor*%
D14*
G36*
X39003307Y-11014464D02*
G01*
X39099567Y-11054336D01*
X39182232Y-11117768D01*
X39245664Y-11200433D01*
X39285536Y-11296693D01*
X39300000Y-11406559D01*
X39300000Y-13204598D01*
X39279886Y-13333681D01*
X39224958Y-13443512D01*
X39139216Y-13531424D01*
X39030795Y-13589079D01*
X38902256Y-13612413D01*
X35916649Y-13687053D01*
X35804756Y-13674922D01*
X35706231Y-13636259D01*
X35621337Y-13573062D01*
X35556036Y-13489772D01*
X35514923Y-13392246D01*
X35500000Y-13280686D01*
X35500000Y-11406559D01*
X35514464Y-11296693D01*
X35553964Y-11201330D01*
X35713770Y-11114924D01*
X35738192Y-11098451D01*
X35762839Y-11082322D01*
X35766356Y-11079454D01*
X35854042Y-11006914D01*
X35906559Y-11000000D01*
X38893441Y-11000000D01*
X39003307Y-11014464D01*
G37*
%TD.AperFunction*%
%TD*%
D13*
%TO.N,COL*%
X39695244Y-24425078D02*
X39793769Y-24463741D01*
X39878663Y-24526938D01*
X39943964Y-24610228D01*
X39985077Y-24707754D01*
X40000000Y-24819314D01*
X40000000Y-26693441D01*
X39985536Y-26803307D01*
X39945664Y-26899567D01*
X39882232Y-26982232D01*
X39799567Y-27045664D01*
X39703307Y-27085536D01*
X39593441Y-27100000D01*
X36606559Y-27100000D01*
X36496693Y-27085536D01*
X36400433Y-27045664D01*
X36317768Y-26982232D01*
X36254336Y-26899567D01*
X36214464Y-26803307D01*
X36200000Y-26693441D01*
X36200000Y-24895402D01*
X36220114Y-24766319D01*
X36275042Y-24656488D01*
X36360784Y-24568576D01*
X36469205Y-24510921D01*
X36597744Y-24487587D01*
X39583351Y-24412947D01*
X39695244Y-24425078D01*
%TA.AperFunction,Conductor*%
D14*
G36*
X39695244Y-24425078D02*
G01*
X39793769Y-24463741D01*
X39878663Y-24526938D01*
X39943964Y-24610228D01*
X39985077Y-24707754D01*
X40000000Y-24819314D01*
X40000000Y-26693441D01*
X39985536Y-26803307D01*
X39945664Y-26899567D01*
X39882232Y-26982232D01*
X39799567Y-27045664D01*
X39703307Y-27085536D01*
X39593441Y-27100000D01*
X36606559Y-27100000D01*
X36496693Y-27085536D01*
X36400433Y-27045664D01*
X36317768Y-26982232D01*
X36254336Y-26899567D01*
X36214464Y-26803307D01*
X36200000Y-26693441D01*
X36200000Y-24895402D01*
X36220114Y-24766319D01*
X36275042Y-24656488D01*
X36360784Y-24568576D01*
X36469205Y-24510921D01*
X36597744Y-24487587D01*
X39583351Y-24412947D01*
X39695244Y-24425078D01*
G37*
%TD.AperFunction*%
%TD*%
D13*
%TO.N,GND*%
X45130805Y-11339384D02*
X45256629Y-11377373D01*
X45372675Y-11439076D01*
X45474532Y-11522148D01*
X45558310Y-11623418D01*
X45620819Y-11739027D01*
X45659686Y-11864586D01*
X45675000Y-12010285D01*
X45675001Y-15494057D01*
X45588066Y-15506728D01*
X42811875Y-15543256D01*
X42700931Y-15530010D01*
X42603479Y-15490766D01*
X42519641Y-15427451D01*
X42455227Y-15344450D01*
X42414705Y-15247525D01*
X42400000Y-15136770D01*
X42400000Y-11449786D01*
X42414217Y-11340851D01*
X42420720Y-11325000D01*
X44984103Y-11325000D01*
X45130805Y-11339384D01*
%TA.AperFunction,Conductor*%
D14*
G36*
X45130805Y-11339384D02*
G01*
X45256629Y-11377373D01*
X45372675Y-11439076D01*
X45474532Y-11522148D01*
X45558310Y-11623418D01*
X45620819Y-11739027D01*
X45659686Y-11864586D01*
X45675000Y-12010285D01*
X45675001Y-15494057D01*
X45588066Y-15506728D01*
X42811875Y-15543256D01*
X42700931Y-15530010D01*
X42603479Y-15490766D01*
X42519641Y-15427451D01*
X42455227Y-15344450D01*
X42414705Y-15247525D01*
X42400000Y-15136770D01*
X42400000Y-11449786D01*
X42414217Y-11340851D01*
X42420720Y-11325000D01*
X44984103Y-11325000D01*
X45130805Y-11339384D01*
G37*
%TD.AperFunction*%
%TD*%
D13*
%TO.N,VCC*%
X33785536Y-11396693D02*
X33800000Y-11506559D01*
X33800000Y-14493441D01*
X33785536Y-14603307D01*
X33745664Y-14699567D01*
X33682232Y-14782232D01*
X33599567Y-14845664D01*
X33503307Y-14885536D01*
X33393441Y-14900000D01*
X30506559Y-14900000D01*
X30396693Y-14885536D01*
X30325000Y-14855840D01*
X30325000Y-12015897D01*
X30339384Y-11869195D01*
X30377373Y-11743371D01*
X30439076Y-11627325D01*
X30522148Y-11525468D01*
X30623418Y-11441690D01*
X30739027Y-11379181D01*
X30864586Y-11340314D01*
X31010285Y-11325000D01*
X33755840Y-11325000D01*
X33785536Y-11396693D01*
%TA.AperFunction,Conductor*%
D14*
G36*
X33785536Y-11396693D02*
G01*
X33800000Y-11506559D01*
X33800000Y-14493441D01*
X33785536Y-14603307D01*
X33745664Y-14699567D01*
X33682232Y-14782232D01*
X33599567Y-14845664D01*
X33503307Y-14885536D01*
X33393441Y-14900000D01*
X30506559Y-14900000D01*
X30396693Y-14885536D01*
X30325000Y-14855840D01*
X30325000Y-12015897D01*
X30339384Y-11869195D01*
X30377373Y-11743371D01*
X30439076Y-11627325D01*
X30522148Y-11525468D01*
X30623418Y-11441690D01*
X30739027Y-11379181D01*
X30864586Y-11340314D01*
X31010285Y-11325000D01*
X33755840Y-11325000D01*
X33785536Y-11396693D01*
G37*
%TD.AperFunction*%
%TD*%
D13*
%TO.N,DO*%
X45558119Y-22614261D02*
X45653820Y-22653591D01*
X45675000Y-22669688D01*
X45675001Y-25984094D01*
X45660616Y-26130805D01*
X45622627Y-26256629D01*
X45560924Y-26372675D01*
X45477853Y-26474531D01*
X45376586Y-26558307D01*
X45260973Y-26620819D01*
X45135410Y-26659687D01*
X44989716Y-26675000D01*
X42149568Y-26675000D01*
X42119121Y-26599725D01*
X42105684Y-26488959D01*
X42144428Y-23002059D01*
X42159899Y-22893129D01*
X42200290Y-22797870D01*
X42263807Y-22716194D01*
X42346180Y-22653591D01*
X42441881Y-22614261D01*
X42550987Y-22600000D01*
X45449013Y-22600000D01*
X45558119Y-22614261D01*
%TA.AperFunction,Conductor*%
D14*
G36*
X45558119Y-22614261D02*
G01*
X45653820Y-22653591D01*
X45675000Y-22669688D01*
X45675001Y-25984094D01*
X45660616Y-26130805D01*
X45622627Y-26256629D01*
X45560924Y-26372675D01*
X45477853Y-26474531D01*
X45376586Y-26558307D01*
X45260973Y-26620819D01*
X45135410Y-26659687D01*
X44989716Y-26675000D01*
X42149568Y-26675000D01*
X42119121Y-26599725D01*
X42105684Y-26488959D01*
X42144428Y-23002059D01*
X42159899Y-22893129D01*
X42200290Y-22797870D01*
X42263807Y-22716194D01*
X42346180Y-22653591D01*
X42441881Y-22614261D01*
X42550987Y-22600000D01*
X45449013Y-22600000D01*
X45558119Y-22614261D01*
G37*
%TD.AperFunction*%
%TD*%
D13*
%TO.N,DI*%
X32433681Y-23020114D02*
X32543512Y-23075042D01*
X32631424Y-23160784D01*
X32689079Y-23269205D01*
X32712413Y-23397744D01*
X32787053Y-26383351D01*
X32774922Y-26495244D01*
X32736259Y-26593769D01*
X32675789Y-26675000D01*
X31015896Y-26675000D01*
X30869195Y-26660616D01*
X30743371Y-26622627D01*
X30627325Y-26560924D01*
X30525469Y-26477853D01*
X30441693Y-26376586D01*
X30379181Y-26260973D01*
X30340313Y-26135410D01*
X30325000Y-25989716D01*
X30325000Y-23044160D01*
X30396693Y-23014464D01*
X30506559Y-23000000D01*
X32304598Y-23000000D01*
X32433681Y-23020114D01*
%TA.AperFunction,Conductor*%
D14*
G36*
X32433681Y-23020114D02*
G01*
X32543512Y-23075042D01*
X32631424Y-23160784D01*
X32689079Y-23269205D01*
X32712413Y-23397744D01*
X32787053Y-26383351D01*
X32774922Y-26495244D01*
X32736259Y-26593769D01*
X32675789Y-26675000D01*
X31015896Y-26675000D01*
X30869195Y-26660616D01*
X30743371Y-26622627D01*
X30627325Y-26560924D01*
X30525469Y-26477853D01*
X30441693Y-26376586D01*
X30379181Y-26260973D01*
X30340313Y-26135410D01*
X30325000Y-25989716D01*
X30325000Y-23044160D01*
X30396693Y-23014464D01*
X30506559Y-23000000D01*
X32304598Y-23000000D01*
X32433681Y-23020114D01*
G37*
%TD.AperFunction*%
%TD*%
D13*
%TO.N,ROW*%
X51133681Y-17120114D02*
X51243512Y-17175042D01*
X51331424Y-17260784D01*
X51389079Y-17369205D01*
X51412413Y-17497744D01*
X51424177Y-17968297D01*
X51246918Y-18086737D01*
X51086737Y-18246918D01*
X50960884Y-18435271D01*
X50874194Y-18644557D01*
X50830000Y-18866735D01*
X50830000Y-19093265D01*
X50874194Y-19315443D01*
X50960884Y-19524729D01*
X51086737Y-19713082D01*
X51246918Y-19873263D01*
X51435271Y-19999116D01*
X51475362Y-20015723D01*
X51487053Y-20483351D01*
X51474922Y-20595244D01*
X51436259Y-20693769D01*
X51373062Y-20778663D01*
X51289772Y-20843964D01*
X51192246Y-20885077D01*
X51080686Y-20900000D01*
X49206559Y-20900000D01*
X49096693Y-20885536D01*
X49000433Y-20845664D01*
X48917768Y-20782232D01*
X48854336Y-20699567D01*
X48814464Y-20603307D01*
X48800000Y-20493441D01*
X48800000Y-17506559D01*
X48814464Y-17396693D01*
X48854336Y-17300433D01*
X48917768Y-17217768D01*
X49000433Y-17154336D01*
X49096693Y-17114464D01*
X49206559Y-17100000D01*
X51004598Y-17100000D01*
X51133681Y-17120114D01*
%TA.AperFunction,Conductor*%
D14*
G36*
X51133681Y-17120114D02*
G01*
X51243512Y-17175042D01*
X51331424Y-17260784D01*
X51389079Y-17369205D01*
X51412413Y-17497744D01*
X51424177Y-17968297D01*
X51246918Y-18086737D01*
X51086737Y-18246918D01*
X50960884Y-18435271D01*
X50874194Y-18644557D01*
X50830000Y-18866735D01*
X50830000Y-19093265D01*
X50874194Y-19315443D01*
X50960884Y-19524729D01*
X51086737Y-19713082D01*
X51246918Y-19873263D01*
X51435271Y-19999116D01*
X51475362Y-20015723D01*
X51487053Y-20483351D01*
X51474922Y-20595244D01*
X51436259Y-20693769D01*
X51373062Y-20778663D01*
X51289772Y-20843964D01*
X51192246Y-20885077D01*
X51080686Y-20900000D01*
X49206559Y-20900000D01*
X49096693Y-20885536D01*
X49000433Y-20845664D01*
X48917768Y-20782232D01*
X48854336Y-20699567D01*
X48814464Y-20603307D01*
X48800000Y-20493441D01*
X48800000Y-17506559D01*
X48814464Y-17396693D01*
X48854336Y-17300433D01*
X48917768Y-17217768D01*
X49000433Y-17154336D01*
X49096693Y-17114464D01*
X49206559Y-17100000D01*
X51004598Y-17100000D01*
X51133681Y-17120114D01*
G37*
%TD.AperFunction*%
%TD*%
D13*
%TO.N,ROW*%
X64675001Y-16704897D02*
X64675000Y-21190035D01*
X64598782Y-21200000D01*
X62801218Y-21200000D01*
X62692085Y-21185731D01*
X62596364Y-21146379D01*
X62513971Y-21083736D01*
X62450461Y-21002023D01*
X62410091Y-20906719D01*
X62394662Y-20797747D01*
X62387275Y-20103344D01*
X62475443Y-20085806D01*
X62684729Y-19999116D01*
X62873082Y-19873263D01*
X63033263Y-19713082D01*
X63159116Y-19524729D01*
X63245806Y-19315443D01*
X63290000Y-19093265D01*
X63290000Y-18866735D01*
X63245806Y-18644557D01*
X63159116Y-18435271D01*
X63033263Y-18246918D01*
X62873082Y-18086737D01*
X62684729Y-17960884D01*
X62475443Y-17874194D01*
X62363323Y-17851892D01*
X62355440Y-17110855D01*
X62368921Y-17000120D01*
X62408287Y-16902897D01*
X62471628Y-16819280D01*
X62554561Y-16755058D01*
X62651364Y-16714658D01*
X62761946Y-16700000D01*
X64638054Y-16700000D01*
X64675001Y-16704897D01*
%TA.AperFunction,Conductor*%
D14*
G36*
X64675001Y-16704897D02*
G01*
X64675000Y-21190035D01*
X64598782Y-21200000D01*
X62801218Y-21200000D01*
X62692085Y-21185731D01*
X62596364Y-21146379D01*
X62513971Y-21083736D01*
X62450461Y-21002023D01*
X62410091Y-20906719D01*
X62394662Y-20797747D01*
X62387275Y-20103344D01*
X62475443Y-20085806D01*
X62684729Y-19999116D01*
X62873082Y-19873263D01*
X63033263Y-19713082D01*
X63159116Y-19524729D01*
X63245806Y-19315443D01*
X63290000Y-19093265D01*
X63290000Y-18866735D01*
X63245806Y-18644557D01*
X63159116Y-18435271D01*
X63033263Y-18246918D01*
X62873082Y-18086737D01*
X62684729Y-17960884D01*
X62475443Y-17874194D01*
X62363323Y-17851892D01*
X62355440Y-17110855D01*
X62368921Y-17000120D01*
X62408287Y-16902897D01*
X62471628Y-16819280D01*
X62554561Y-16755058D01*
X62651364Y-16714658D01*
X62761946Y-16700000D01*
X64638054Y-16700000D01*
X64675001Y-16704897D01*
G37*
%TD.AperFunction*%
%TD*%
D13*
%TO.N,COL*%
X58003307Y-11014464D02*
X58099567Y-11054336D01*
X58182232Y-11117768D01*
X58245664Y-11200433D01*
X58285536Y-11296693D01*
X58300000Y-11406559D01*
X58300000Y-13204598D01*
X58279886Y-13333681D01*
X58224958Y-13443512D01*
X58139216Y-13531424D01*
X58030795Y-13589079D01*
X57902256Y-13612413D01*
X54916649Y-13687053D01*
X54804756Y-13674922D01*
X54706231Y-13636259D01*
X54621337Y-13573062D01*
X54556036Y-13489772D01*
X54514923Y-13392246D01*
X54500000Y-13280686D01*
X54500000Y-11406559D01*
X54514464Y-11296693D01*
X54553964Y-11201330D01*
X54713770Y-11114924D01*
X54738192Y-11098451D01*
X54762839Y-11082322D01*
X54766356Y-11079454D01*
X54854042Y-11006914D01*
X54906559Y-11000000D01*
X57893441Y-11000000D01*
X58003307Y-11014464D01*
%TA.AperFunction,Conductor*%
D14*
G36*
X58003307Y-11014464D02*
G01*
X58099567Y-11054336D01*
X58182232Y-11117768D01*
X58245664Y-11200433D01*
X58285536Y-11296693D01*
X58300000Y-11406559D01*
X58300000Y-13204598D01*
X58279886Y-13333681D01*
X58224958Y-13443512D01*
X58139216Y-13531424D01*
X58030795Y-13589079D01*
X57902256Y-13612413D01*
X54916649Y-13687053D01*
X54804756Y-13674922D01*
X54706231Y-13636259D01*
X54621337Y-13573062D01*
X54556036Y-13489772D01*
X54514923Y-13392246D01*
X54500000Y-13280686D01*
X54500000Y-11406559D01*
X54514464Y-11296693D01*
X54553964Y-11201330D01*
X54713770Y-11114924D01*
X54738192Y-11098451D01*
X54762839Y-11082322D01*
X54766356Y-11079454D01*
X54854042Y-11006914D01*
X54906559Y-11000000D01*
X57893441Y-11000000D01*
X58003307Y-11014464D01*
G37*
%TD.AperFunction*%
%TD*%
D13*
%TO.N,COL*%
X58695244Y-24425078D02*
X58793769Y-24463741D01*
X58878663Y-24526938D01*
X58943964Y-24610228D01*
X58985077Y-24707754D01*
X59000000Y-24819314D01*
X59000000Y-26693441D01*
X58985536Y-26803307D01*
X58945664Y-26899567D01*
X58882232Y-26982232D01*
X58799567Y-27045664D01*
X58703307Y-27085536D01*
X58593441Y-27100000D01*
X55606559Y-27100000D01*
X55496693Y-27085536D01*
X55400433Y-27045664D01*
X55317768Y-26982232D01*
X55254336Y-26899567D01*
X55214464Y-26803307D01*
X55200000Y-26693441D01*
X55200000Y-24895402D01*
X55220114Y-24766319D01*
X55275042Y-24656488D01*
X55360784Y-24568576D01*
X55469205Y-24510921D01*
X55597744Y-24487587D01*
X58583351Y-24412947D01*
X58695244Y-24425078D01*
%TA.AperFunction,Conductor*%
D14*
G36*
X58695244Y-24425078D02*
G01*
X58793769Y-24463741D01*
X58878663Y-24526938D01*
X58943964Y-24610228D01*
X58985077Y-24707754D01*
X59000000Y-24819314D01*
X59000000Y-26693441D01*
X58985536Y-26803307D01*
X58945664Y-26899567D01*
X58882232Y-26982232D01*
X58799567Y-27045664D01*
X58703307Y-27085536D01*
X58593441Y-27100000D01*
X55606559Y-27100000D01*
X55496693Y-27085536D01*
X55400433Y-27045664D01*
X55317768Y-26982232D01*
X55254336Y-26899567D01*
X55214464Y-26803307D01*
X55200000Y-26693441D01*
X55200000Y-24895402D01*
X55220114Y-24766319D01*
X55275042Y-24656488D01*
X55360784Y-24568576D01*
X55469205Y-24510921D01*
X55597744Y-24487587D01*
X58583351Y-24412947D01*
X58695244Y-24425078D01*
G37*
%TD.AperFunction*%
%TD*%
D13*
%TO.N,GND*%
X64130805Y-11339384D02*
X64256629Y-11377373D01*
X64372675Y-11439076D01*
X64474532Y-11522148D01*
X64558310Y-11623418D01*
X64620819Y-11739027D01*
X64659686Y-11864586D01*
X64675001Y-12010295D01*
X64675001Y-15494057D01*
X64588066Y-15506728D01*
X61811875Y-15543256D01*
X61700931Y-15530010D01*
X61603479Y-15490766D01*
X61519641Y-15427451D01*
X61455227Y-15344450D01*
X61414705Y-15247525D01*
X61400000Y-15136770D01*
X61400000Y-11449786D01*
X61414217Y-11340851D01*
X61420720Y-11325000D01*
X63984103Y-11325000D01*
X64130805Y-11339384D01*
%TA.AperFunction,Conductor*%
D14*
G36*
X64130805Y-11339384D02*
G01*
X64256629Y-11377373D01*
X64372675Y-11439076D01*
X64474532Y-11522148D01*
X64558310Y-11623418D01*
X64620819Y-11739027D01*
X64659686Y-11864586D01*
X64675001Y-12010295D01*
X64675001Y-15494057D01*
X64588066Y-15506728D01*
X61811875Y-15543256D01*
X61700931Y-15530010D01*
X61603479Y-15490766D01*
X61519641Y-15427451D01*
X61455227Y-15344450D01*
X61414705Y-15247525D01*
X61400000Y-15136770D01*
X61400000Y-11449786D01*
X61414217Y-11340851D01*
X61420720Y-11325000D01*
X63984103Y-11325000D01*
X64130805Y-11339384D01*
G37*
%TD.AperFunction*%
%TD*%
D13*
%TO.N,VCC*%
X52785536Y-11396693D02*
X52800000Y-11506559D01*
X52800000Y-14493441D01*
X52785536Y-14603307D01*
X52745664Y-14699567D01*
X52682232Y-14782232D01*
X52599567Y-14845664D01*
X52503307Y-14885536D01*
X52393441Y-14900000D01*
X49506559Y-14900000D01*
X49396693Y-14885536D01*
X49325000Y-14855840D01*
X49325000Y-12015897D01*
X49339384Y-11869195D01*
X49377373Y-11743371D01*
X49439076Y-11627325D01*
X49522148Y-11525468D01*
X49623418Y-11441690D01*
X49739027Y-11379181D01*
X49864586Y-11340314D01*
X50010285Y-11325000D01*
X52755840Y-11325000D01*
X52785536Y-11396693D01*
%TA.AperFunction,Conductor*%
D14*
G36*
X52785536Y-11396693D02*
G01*
X52800000Y-11506559D01*
X52800000Y-14493441D01*
X52785536Y-14603307D01*
X52745664Y-14699567D01*
X52682232Y-14782232D01*
X52599567Y-14845664D01*
X52503307Y-14885536D01*
X52393441Y-14900000D01*
X49506559Y-14900000D01*
X49396693Y-14885536D01*
X49325000Y-14855840D01*
X49325000Y-12015897D01*
X49339384Y-11869195D01*
X49377373Y-11743371D01*
X49439076Y-11627325D01*
X49522148Y-11525468D01*
X49623418Y-11441690D01*
X49739027Y-11379181D01*
X49864586Y-11340314D01*
X50010285Y-11325000D01*
X52755840Y-11325000D01*
X52785536Y-11396693D01*
G37*
%TD.AperFunction*%
%TD*%
D13*
%TO.N,DO*%
X64558119Y-22614261D02*
X64653820Y-22653591D01*
X64675000Y-22669688D01*
X64675001Y-25984094D01*
X64660616Y-26130805D01*
X64622627Y-26256629D01*
X64560924Y-26372675D01*
X64477853Y-26474531D01*
X64376586Y-26558307D01*
X64260973Y-26620819D01*
X64135410Y-26659687D01*
X63989716Y-26675000D01*
X61149568Y-26675000D01*
X61119121Y-26599725D01*
X61105684Y-26488959D01*
X61144428Y-23002059D01*
X61159899Y-22893129D01*
X61200290Y-22797870D01*
X61263807Y-22716194D01*
X61346180Y-22653591D01*
X61441881Y-22614261D01*
X61550987Y-22600000D01*
X64449013Y-22600000D01*
X64558119Y-22614261D01*
%TA.AperFunction,Conductor*%
D14*
G36*
X64558119Y-22614261D02*
G01*
X64653820Y-22653591D01*
X64675000Y-22669688D01*
X64675001Y-25984094D01*
X64660616Y-26130805D01*
X64622627Y-26256629D01*
X64560924Y-26372675D01*
X64477853Y-26474531D01*
X64376586Y-26558307D01*
X64260973Y-26620819D01*
X64135410Y-26659687D01*
X63989716Y-26675000D01*
X61149568Y-26675000D01*
X61119121Y-26599725D01*
X61105684Y-26488959D01*
X61144428Y-23002059D01*
X61159899Y-22893129D01*
X61200290Y-22797870D01*
X61263807Y-22716194D01*
X61346180Y-22653591D01*
X61441881Y-22614261D01*
X61550987Y-22600000D01*
X64449013Y-22600000D01*
X64558119Y-22614261D01*
G37*
%TD.AperFunction*%
%TD*%
D13*
%TO.N,DI*%
X51433681Y-23020114D02*
X51543512Y-23075042D01*
X51631424Y-23160784D01*
X51689079Y-23269205D01*
X51712413Y-23397744D01*
X51787053Y-26383351D01*
X51774922Y-26495244D01*
X51736259Y-26593769D01*
X51675789Y-26675000D01*
X50015896Y-26675000D01*
X49869195Y-26660616D01*
X49743371Y-26622627D01*
X49627325Y-26560924D01*
X49525469Y-26477853D01*
X49441693Y-26376586D01*
X49379181Y-26260973D01*
X49340313Y-26135410D01*
X49325000Y-25989716D01*
X49325000Y-23044160D01*
X49396693Y-23014464D01*
X49506559Y-23000000D01*
X51304598Y-23000000D01*
X51433681Y-23020114D01*
%TA.AperFunction,Conductor*%
D14*
G36*
X51433681Y-23020114D02*
G01*
X51543512Y-23075042D01*
X51631424Y-23160784D01*
X51689079Y-23269205D01*
X51712413Y-23397744D01*
X51787053Y-26383351D01*
X51774922Y-26495244D01*
X51736259Y-26593769D01*
X51675789Y-26675000D01*
X50015896Y-26675000D01*
X49869195Y-26660616D01*
X49743371Y-26622627D01*
X49627325Y-26560924D01*
X49525469Y-26477853D01*
X49441693Y-26376586D01*
X49379181Y-26260973D01*
X49340313Y-26135410D01*
X49325000Y-25989716D01*
X49325000Y-23044160D01*
X49396693Y-23014464D01*
X49506559Y-23000000D01*
X51304598Y-23000000D01*
X51433681Y-23020114D01*
G37*
%TD.AperFunction*%
%TD*%
D13*
%TO.N,ROW*%
X-5866319Y-36120114D02*
X-5756488Y-36175042D01*
X-5668576Y-36260784D01*
X-5610921Y-36369205D01*
X-5587587Y-36497744D01*
X-5575823Y-36968297D01*
X-5753082Y-37086737D01*
X-5913263Y-37246918D01*
X-6039116Y-37435271D01*
X-6125806Y-37644557D01*
X-6170000Y-37866735D01*
X-6170000Y-38093265D01*
X-6125806Y-38315443D01*
X-6039116Y-38524729D01*
X-5913263Y-38713082D01*
X-5753082Y-38873263D01*
X-5564729Y-38999116D01*
X-5524638Y-39015723D01*
X-5512947Y-39483351D01*
X-5525078Y-39595244D01*
X-5563741Y-39693769D01*
X-5626938Y-39778663D01*
X-5710228Y-39843964D01*
X-5807754Y-39885077D01*
X-5919314Y-39900000D01*
X-7675000Y-39900000D01*
X-7675000Y-36100000D01*
X-5995402Y-36100000D01*
X-5866319Y-36120114D01*
%TA.AperFunction,Conductor*%
D14*
G36*
X-5866319Y-36120114D02*
G01*
X-5756488Y-36175042D01*
X-5668576Y-36260784D01*
X-5610921Y-36369205D01*
X-5587587Y-36497744D01*
X-5575823Y-36968297D01*
X-5753082Y-37086737D01*
X-5913263Y-37246918D01*
X-6039116Y-37435271D01*
X-6125806Y-37644557D01*
X-6170000Y-37866735D01*
X-6170000Y-38093265D01*
X-6125806Y-38315443D01*
X-6039116Y-38524729D01*
X-5913263Y-38713082D01*
X-5753082Y-38873263D01*
X-5564729Y-38999116D01*
X-5524638Y-39015723D01*
X-5512947Y-39483351D01*
X-5525078Y-39595244D01*
X-5563741Y-39693769D01*
X-5626938Y-39778663D01*
X-5710228Y-39843964D01*
X-5807754Y-39885077D01*
X-5919314Y-39900000D01*
X-7675000Y-39900000D01*
X-7675000Y-36100000D01*
X-5995402Y-36100000D01*
X-5866319Y-36120114D01*
G37*
%TD.AperFunction*%
%TD*%
D13*
%TO.N,ROW*%
X7675001Y-35704897D02*
X7675000Y-40190035D01*
X7598782Y-40200000D01*
X5801218Y-40200000D01*
X5692085Y-40185731D01*
X5596364Y-40146379D01*
X5513971Y-40083736D01*
X5450461Y-40002023D01*
X5410091Y-39906719D01*
X5394662Y-39797747D01*
X5387275Y-39103344D01*
X5475443Y-39085806D01*
X5684729Y-38999116D01*
X5873082Y-38873263D01*
X6033263Y-38713082D01*
X6159116Y-38524729D01*
X6245806Y-38315443D01*
X6290000Y-38093265D01*
X6290000Y-37866735D01*
X6245806Y-37644557D01*
X6159116Y-37435271D01*
X6033263Y-37246918D01*
X5873082Y-37086737D01*
X5684729Y-36960884D01*
X5475443Y-36874194D01*
X5363323Y-36851892D01*
X5355440Y-36110855D01*
X5368921Y-36000120D01*
X5408287Y-35902897D01*
X5471628Y-35819280D01*
X5554561Y-35755058D01*
X5651364Y-35714658D01*
X5761946Y-35700000D01*
X7638054Y-35700000D01*
X7675001Y-35704897D01*
%TA.AperFunction,Conductor*%
D14*
G36*
X7675001Y-35704897D02*
G01*
X7675000Y-40190035D01*
X7598782Y-40200000D01*
X5801218Y-40200000D01*
X5692085Y-40185731D01*
X5596364Y-40146379D01*
X5513971Y-40083736D01*
X5450461Y-40002023D01*
X5410091Y-39906719D01*
X5394662Y-39797747D01*
X5387275Y-39103344D01*
X5475443Y-39085806D01*
X5684729Y-38999116D01*
X5873082Y-38873263D01*
X6033263Y-38713082D01*
X6159116Y-38524729D01*
X6245806Y-38315443D01*
X6290000Y-38093265D01*
X6290000Y-37866735D01*
X6245806Y-37644557D01*
X6159116Y-37435271D01*
X6033263Y-37246918D01*
X5873082Y-37086737D01*
X5684729Y-36960884D01*
X5475443Y-36874194D01*
X5363323Y-36851892D01*
X5355440Y-36110855D01*
X5368921Y-36000120D01*
X5408287Y-35902897D01*
X5471628Y-35819280D01*
X5554561Y-35755058D01*
X5651364Y-35714658D01*
X5761946Y-35700000D01*
X7638054Y-35700000D01*
X7675001Y-35704897D01*
G37*
%TD.AperFunction*%
%TD*%
D13*
%TO.N,COL*%
X1003307Y-30014464D02*
X1099567Y-30054336D01*
X1182232Y-30117768D01*
X1245664Y-30200433D01*
X1285536Y-30296693D01*
X1300000Y-30406559D01*
X1300000Y-32204598D01*
X1279886Y-32333681D01*
X1224958Y-32443512D01*
X1139216Y-32531424D01*
X1030795Y-32589079D01*
X902256Y-32612413D01*
X-2083351Y-32687053D01*
X-2195244Y-32674922D01*
X-2293769Y-32636259D01*
X-2378663Y-32573062D01*
X-2443964Y-32489772D01*
X-2485077Y-32392246D01*
X-2500000Y-32280686D01*
X-2500000Y-30406559D01*
X-2485536Y-30296693D01*
X-2446036Y-30201330D01*
X-2286230Y-30114924D01*
X-2261808Y-30098451D01*
X-2237161Y-30082322D01*
X-2233644Y-30079454D01*
X-2145958Y-30006914D01*
X-2093441Y-30000000D01*
X893441Y-30000000D01*
X1003307Y-30014464D01*
%TA.AperFunction,Conductor*%
D14*
G36*
X1003307Y-30014464D02*
G01*
X1099567Y-30054336D01*
X1182232Y-30117768D01*
X1245664Y-30200433D01*
X1285536Y-30296693D01*
X1300000Y-30406559D01*
X1300000Y-32204598D01*
X1279886Y-32333681D01*
X1224958Y-32443512D01*
X1139216Y-32531424D01*
X1030795Y-32589079D01*
X902256Y-32612413D01*
X-2083351Y-32687053D01*
X-2195244Y-32674922D01*
X-2293769Y-32636259D01*
X-2378663Y-32573062D01*
X-2443964Y-32489772D01*
X-2485077Y-32392246D01*
X-2500000Y-32280686D01*
X-2500000Y-30406559D01*
X-2485536Y-30296693D01*
X-2446036Y-30201330D01*
X-2286230Y-30114924D01*
X-2261808Y-30098451D01*
X-2237161Y-30082322D01*
X-2233644Y-30079454D01*
X-2145958Y-30006914D01*
X-2093441Y-30000000D01*
X893441Y-30000000D01*
X1003307Y-30014464D01*
G37*
%TD.AperFunction*%
%TD*%
D13*
%TO.N,COL*%
X1695244Y-43425078D02*
X1793769Y-43463741D01*
X1878663Y-43526938D01*
X1943964Y-43610228D01*
X1985077Y-43707754D01*
X2000000Y-43819314D01*
X2000000Y-45675000D01*
X-1800000Y-45675000D01*
X-1800000Y-43895402D01*
X-1779886Y-43766319D01*
X-1724958Y-43656488D01*
X-1639216Y-43568576D01*
X-1530795Y-43510921D01*
X-1402256Y-43487587D01*
X1583351Y-43412947D01*
X1695244Y-43425078D01*
%TA.AperFunction,Conductor*%
D14*
G36*
X1695244Y-43425078D02*
G01*
X1793769Y-43463741D01*
X1878663Y-43526938D01*
X1943964Y-43610228D01*
X1985077Y-43707754D01*
X2000000Y-43819314D01*
X2000000Y-45675000D01*
X-1800000Y-45675000D01*
X-1800000Y-43895402D01*
X-1779886Y-43766319D01*
X-1724958Y-43656488D01*
X-1639216Y-43568576D01*
X-1530795Y-43510921D01*
X-1402256Y-43487587D01*
X1583351Y-43412947D01*
X1695244Y-43425078D01*
G37*
%TD.AperFunction*%
%TD*%
D13*
%TO.N,GND*%
X7130805Y-30339384D02*
X7256629Y-30377373D01*
X7372675Y-30439076D01*
X7474532Y-30522148D01*
X7558310Y-30623418D01*
X7620819Y-30739027D01*
X7659686Y-30864586D01*
X7675001Y-31010295D01*
X7675001Y-34494057D01*
X7588066Y-34506728D01*
X4811875Y-34543256D01*
X4700931Y-34530010D01*
X4603479Y-34490766D01*
X4519641Y-34427451D01*
X4455227Y-34344450D01*
X4414705Y-34247525D01*
X4400000Y-34136770D01*
X4400000Y-30449786D01*
X4414217Y-30340851D01*
X4420720Y-30325000D01*
X6984103Y-30325000D01*
X7130805Y-30339384D01*
%TA.AperFunction,Conductor*%
D14*
G36*
X7130805Y-30339384D02*
G01*
X7256629Y-30377373D01*
X7372675Y-30439076D01*
X7474532Y-30522148D01*
X7558310Y-30623418D01*
X7620819Y-30739027D01*
X7659686Y-30864586D01*
X7675001Y-31010295D01*
X7675001Y-34494057D01*
X7588066Y-34506728D01*
X4811875Y-34543256D01*
X4700931Y-34530010D01*
X4603479Y-34490766D01*
X4519641Y-34427451D01*
X4455227Y-34344450D01*
X4414705Y-34247525D01*
X4400000Y-34136770D01*
X4400000Y-30449786D01*
X4414217Y-30340851D01*
X4420720Y-30325000D01*
X6984103Y-30325000D01*
X7130805Y-30339384D01*
G37*
%TD.AperFunction*%
%TD*%
D13*
%TO.N,VCC*%
X-4214464Y-30396693D02*
X-4200000Y-30506559D01*
X-4200000Y-33493441D01*
X-4214464Y-33603307D01*
X-4254336Y-33699567D01*
X-4317768Y-33782232D01*
X-4400433Y-33845664D01*
X-4496693Y-33885536D01*
X-4606559Y-33900000D01*
X-7493441Y-33900000D01*
X-7603307Y-33885536D01*
X-7675000Y-33855840D01*
X-7675000Y-31015897D01*
X-7660616Y-30869195D01*
X-7622627Y-30743371D01*
X-7560924Y-30627325D01*
X-7477852Y-30525468D01*
X-7376582Y-30441690D01*
X-7260973Y-30379181D01*
X-7135414Y-30340314D01*
X-6989715Y-30325000D01*
X-4244160Y-30325000D01*
X-4214464Y-30396693D01*
%TA.AperFunction,Conductor*%
D14*
G36*
X-4214464Y-30396693D02*
G01*
X-4200000Y-30506559D01*
X-4200000Y-33493441D01*
X-4214464Y-33603307D01*
X-4254336Y-33699567D01*
X-4317768Y-33782232D01*
X-4400433Y-33845664D01*
X-4496693Y-33885536D01*
X-4606559Y-33900000D01*
X-7493441Y-33900000D01*
X-7603307Y-33885536D01*
X-7675000Y-33855840D01*
X-7675000Y-31015897D01*
X-7660616Y-30869195D01*
X-7622627Y-30743371D01*
X-7560924Y-30627325D01*
X-7477852Y-30525468D01*
X-7376582Y-30441690D01*
X-7260973Y-30379181D01*
X-7135414Y-30340314D01*
X-6989715Y-30325000D01*
X-4244160Y-30325000D01*
X-4214464Y-30396693D01*
G37*
%TD.AperFunction*%
%TD*%
D13*
%TO.N,DO*%
X7558119Y-41614261D02*
X7653820Y-41653591D01*
X7675000Y-41669688D01*
X7675000Y-44984104D01*
X7660616Y-45130805D01*
X7622627Y-45256629D01*
X7560924Y-45372675D01*
X7477853Y-45474531D01*
X7376586Y-45558307D01*
X7260973Y-45620819D01*
X7135410Y-45659687D01*
X6989716Y-45675000D01*
X4149568Y-45675000D01*
X4119121Y-45599725D01*
X4105684Y-45488959D01*
X4144428Y-42002059D01*
X4159899Y-41893129D01*
X4200290Y-41797870D01*
X4263807Y-41716194D01*
X4346180Y-41653591D01*
X4441881Y-41614261D01*
X4550987Y-41600000D01*
X7449013Y-41600000D01*
X7558119Y-41614261D01*
%TA.AperFunction,Conductor*%
D14*
G36*
X7558119Y-41614261D02*
G01*
X7653820Y-41653591D01*
X7675000Y-41669688D01*
X7675000Y-44984104D01*
X7660616Y-45130805D01*
X7622627Y-45256629D01*
X7560924Y-45372675D01*
X7477853Y-45474531D01*
X7376586Y-45558307D01*
X7260973Y-45620819D01*
X7135410Y-45659687D01*
X6989716Y-45675000D01*
X4149568Y-45675000D01*
X4119121Y-45599725D01*
X4105684Y-45488959D01*
X4144428Y-42002059D01*
X4159899Y-41893129D01*
X4200290Y-41797870D01*
X4263807Y-41716194D01*
X4346180Y-41653591D01*
X4441881Y-41614261D01*
X4550987Y-41600000D01*
X7449013Y-41600000D01*
X7558119Y-41614261D01*
G37*
%TD.AperFunction*%
%TD*%
D13*
%TO.N,DI*%
X-5566319Y-42020114D02*
X-5456488Y-42075042D01*
X-5368576Y-42160784D01*
X-5310921Y-42269205D01*
X-5287587Y-42397744D01*
X-5212947Y-45383351D01*
X-5225078Y-45495244D01*
X-5263741Y-45593769D01*
X-5324211Y-45675000D01*
X-6984104Y-45675000D01*
X-7130805Y-45660616D01*
X-7256629Y-45622627D01*
X-7372675Y-45560924D01*
X-7474531Y-45477853D01*
X-7558307Y-45376586D01*
X-7620819Y-45260973D01*
X-7659687Y-45135410D01*
X-7675000Y-44989716D01*
X-7675000Y-42044160D01*
X-7603307Y-42014464D01*
X-7493441Y-42000000D01*
X-5695402Y-42000000D01*
X-5566319Y-42020114D01*
%TA.AperFunction,Conductor*%
D14*
G36*
X-5566319Y-42020114D02*
G01*
X-5456488Y-42075042D01*
X-5368576Y-42160784D01*
X-5310921Y-42269205D01*
X-5287587Y-42397744D01*
X-5212947Y-45383351D01*
X-5225078Y-45495244D01*
X-5263741Y-45593769D01*
X-5324211Y-45675000D01*
X-6984104Y-45675000D01*
X-7130805Y-45660616D01*
X-7256629Y-45622627D01*
X-7372675Y-45560924D01*
X-7474531Y-45477853D01*
X-7558307Y-45376586D01*
X-7620819Y-45260973D01*
X-7659687Y-45135410D01*
X-7675000Y-44989716D01*
X-7675000Y-42044160D01*
X-7603307Y-42014464D01*
X-7493441Y-42000000D01*
X-5695402Y-42000000D01*
X-5566319Y-42020114D01*
G37*
%TD.AperFunction*%
%TD*%
D13*
%TO.N,ROW*%
X13133681Y-36120114D02*
X13243512Y-36175042D01*
X13331424Y-36260784D01*
X13389079Y-36369205D01*
X13412413Y-36497744D01*
X13424177Y-36968297D01*
X13246918Y-37086737D01*
X13086737Y-37246918D01*
X12960884Y-37435271D01*
X12874194Y-37644557D01*
X12830000Y-37866735D01*
X12830000Y-38093265D01*
X12874194Y-38315443D01*
X12960884Y-38524729D01*
X13086737Y-38713082D01*
X13246918Y-38873263D01*
X13435271Y-38999116D01*
X13475362Y-39015723D01*
X13487053Y-39483351D01*
X13474922Y-39595244D01*
X13436259Y-39693769D01*
X13373062Y-39778663D01*
X13289772Y-39843964D01*
X13192246Y-39885077D01*
X13080686Y-39900000D01*
X11325000Y-39900000D01*
X11325000Y-36100000D01*
X13004598Y-36100000D01*
X13133681Y-36120114D01*
%TA.AperFunction,Conductor*%
D14*
G36*
X13133681Y-36120114D02*
G01*
X13243512Y-36175042D01*
X13331424Y-36260784D01*
X13389079Y-36369205D01*
X13412413Y-36497744D01*
X13424177Y-36968297D01*
X13246918Y-37086737D01*
X13086737Y-37246918D01*
X12960884Y-37435271D01*
X12874194Y-37644557D01*
X12830000Y-37866735D01*
X12830000Y-38093265D01*
X12874194Y-38315443D01*
X12960884Y-38524729D01*
X13086737Y-38713082D01*
X13246918Y-38873263D01*
X13435271Y-38999116D01*
X13475362Y-39015723D01*
X13487053Y-39483351D01*
X13474922Y-39595244D01*
X13436259Y-39693769D01*
X13373062Y-39778663D01*
X13289772Y-39843964D01*
X13192246Y-39885077D01*
X13080686Y-39900000D01*
X11325000Y-39900000D01*
X11325000Y-36100000D01*
X13004598Y-36100000D01*
X13133681Y-36120114D01*
G37*
%TD.AperFunction*%
%TD*%
D13*
%TO.N,ROW*%
X26675000Y-35704897D02*
X26675001Y-40190035D01*
X26598782Y-40200000D01*
X24801218Y-40200000D01*
X24692085Y-40185731D01*
X24596364Y-40146379D01*
X24513971Y-40083736D01*
X24450461Y-40002023D01*
X24410091Y-39906719D01*
X24394662Y-39797747D01*
X24387275Y-39103344D01*
X24475443Y-39085806D01*
X24684729Y-38999116D01*
X24873082Y-38873263D01*
X25033263Y-38713082D01*
X25159116Y-38524729D01*
X25245806Y-38315443D01*
X25290000Y-38093265D01*
X25290000Y-37866735D01*
X25245806Y-37644557D01*
X25159116Y-37435271D01*
X25033263Y-37246918D01*
X24873082Y-37086737D01*
X24684729Y-36960884D01*
X24475443Y-36874194D01*
X24363323Y-36851892D01*
X24355440Y-36110855D01*
X24368921Y-36000120D01*
X24408287Y-35902897D01*
X24471628Y-35819280D01*
X24554561Y-35755058D01*
X24651364Y-35714658D01*
X24761946Y-35700000D01*
X26638054Y-35700000D01*
X26675000Y-35704897D01*
%TA.AperFunction,Conductor*%
D14*
G36*
X26675000Y-35704897D02*
G01*
X26675001Y-40190035D01*
X26598782Y-40200000D01*
X24801218Y-40200000D01*
X24692085Y-40185731D01*
X24596364Y-40146379D01*
X24513971Y-40083736D01*
X24450461Y-40002023D01*
X24410091Y-39906719D01*
X24394662Y-39797747D01*
X24387275Y-39103344D01*
X24475443Y-39085806D01*
X24684729Y-38999116D01*
X24873082Y-38873263D01*
X25033263Y-38713082D01*
X25159116Y-38524729D01*
X25245806Y-38315443D01*
X25290000Y-38093265D01*
X25290000Y-37866735D01*
X25245806Y-37644557D01*
X25159116Y-37435271D01*
X25033263Y-37246918D01*
X24873082Y-37086737D01*
X24684729Y-36960884D01*
X24475443Y-36874194D01*
X24363323Y-36851892D01*
X24355440Y-36110855D01*
X24368921Y-36000120D01*
X24408287Y-35902897D01*
X24471628Y-35819280D01*
X24554561Y-35755058D01*
X24651364Y-35714658D01*
X24761946Y-35700000D01*
X26638054Y-35700000D01*
X26675000Y-35704897D01*
G37*
%TD.AperFunction*%
%TD*%
D13*
%TO.N,COL*%
X20003307Y-30014464D02*
X20099567Y-30054336D01*
X20182232Y-30117768D01*
X20245664Y-30200433D01*
X20285536Y-30296693D01*
X20300000Y-30406559D01*
X20300000Y-32204598D01*
X20279886Y-32333681D01*
X20224958Y-32443512D01*
X20139216Y-32531424D01*
X20030795Y-32589079D01*
X19902256Y-32612413D01*
X16916649Y-32687053D01*
X16804756Y-32674922D01*
X16706231Y-32636259D01*
X16621337Y-32573062D01*
X16556036Y-32489772D01*
X16514923Y-32392246D01*
X16500000Y-32280686D01*
X16500000Y-30406559D01*
X16514464Y-30296693D01*
X16553964Y-30201330D01*
X16713770Y-30114924D01*
X16738192Y-30098451D01*
X16762839Y-30082322D01*
X16766356Y-30079454D01*
X16854042Y-30006914D01*
X16906559Y-30000000D01*
X19893441Y-30000000D01*
X20003307Y-30014464D01*
%TA.AperFunction,Conductor*%
D14*
G36*
X20003307Y-30014464D02*
G01*
X20099567Y-30054336D01*
X20182232Y-30117768D01*
X20245664Y-30200433D01*
X20285536Y-30296693D01*
X20300000Y-30406559D01*
X20300000Y-32204598D01*
X20279886Y-32333681D01*
X20224958Y-32443512D01*
X20139216Y-32531424D01*
X20030795Y-32589079D01*
X19902256Y-32612413D01*
X16916649Y-32687053D01*
X16804756Y-32674922D01*
X16706231Y-32636259D01*
X16621337Y-32573062D01*
X16556036Y-32489772D01*
X16514923Y-32392246D01*
X16500000Y-32280686D01*
X16500000Y-30406559D01*
X16514464Y-30296693D01*
X16553964Y-30201330D01*
X16713770Y-30114924D01*
X16738192Y-30098451D01*
X16762839Y-30082322D01*
X16766356Y-30079454D01*
X16854042Y-30006914D01*
X16906559Y-30000000D01*
X19893441Y-30000000D01*
X20003307Y-30014464D01*
G37*
%TD.AperFunction*%
%TD*%
D13*
%TO.N,COL*%
X20695244Y-43425078D02*
X20793769Y-43463741D01*
X20878663Y-43526938D01*
X20943964Y-43610228D01*
X20985077Y-43707754D01*
X21000000Y-43819314D01*
X21000000Y-45675000D01*
X17200000Y-45675000D01*
X17200000Y-43895402D01*
X17220114Y-43766319D01*
X17275042Y-43656488D01*
X17360784Y-43568576D01*
X17469205Y-43510921D01*
X17597744Y-43487587D01*
X20583351Y-43412947D01*
X20695244Y-43425078D01*
%TA.AperFunction,Conductor*%
D14*
G36*
X20695244Y-43425078D02*
G01*
X20793769Y-43463741D01*
X20878663Y-43526938D01*
X20943964Y-43610228D01*
X20985077Y-43707754D01*
X21000000Y-43819314D01*
X21000000Y-45675000D01*
X17200000Y-45675000D01*
X17200000Y-43895402D01*
X17220114Y-43766319D01*
X17275042Y-43656488D01*
X17360784Y-43568576D01*
X17469205Y-43510921D01*
X17597744Y-43487587D01*
X20583351Y-43412947D01*
X20695244Y-43425078D01*
G37*
%TD.AperFunction*%
%TD*%
D13*
%TO.N,GND*%
X26130805Y-30339384D02*
X26256629Y-30377373D01*
X26372675Y-30439076D01*
X26474532Y-30522148D01*
X26558310Y-30623418D01*
X26620819Y-30739027D01*
X26659686Y-30864586D01*
X26675000Y-31010285D01*
X26675000Y-34494057D01*
X26588066Y-34506728D01*
X23811875Y-34543256D01*
X23700931Y-34530010D01*
X23603479Y-34490766D01*
X23519641Y-34427451D01*
X23455227Y-34344450D01*
X23414705Y-34247525D01*
X23400000Y-34136770D01*
X23400000Y-30449786D01*
X23414217Y-30340851D01*
X23420720Y-30325000D01*
X25984103Y-30325000D01*
X26130805Y-30339384D01*
%TA.AperFunction,Conductor*%
D14*
G36*
X26130805Y-30339384D02*
G01*
X26256629Y-30377373D01*
X26372675Y-30439076D01*
X26474532Y-30522148D01*
X26558310Y-30623418D01*
X26620819Y-30739027D01*
X26659686Y-30864586D01*
X26675000Y-31010285D01*
X26675000Y-34494057D01*
X26588066Y-34506728D01*
X23811875Y-34543256D01*
X23700931Y-34530010D01*
X23603479Y-34490766D01*
X23519641Y-34427451D01*
X23455227Y-34344450D01*
X23414705Y-34247525D01*
X23400000Y-34136770D01*
X23400000Y-30449786D01*
X23414217Y-30340851D01*
X23420720Y-30325000D01*
X25984103Y-30325000D01*
X26130805Y-30339384D01*
G37*
%TD.AperFunction*%
%TD*%
D13*
%TO.N,VCC*%
X14785536Y-30396693D02*
X14800000Y-30506559D01*
X14800000Y-33493441D01*
X14785536Y-33603307D01*
X14745664Y-33699567D01*
X14682232Y-33782232D01*
X14599567Y-33845664D01*
X14503307Y-33885536D01*
X14393441Y-33900000D01*
X11506559Y-33900000D01*
X11396693Y-33885536D01*
X11325000Y-33855840D01*
X11325000Y-31015897D01*
X11339384Y-30869195D01*
X11377373Y-30743371D01*
X11439076Y-30627325D01*
X11522148Y-30525468D01*
X11623418Y-30441690D01*
X11739027Y-30379181D01*
X11864586Y-30340314D01*
X12010285Y-30325000D01*
X14755840Y-30325000D01*
X14785536Y-30396693D01*
%TA.AperFunction,Conductor*%
D14*
G36*
X14785536Y-30396693D02*
G01*
X14800000Y-30506559D01*
X14800000Y-33493441D01*
X14785536Y-33603307D01*
X14745664Y-33699567D01*
X14682232Y-33782232D01*
X14599567Y-33845664D01*
X14503307Y-33885536D01*
X14393441Y-33900000D01*
X11506559Y-33900000D01*
X11396693Y-33885536D01*
X11325000Y-33855840D01*
X11325000Y-31015897D01*
X11339384Y-30869195D01*
X11377373Y-30743371D01*
X11439076Y-30627325D01*
X11522148Y-30525468D01*
X11623418Y-30441690D01*
X11739027Y-30379181D01*
X11864586Y-30340314D01*
X12010285Y-30325000D01*
X14755840Y-30325000D01*
X14785536Y-30396693D01*
G37*
%TD.AperFunction*%
%TD*%
D13*
%TO.N,DO*%
X26558119Y-41614261D02*
X26653820Y-41653591D01*
X26675001Y-41669688D01*
X26675001Y-44984094D01*
X26660616Y-45130805D01*
X26622627Y-45256629D01*
X26560924Y-45372675D01*
X26477853Y-45474531D01*
X26376586Y-45558307D01*
X26260973Y-45620819D01*
X26135410Y-45659687D01*
X25989716Y-45675000D01*
X23149568Y-45675000D01*
X23119121Y-45599725D01*
X23105684Y-45488959D01*
X23144428Y-42002059D01*
X23159899Y-41893129D01*
X23200290Y-41797870D01*
X23263807Y-41716194D01*
X23346180Y-41653591D01*
X23441881Y-41614261D01*
X23550987Y-41600000D01*
X26449013Y-41600000D01*
X26558119Y-41614261D01*
%TA.AperFunction,Conductor*%
D14*
G36*
X26558119Y-41614261D02*
G01*
X26653820Y-41653591D01*
X26675001Y-41669688D01*
X26675001Y-44984094D01*
X26660616Y-45130805D01*
X26622627Y-45256629D01*
X26560924Y-45372675D01*
X26477853Y-45474531D01*
X26376586Y-45558307D01*
X26260973Y-45620819D01*
X26135410Y-45659687D01*
X25989716Y-45675000D01*
X23149568Y-45675000D01*
X23119121Y-45599725D01*
X23105684Y-45488959D01*
X23144428Y-42002059D01*
X23159899Y-41893129D01*
X23200290Y-41797870D01*
X23263807Y-41716194D01*
X23346180Y-41653591D01*
X23441881Y-41614261D01*
X23550987Y-41600000D01*
X26449013Y-41600000D01*
X26558119Y-41614261D01*
G37*
%TD.AperFunction*%
%TD*%
D13*
%TO.N,DI*%
X13433681Y-42020114D02*
X13543512Y-42075042D01*
X13631424Y-42160784D01*
X13689079Y-42269205D01*
X13712413Y-42397744D01*
X13787053Y-45383351D01*
X13774922Y-45495244D01*
X13736259Y-45593769D01*
X13675789Y-45675000D01*
X12015896Y-45675000D01*
X11869195Y-45660616D01*
X11743371Y-45622627D01*
X11627325Y-45560924D01*
X11525469Y-45477853D01*
X11441693Y-45376586D01*
X11379181Y-45260973D01*
X11340313Y-45135410D01*
X11325000Y-44989716D01*
X11325000Y-42044160D01*
X11396693Y-42014464D01*
X11506559Y-42000000D01*
X13304598Y-42000000D01*
X13433681Y-42020114D01*
%TA.AperFunction,Conductor*%
D14*
G36*
X13433681Y-42020114D02*
G01*
X13543512Y-42075042D01*
X13631424Y-42160784D01*
X13689079Y-42269205D01*
X13712413Y-42397744D01*
X13787053Y-45383351D01*
X13774922Y-45495244D01*
X13736259Y-45593769D01*
X13675789Y-45675000D01*
X12015896Y-45675000D01*
X11869195Y-45660616D01*
X11743371Y-45622627D01*
X11627325Y-45560924D01*
X11525469Y-45477853D01*
X11441693Y-45376586D01*
X11379181Y-45260973D01*
X11340313Y-45135410D01*
X11325000Y-44989716D01*
X11325000Y-42044160D01*
X11396693Y-42014464D01*
X11506559Y-42000000D01*
X13304598Y-42000000D01*
X13433681Y-42020114D01*
G37*
%TD.AperFunction*%
%TD*%
D13*
%TO.N,ROW*%
X32133681Y-36120114D02*
X32243512Y-36175042D01*
X32331424Y-36260784D01*
X32389079Y-36369205D01*
X32412413Y-36497744D01*
X32424177Y-36968297D01*
X32246918Y-37086737D01*
X32086737Y-37246918D01*
X31960884Y-37435271D01*
X31874194Y-37644557D01*
X31830000Y-37866735D01*
X31830000Y-38093265D01*
X31874194Y-38315443D01*
X31960884Y-38524729D01*
X32086737Y-38713082D01*
X32246918Y-38873263D01*
X32435271Y-38999116D01*
X32475362Y-39015723D01*
X32487053Y-39483351D01*
X32474922Y-39595244D01*
X32436259Y-39693769D01*
X32373062Y-39778663D01*
X32289772Y-39843964D01*
X32192246Y-39885077D01*
X32080686Y-39900000D01*
X30325000Y-39900000D01*
X30325000Y-36100000D01*
X32004598Y-36100000D01*
X32133681Y-36120114D01*
%TA.AperFunction,Conductor*%
D14*
G36*
X32133681Y-36120114D02*
G01*
X32243512Y-36175042D01*
X32331424Y-36260784D01*
X32389079Y-36369205D01*
X32412413Y-36497744D01*
X32424177Y-36968297D01*
X32246918Y-37086737D01*
X32086737Y-37246918D01*
X31960884Y-37435271D01*
X31874194Y-37644557D01*
X31830000Y-37866735D01*
X31830000Y-38093265D01*
X31874194Y-38315443D01*
X31960884Y-38524729D01*
X32086737Y-38713082D01*
X32246918Y-38873263D01*
X32435271Y-38999116D01*
X32475362Y-39015723D01*
X32487053Y-39483351D01*
X32474922Y-39595244D01*
X32436259Y-39693769D01*
X32373062Y-39778663D01*
X32289772Y-39843964D01*
X32192246Y-39885077D01*
X32080686Y-39900000D01*
X30325000Y-39900000D01*
X30325000Y-36100000D01*
X32004598Y-36100000D01*
X32133681Y-36120114D01*
G37*
%TD.AperFunction*%
%TD*%
D13*
%TO.N,ROW*%
X45675000Y-35704897D02*
X45675001Y-40190035D01*
X45598782Y-40200000D01*
X43801218Y-40200000D01*
X43692085Y-40185731D01*
X43596364Y-40146379D01*
X43513971Y-40083736D01*
X43450461Y-40002023D01*
X43410091Y-39906719D01*
X43394662Y-39797747D01*
X43387275Y-39103344D01*
X43475443Y-39085806D01*
X43684729Y-38999116D01*
X43873082Y-38873263D01*
X44033263Y-38713082D01*
X44159116Y-38524729D01*
X44245806Y-38315443D01*
X44290000Y-38093265D01*
X44290000Y-37866735D01*
X44245806Y-37644557D01*
X44159116Y-37435271D01*
X44033263Y-37246918D01*
X43873082Y-37086737D01*
X43684729Y-36960884D01*
X43475443Y-36874194D01*
X43363323Y-36851892D01*
X43355440Y-36110855D01*
X43368921Y-36000120D01*
X43408287Y-35902897D01*
X43471628Y-35819280D01*
X43554561Y-35755058D01*
X43651364Y-35714658D01*
X43761946Y-35700000D01*
X45638054Y-35700000D01*
X45675000Y-35704897D01*
%TA.AperFunction,Conductor*%
D14*
G36*
X45675000Y-35704897D02*
G01*
X45675001Y-40190035D01*
X45598782Y-40200000D01*
X43801218Y-40200000D01*
X43692085Y-40185731D01*
X43596364Y-40146379D01*
X43513971Y-40083736D01*
X43450461Y-40002023D01*
X43410091Y-39906719D01*
X43394662Y-39797747D01*
X43387275Y-39103344D01*
X43475443Y-39085806D01*
X43684729Y-38999116D01*
X43873082Y-38873263D01*
X44033263Y-38713082D01*
X44159116Y-38524729D01*
X44245806Y-38315443D01*
X44290000Y-38093265D01*
X44290000Y-37866735D01*
X44245806Y-37644557D01*
X44159116Y-37435271D01*
X44033263Y-37246918D01*
X43873082Y-37086737D01*
X43684729Y-36960884D01*
X43475443Y-36874194D01*
X43363323Y-36851892D01*
X43355440Y-36110855D01*
X43368921Y-36000120D01*
X43408287Y-35902897D01*
X43471628Y-35819280D01*
X43554561Y-35755058D01*
X43651364Y-35714658D01*
X43761946Y-35700000D01*
X45638054Y-35700000D01*
X45675000Y-35704897D01*
G37*
%TD.AperFunction*%
%TD*%
D13*
%TO.N,COL*%
X39003307Y-30014464D02*
X39099567Y-30054336D01*
X39182232Y-30117768D01*
X39245664Y-30200433D01*
X39285536Y-30296693D01*
X39300000Y-30406559D01*
X39300000Y-32204598D01*
X39279886Y-32333681D01*
X39224958Y-32443512D01*
X39139216Y-32531424D01*
X39030795Y-32589079D01*
X38902256Y-32612413D01*
X35916649Y-32687053D01*
X35804756Y-32674922D01*
X35706231Y-32636259D01*
X35621337Y-32573062D01*
X35556036Y-32489772D01*
X35514923Y-32392246D01*
X35500000Y-32280686D01*
X35500000Y-30406559D01*
X35514464Y-30296693D01*
X35553964Y-30201330D01*
X35713770Y-30114924D01*
X35738192Y-30098451D01*
X35762839Y-30082322D01*
X35766356Y-30079454D01*
X35854042Y-30006914D01*
X35906559Y-30000000D01*
X38893441Y-30000000D01*
X39003307Y-30014464D01*
%TA.AperFunction,Conductor*%
D14*
G36*
X39003307Y-30014464D02*
G01*
X39099567Y-30054336D01*
X39182232Y-30117768D01*
X39245664Y-30200433D01*
X39285536Y-30296693D01*
X39300000Y-30406559D01*
X39300000Y-32204598D01*
X39279886Y-32333681D01*
X39224958Y-32443512D01*
X39139216Y-32531424D01*
X39030795Y-32589079D01*
X38902256Y-32612413D01*
X35916649Y-32687053D01*
X35804756Y-32674922D01*
X35706231Y-32636259D01*
X35621337Y-32573062D01*
X35556036Y-32489772D01*
X35514923Y-32392246D01*
X35500000Y-32280686D01*
X35500000Y-30406559D01*
X35514464Y-30296693D01*
X35553964Y-30201330D01*
X35713770Y-30114924D01*
X35738192Y-30098451D01*
X35762839Y-30082322D01*
X35766356Y-30079454D01*
X35854042Y-30006914D01*
X35906559Y-30000000D01*
X38893441Y-30000000D01*
X39003307Y-30014464D01*
G37*
%TD.AperFunction*%
%TD*%
D13*
%TO.N,COL*%
X39695244Y-43425078D02*
X39793769Y-43463741D01*
X39878663Y-43526938D01*
X39943964Y-43610228D01*
X39985077Y-43707754D01*
X40000000Y-43819314D01*
X40000000Y-45675000D01*
X36200000Y-45675000D01*
X36200000Y-43895402D01*
X36220114Y-43766319D01*
X36275042Y-43656488D01*
X36360784Y-43568576D01*
X36469205Y-43510921D01*
X36597744Y-43487587D01*
X39583351Y-43412947D01*
X39695244Y-43425078D01*
%TA.AperFunction,Conductor*%
D14*
G36*
X39695244Y-43425078D02*
G01*
X39793769Y-43463741D01*
X39878663Y-43526938D01*
X39943964Y-43610228D01*
X39985077Y-43707754D01*
X40000000Y-43819314D01*
X40000000Y-45675000D01*
X36200000Y-45675000D01*
X36200000Y-43895402D01*
X36220114Y-43766319D01*
X36275042Y-43656488D01*
X36360784Y-43568576D01*
X36469205Y-43510921D01*
X36597744Y-43487587D01*
X39583351Y-43412947D01*
X39695244Y-43425078D01*
G37*
%TD.AperFunction*%
%TD*%
D13*
%TO.N,GND*%
X45130805Y-30339384D02*
X45256629Y-30377373D01*
X45372675Y-30439076D01*
X45474532Y-30522148D01*
X45558310Y-30623418D01*
X45620819Y-30739027D01*
X45659686Y-30864586D01*
X45675000Y-31010285D01*
X45675000Y-34494057D01*
X45588066Y-34506728D01*
X42811875Y-34543256D01*
X42700931Y-34530010D01*
X42603479Y-34490766D01*
X42519641Y-34427451D01*
X42455227Y-34344450D01*
X42414705Y-34247525D01*
X42400000Y-34136770D01*
X42400000Y-30449786D01*
X42414217Y-30340851D01*
X42420720Y-30325000D01*
X44984103Y-30325000D01*
X45130805Y-30339384D01*
%TA.AperFunction,Conductor*%
D14*
G36*
X45130805Y-30339384D02*
G01*
X45256629Y-30377373D01*
X45372675Y-30439076D01*
X45474532Y-30522148D01*
X45558310Y-30623418D01*
X45620819Y-30739027D01*
X45659686Y-30864586D01*
X45675000Y-31010285D01*
X45675000Y-34494057D01*
X45588066Y-34506728D01*
X42811875Y-34543256D01*
X42700931Y-34530010D01*
X42603479Y-34490766D01*
X42519641Y-34427451D01*
X42455227Y-34344450D01*
X42414705Y-34247525D01*
X42400000Y-34136770D01*
X42400000Y-30449786D01*
X42414217Y-30340851D01*
X42420720Y-30325000D01*
X44984103Y-30325000D01*
X45130805Y-30339384D01*
G37*
%TD.AperFunction*%
%TD*%
D13*
%TO.N,VCC*%
X33785536Y-30396693D02*
X33800000Y-30506559D01*
X33800000Y-33493441D01*
X33785536Y-33603307D01*
X33745664Y-33699567D01*
X33682232Y-33782232D01*
X33599567Y-33845664D01*
X33503307Y-33885536D01*
X33393441Y-33900000D01*
X30506559Y-33900000D01*
X30396693Y-33885536D01*
X30325000Y-33855840D01*
X30325000Y-31015897D01*
X30339384Y-30869195D01*
X30377373Y-30743371D01*
X30439076Y-30627325D01*
X30522148Y-30525468D01*
X30623418Y-30441690D01*
X30739027Y-30379181D01*
X30864586Y-30340314D01*
X31010285Y-30325000D01*
X33755840Y-30325000D01*
X33785536Y-30396693D01*
%TA.AperFunction,Conductor*%
D14*
G36*
X33785536Y-30396693D02*
G01*
X33800000Y-30506559D01*
X33800000Y-33493441D01*
X33785536Y-33603307D01*
X33745664Y-33699567D01*
X33682232Y-33782232D01*
X33599567Y-33845664D01*
X33503307Y-33885536D01*
X33393441Y-33900000D01*
X30506559Y-33900000D01*
X30396693Y-33885536D01*
X30325000Y-33855840D01*
X30325000Y-31015897D01*
X30339384Y-30869195D01*
X30377373Y-30743371D01*
X30439076Y-30627325D01*
X30522148Y-30525468D01*
X30623418Y-30441690D01*
X30739027Y-30379181D01*
X30864586Y-30340314D01*
X31010285Y-30325000D01*
X33755840Y-30325000D01*
X33785536Y-30396693D01*
G37*
%TD.AperFunction*%
%TD*%
D13*
%TO.N,DO*%
X45558119Y-41614261D02*
X45653820Y-41653591D01*
X45675001Y-41669688D01*
X45675001Y-44984094D01*
X45660616Y-45130805D01*
X45622627Y-45256629D01*
X45560924Y-45372675D01*
X45477853Y-45474531D01*
X45376586Y-45558307D01*
X45260973Y-45620819D01*
X45135410Y-45659687D01*
X44989716Y-45675000D01*
X42149568Y-45675000D01*
X42119121Y-45599725D01*
X42105684Y-45488959D01*
X42144428Y-42002059D01*
X42159899Y-41893129D01*
X42200290Y-41797870D01*
X42263807Y-41716194D01*
X42346180Y-41653591D01*
X42441881Y-41614261D01*
X42550987Y-41600000D01*
X45449013Y-41600000D01*
X45558119Y-41614261D01*
%TA.AperFunction,Conductor*%
D14*
G36*
X45558119Y-41614261D02*
G01*
X45653820Y-41653591D01*
X45675001Y-41669688D01*
X45675001Y-44984094D01*
X45660616Y-45130805D01*
X45622627Y-45256629D01*
X45560924Y-45372675D01*
X45477853Y-45474531D01*
X45376586Y-45558307D01*
X45260973Y-45620819D01*
X45135410Y-45659687D01*
X44989716Y-45675000D01*
X42149568Y-45675000D01*
X42119121Y-45599725D01*
X42105684Y-45488959D01*
X42144428Y-42002059D01*
X42159899Y-41893129D01*
X42200290Y-41797870D01*
X42263807Y-41716194D01*
X42346180Y-41653591D01*
X42441881Y-41614261D01*
X42550987Y-41600000D01*
X45449013Y-41600000D01*
X45558119Y-41614261D01*
G37*
%TD.AperFunction*%
%TD*%
D13*
%TO.N,DI*%
X32433681Y-42020114D02*
X32543512Y-42075042D01*
X32631424Y-42160784D01*
X32689079Y-42269205D01*
X32712413Y-42397744D01*
X32787053Y-45383351D01*
X32774922Y-45495244D01*
X32736259Y-45593769D01*
X32675789Y-45675000D01*
X31015896Y-45675000D01*
X30869195Y-45660616D01*
X30743371Y-45622627D01*
X30627325Y-45560924D01*
X30525469Y-45477853D01*
X30441693Y-45376586D01*
X30379181Y-45260973D01*
X30340313Y-45135410D01*
X30325000Y-44989716D01*
X30325000Y-42044160D01*
X30396693Y-42014464D01*
X30506559Y-42000000D01*
X32304598Y-42000000D01*
X32433681Y-42020114D01*
%TA.AperFunction,Conductor*%
D14*
G36*
X32433681Y-42020114D02*
G01*
X32543512Y-42075042D01*
X32631424Y-42160784D01*
X32689079Y-42269205D01*
X32712413Y-42397744D01*
X32787053Y-45383351D01*
X32774922Y-45495244D01*
X32736259Y-45593769D01*
X32675789Y-45675000D01*
X31015896Y-45675000D01*
X30869195Y-45660616D01*
X30743371Y-45622627D01*
X30627325Y-45560924D01*
X30525469Y-45477853D01*
X30441693Y-45376586D01*
X30379181Y-45260973D01*
X30340313Y-45135410D01*
X30325000Y-44989716D01*
X30325000Y-42044160D01*
X30396693Y-42014464D01*
X30506559Y-42000000D01*
X32304598Y-42000000D01*
X32433681Y-42020114D01*
G37*
%TD.AperFunction*%
%TD*%
D13*
%TO.N,ROW*%
X51133681Y-36120114D02*
X51243512Y-36175042D01*
X51331424Y-36260784D01*
X51389079Y-36369205D01*
X51412413Y-36497744D01*
X51424177Y-36968297D01*
X51246918Y-37086737D01*
X51086737Y-37246918D01*
X50960884Y-37435271D01*
X50874194Y-37644557D01*
X50830000Y-37866735D01*
X50830000Y-38093265D01*
X50874194Y-38315443D01*
X50960884Y-38524729D01*
X51086737Y-38713082D01*
X51246918Y-38873263D01*
X51435271Y-38999116D01*
X51475362Y-39015723D01*
X51487053Y-39483351D01*
X51474922Y-39595244D01*
X51436259Y-39693769D01*
X51373062Y-39778663D01*
X51289772Y-39843964D01*
X51192246Y-39885077D01*
X51080686Y-39900000D01*
X49325000Y-39900000D01*
X49325000Y-36100000D01*
X51004598Y-36100000D01*
X51133681Y-36120114D01*
%TA.AperFunction,Conductor*%
D14*
G36*
X51133681Y-36120114D02*
G01*
X51243512Y-36175042D01*
X51331424Y-36260784D01*
X51389079Y-36369205D01*
X51412413Y-36497744D01*
X51424177Y-36968297D01*
X51246918Y-37086737D01*
X51086737Y-37246918D01*
X50960884Y-37435271D01*
X50874194Y-37644557D01*
X50830000Y-37866735D01*
X50830000Y-38093265D01*
X50874194Y-38315443D01*
X50960884Y-38524729D01*
X51086737Y-38713082D01*
X51246918Y-38873263D01*
X51435271Y-38999116D01*
X51475362Y-39015723D01*
X51487053Y-39483351D01*
X51474922Y-39595244D01*
X51436259Y-39693769D01*
X51373062Y-39778663D01*
X51289772Y-39843964D01*
X51192246Y-39885077D01*
X51080686Y-39900000D01*
X49325000Y-39900000D01*
X49325000Y-36100000D01*
X51004598Y-36100000D01*
X51133681Y-36120114D01*
G37*
%TD.AperFunction*%
%TD*%
D13*
%TO.N,ROW*%
X64675001Y-35704897D02*
X64675000Y-40190035D01*
X64598782Y-40200000D01*
X62801218Y-40200000D01*
X62692085Y-40185731D01*
X62596364Y-40146379D01*
X62513971Y-40083736D01*
X62450461Y-40002023D01*
X62410091Y-39906719D01*
X62394662Y-39797747D01*
X62387275Y-39103344D01*
X62475443Y-39085806D01*
X62684729Y-38999116D01*
X62873082Y-38873263D01*
X63033263Y-38713082D01*
X63159116Y-38524729D01*
X63245806Y-38315443D01*
X63290000Y-38093265D01*
X63290000Y-37866735D01*
X63245806Y-37644557D01*
X63159116Y-37435271D01*
X63033263Y-37246918D01*
X62873082Y-37086737D01*
X62684729Y-36960884D01*
X62475443Y-36874194D01*
X62363323Y-36851892D01*
X62355440Y-36110855D01*
X62368921Y-36000120D01*
X62408287Y-35902897D01*
X62471628Y-35819280D01*
X62554561Y-35755058D01*
X62651364Y-35714658D01*
X62761946Y-35700000D01*
X64638054Y-35700000D01*
X64675001Y-35704897D01*
%TA.AperFunction,Conductor*%
D14*
G36*
X64675001Y-35704897D02*
G01*
X64675000Y-40190035D01*
X64598782Y-40200000D01*
X62801218Y-40200000D01*
X62692085Y-40185731D01*
X62596364Y-40146379D01*
X62513971Y-40083736D01*
X62450461Y-40002023D01*
X62410091Y-39906719D01*
X62394662Y-39797747D01*
X62387275Y-39103344D01*
X62475443Y-39085806D01*
X62684729Y-38999116D01*
X62873082Y-38873263D01*
X63033263Y-38713082D01*
X63159116Y-38524729D01*
X63245806Y-38315443D01*
X63290000Y-38093265D01*
X63290000Y-37866735D01*
X63245806Y-37644557D01*
X63159116Y-37435271D01*
X63033263Y-37246918D01*
X62873082Y-37086737D01*
X62684729Y-36960884D01*
X62475443Y-36874194D01*
X62363323Y-36851892D01*
X62355440Y-36110855D01*
X62368921Y-36000120D01*
X62408287Y-35902897D01*
X62471628Y-35819280D01*
X62554561Y-35755058D01*
X62651364Y-35714658D01*
X62761946Y-35700000D01*
X64638054Y-35700000D01*
X64675001Y-35704897D01*
G37*
%TD.AperFunction*%
%TD*%
D13*
%TO.N,COL*%
X58003307Y-30014464D02*
X58099567Y-30054336D01*
X58182232Y-30117768D01*
X58245664Y-30200433D01*
X58285536Y-30296693D01*
X58300000Y-30406559D01*
X58300000Y-32204598D01*
X58279886Y-32333681D01*
X58224958Y-32443512D01*
X58139216Y-32531424D01*
X58030795Y-32589079D01*
X57902256Y-32612413D01*
X54916649Y-32687053D01*
X54804756Y-32674922D01*
X54706231Y-32636259D01*
X54621337Y-32573062D01*
X54556036Y-32489772D01*
X54514923Y-32392246D01*
X54500000Y-32280686D01*
X54500000Y-30406559D01*
X54514464Y-30296693D01*
X54553964Y-30201330D01*
X54713770Y-30114924D01*
X54738192Y-30098451D01*
X54762839Y-30082322D01*
X54766356Y-30079454D01*
X54854042Y-30006914D01*
X54906559Y-30000000D01*
X57893441Y-30000000D01*
X58003307Y-30014464D01*
%TA.AperFunction,Conductor*%
D14*
G36*
X58003307Y-30014464D02*
G01*
X58099567Y-30054336D01*
X58182232Y-30117768D01*
X58245664Y-30200433D01*
X58285536Y-30296693D01*
X58300000Y-30406559D01*
X58300000Y-32204598D01*
X58279886Y-32333681D01*
X58224958Y-32443512D01*
X58139216Y-32531424D01*
X58030795Y-32589079D01*
X57902256Y-32612413D01*
X54916649Y-32687053D01*
X54804756Y-32674922D01*
X54706231Y-32636259D01*
X54621337Y-32573062D01*
X54556036Y-32489772D01*
X54514923Y-32392246D01*
X54500000Y-32280686D01*
X54500000Y-30406559D01*
X54514464Y-30296693D01*
X54553964Y-30201330D01*
X54713770Y-30114924D01*
X54738192Y-30098451D01*
X54762839Y-30082322D01*
X54766356Y-30079454D01*
X54854042Y-30006914D01*
X54906559Y-30000000D01*
X57893441Y-30000000D01*
X58003307Y-30014464D01*
G37*
%TD.AperFunction*%
%TD*%
D13*
%TO.N,COL*%
X58695244Y-43425078D02*
X58793769Y-43463741D01*
X58878663Y-43526938D01*
X58943964Y-43610228D01*
X58985077Y-43707754D01*
X59000000Y-43819314D01*
X59000000Y-45675000D01*
X55200000Y-45675000D01*
X55200000Y-43895402D01*
X55220114Y-43766319D01*
X55275042Y-43656488D01*
X55360784Y-43568576D01*
X55469205Y-43510921D01*
X55597744Y-43487587D01*
X58583351Y-43412947D01*
X58695244Y-43425078D01*
%TA.AperFunction,Conductor*%
D14*
G36*
X58695244Y-43425078D02*
G01*
X58793769Y-43463741D01*
X58878663Y-43526938D01*
X58943964Y-43610228D01*
X58985077Y-43707754D01*
X59000000Y-43819314D01*
X59000000Y-45675000D01*
X55200000Y-45675000D01*
X55200000Y-43895402D01*
X55220114Y-43766319D01*
X55275042Y-43656488D01*
X55360784Y-43568576D01*
X55469205Y-43510921D01*
X55597744Y-43487587D01*
X58583351Y-43412947D01*
X58695244Y-43425078D01*
G37*
%TD.AperFunction*%
%TD*%
D13*
%TO.N,GND*%
X64130805Y-30339384D02*
X64256629Y-30377373D01*
X64372675Y-30439076D01*
X64474532Y-30522148D01*
X64558310Y-30623418D01*
X64620819Y-30739027D01*
X64659686Y-30864586D01*
X64675001Y-31010295D01*
X64675001Y-34494057D01*
X64588066Y-34506728D01*
X61811875Y-34543256D01*
X61700931Y-34530010D01*
X61603479Y-34490766D01*
X61519641Y-34427451D01*
X61455227Y-34344450D01*
X61414705Y-34247525D01*
X61400000Y-34136770D01*
X61400000Y-30449786D01*
X61414217Y-30340851D01*
X61420720Y-30325000D01*
X63984103Y-30325000D01*
X64130805Y-30339384D01*
%TA.AperFunction,Conductor*%
D14*
G36*
X64130805Y-30339384D02*
G01*
X64256629Y-30377373D01*
X64372675Y-30439076D01*
X64474532Y-30522148D01*
X64558310Y-30623418D01*
X64620819Y-30739027D01*
X64659686Y-30864586D01*
X64675001Y-31010295D01*
X64675001Y-34494057D01*
X64588066Y-34506728D01*
X61811875Y-34543256D01*
X61700931Y-34530010D01*
X61603479Y-34490766D01*
X61519641Y-34427451D01*
X61455227Y-34344450D01*
X61414705Y-34247525D01*
X61400000Y-34136770D01*
X61400000Y-30449786D01*
X61414217Y-30340851D01*
X61420720Y-30325000D01*
X63984103Y-30325000D01*
X64130805Y-30339384D01*
G37*
%TD.AperFunction*%
%TD*%
D13*
%TO.N,VCC*%
X52785536Y-30396693D02*
X52800000Y-30506559D01*
X52800000Y-33493441D01*
X52785536Y-33603307D01*
X52745664Y-33699567D01*
X52682232Y-33782232D01*
X52599567Y-33845664D01*
X52503307Y-33885536D01*
X52393441Y-33900000D01*
X49506559Y-33900000D01*
X49396693Y-33885536D01*
X49325000Y-33855840D01*
X49325000Y-31015897D01*
X49339384Y-30869195D01*
X49377373Y-30743371D01*
X49439076Y-30627325D01*
X49522148Y-30525468D01*
X49623418Y-30441690D01*
X49739027Y-30379181D01*
X49864586Y-30340314D01*
X50010285Y-30325000D01*
X52755840Y-30325000D01*
X52785536Y-30396693D01*
%TA.AperFunction,Conductor*%
D14*
G36*
X52785536Y-30396693D02*
G01*
X52800000Y-30506559D01*
X52800000Y-33493441D01*
X52785536Y-33603307D01*
X52745664Y-33699567D01*
X52682232Y-33782232D01*
X52599567Y-33845664D01*
X52503307Y-33885536D01*
X52393441Y-33900000D01*
X49506559Y-33900000D01*
X49396693Y-33885536D01*
X49325000Y-33855840D01*
X49325000Y-31015897D01*
X49339384Y-30869195D01*
X49377373Y-30743371D01*
X49439076Y-30627325D01*
X49522148Y-30525468D01*
X49623418Y-30441690D01*
X49739027Y-30379181D01*
X49864586Y-30340314D01*
X50010285Y-30325000D01*
X52755840Y-30325000D01*
X52785536Y-30396693D01*
G37*
%TD.AperFunction*%
%TD*%
D13*
%TO.N,DO*%
X64558119Y-41614261D02*
X64653820Y-41653591D01*
X64675000Y-41669688D01*
X64675000Y-44984104D01*
X64660616Y-45130805D01*
X64622627Y-45256629D01*
X64560924Y-45372675D01*
X64477853Y-45474531D01*
X64376586Y-45558307D01*
X64260973Y-45620819D01*
X64135410Y-45659687D01*
X63989716Y-45675000D01*
X61149568Y-45675000D01*
X61119121Y-45599725D01*
X61105684Y-45488959D01*
X61144428Y-42002059D01*
X61159899Y-41893129D01*
X61200290Y-41797870D01*
X61263807Y-41716194D01*
X61346180Y-41653591D01*
X61441881Y-41614261D01*
X61550987Y-41600000D01*
X64449013Y-41600000D01*
X64558119Y-41614261D01*
%TA.AperFunction,Conductor*%
D14*
G36*
X64558119Y-41614261D02*
G01*
X64653820Y-41653591D01*
X64675000Y-41669688D01*
X64675000Y-44984104D01*
X64660616Y-45130805D01*
X64622627Y-45256629D01*
X64560924Y-45372675D01*
X64477853Y-45474531D01*
X64376586Y-45558307D01*
X64260973Y-45620819D01*
X64135410Y-45659687D01*
X63989716Y-45675000D01*
X61149568Y-45675000D01*
X61119121Y-45599725D01*
X61105684Y-45488959D01*
X61144428Y-42002059D01*
X61159899Y-41893129D01*
X61200290Y-41797870D01*
X61263807Y-41716194D01*
X61346180Y-41653591D01*
X61441881Y-41614261D01*
X61550987Y-41600000D01*
X64449013Y-41600000D01*
X64558119Y-41614261D01*
G37*
%TD.AperFunction*%
%TD*%
D13*
%TO.N,DI*%
X51433681Y-42020114D02*
X51543512Y-42075042D01*
X51631424Y-42160784D01*
X51689079Y-42269205D01*
X51712413Y-42397744D01*
X51787053Y-45383351D01*
X51774922Y-45495244D01*
X51736259Y-45593769D01*
X51675789Y-45675000D01*
X50015896Y-45675000D01*
X49869195Y-45660616D01*
X49743371Y-45622627D01*
X49627325Y-45560924D01*
X49525469Y-45477853D01*
X49441693Y-45376586D01*
X49379181Y-45260973D01*
X49340313Y-45135410D01*
X49325000Y-44989716D01*
X49325000Y-42044160D01*
X49396693Y-42014464D01*
X49506559Y-42000000D01*
X51304598Y-42000000D01*
X51433681Y-42020114D01*
%TA.AperFunction,Conductor*%
D14*
G36*
X51433681Y-42020114D02*
G01*
X51543512Y-42075042D01*
X51631424Y-42160784D01*
X51689079Y-42269205D01*
X51712413Y-42397744D01*
X51787053Y-45383351D01*
X51774922Y-45495244D01*
X51736259Y-45593769D01*
X51675789Y-45675000D01*
X50015896Y-45675000D01*
X49869195Y-45660616D01*
X49743371Y-45622627D01*
X49627325Y-45560924D01*
X49525469Y-45477853D01*
X49441693Y-45376586D01*
X49379181Y-45260973D01*
X49340313Y-45135410D01*
X49325000Y-44989716D01*
X49325000Y-42044160D01*
X49396693Y-42014464D01*
X49506559Y-42000000D01*
X51304598Y-42000000D01*
X51433681Y-42020114D01*
G37*
%TD.AperFunction*%
%TD*%
M02*
